<svg width="989" height="67" viewBox="0 0 989 67" fill="none" xmlns="http://www.w3.org/2000/svg">
<path d="M5.9 44.24C9.08 44.24 11.38 42.62 11.38 40.32C11.38 38.32 9.62 37.26 8.28 37.12C9.74 36.86 11.18 35.76 11.18 34.08C11.18 31.86 9.02 30.46 5.9 30.46C3.56 30.46 1.66 31.36 0.58 32.58L2 34.36C2.94 33.46 4.32 32.98 5.62 32.98C7.14 32.98 8.34 33.5 8.34 34.56C8.34 35.54 7.2 35.98 5.62 35.98H2.92V38.48H5.62C7.62 38.48 8.56 38.96 8.56 40.02C8.56 41.02 7.54 41.72 5.78 41.72C4.48 41.72 2.8 41.16 1.88 40.2L0.4 42.1C1.38 43.3 3.44 44.24 5.9 44.24ZM25.967 44L20.827 30.66H17.267L12.107 44H15.347L16.187 41.74H21.907L22.727 44H25.967ZM21.127 39.24H16.967L19.047 33.5L21.127 39.24ZM38.6189 44L32.9589 36.92L38.2589 30.66H34.7589L30.0389 36.62V30.66H27.1989V44H30.0389V39.9L31.0789 38.66L35.1189 44H38.6189ZM52.3538 44L47.2138 30.66H43.6538L38.4937 44H41.7338L42.5738 41.74H48.2938L49.1138 44H52.3538ZM47.5138 39.24H43.3538L45.4338 33.5L47.5138 39.24ZM58.0289 44.24C61.2089 44.24 63.5089 42.62 63.5089 40.32C63.5089 38.32 61.7489 37.26 60.4089 37.12C61.8689 36.86 63.3089 35.76 63.3089 34.08C63.3089 31.86 61.1489 30.46 58.0289 30.46C55.6889 30.46 53.7889 31.36 52.7089 32.58L54.1289 34.36C55.0689 33.46 56.4489 32.98 57.7489 32.98C59.2689 32.98 60.4689 33.5 60.4689 34.56C60.4689 35.54 59.3289 35.98 57.7489 35.98H55.0489V38.48H57.7489C59.7489 38.48 60.6889 38.96 60.6889 40.02C60.6889 41.02 59.6689 41.72 57.9089 41.72C56.6089 41.72 54.9289 41.16 54.0089 40.2L52.5289 42.1C53.5089 43.3 55.5689 44.24 58.0289 44.24ZM78.0959 44L72.9559 30.66H69.3959L64.2359 44H67.4759L68.3159 41.74H74.0359L74.8559 44H78.0959ZM73.2559 39.24H69.0959L71.1759 33.5L73.2559 39.24ZM83.9788 44V33.16H87.8588V30.66H77.2188V33.16H81.1188V44H83.9788ZM89.6794 30.66V44H95.9194C98.8194 44 100.399 42.04 100.399 39.7C100.399 37.38 98.7994 35.4 95.9194 35.4H92.5194V30.66H89.6794ZM95.5394 37.9C96.6594 37.9 97.4994 38.6 97.4994 39.7C97.4994 40.82 96.6594 41.5 95.5394 41.5H92.5194V37.9H95.5394ZM114.577 44L119.717 30.66H116.477L112.797 40.92L109.097 30.66H105.857L111.017 44H114.577ZM123.789 44V39.26H127.189C130.069 39.26 131.669 37.28 131.669 34.96C131.669 32.62 130.089 30.66 127.189 30.66H120.949V44H123.789ZM126.809 36.76H123.789V33.16H126.809C127.929 33.16 128.769 33.84 128.769 34.96C128.769 36.06 127.929 36.76 126.809 36.76ZM138.169 44.24C141.769 44.24 143.509 42.4 143.509 39.96C143.509 34.98 135.849 36.4 135.849 34.28C135.849 33.48 136.529 32.94 137.749 32.94C139.109 32.94 140.549 33.4 141.629 34.4L143.209 32.32C141.889 31.1 140.129 30.46 138.009 30.46C134.869 30.46 132.949 32.3 132.949 34.52C132.949 39.54 140.629 37.92 140.629 40.28C140.629 41.04 139.869 41.76 138.309 41.76C136.469 41.76 135.009 40.94 134.069 39.96L132.529 42.12C133.769 43.38 135.609 44.24 138.169 44.24Z" fill="#062436"/>
<path d="M989 66H0" stroke="#F7FAFB" stroke-width="2"/>
<path d="M7.584 11H6.792L6 9.032H1.764L0.972 11H0.18L3.456 2.996H4.308L7.584 11ZM5.772 8.408L3.876 3.728L1.992 8.408H5.772ZM14.5135 11H13.6375L10.3375 7.232L9.44953 8.204V11H8.76553V2.996H9.44953V7.376L13.3135 2.996H14.1895L10.7815 6.812L14.5135 11ZM21.5448 11H20.6688L17.3688 7.232L16.4808 8.204V11H15.7968V2.996H16.4808V7.376L20.3448 2.996H21.2208L17.8128 6.812L21.5448 11ZM29.416 11H28.624L27.832 9.032H23.596L22.804 11H22.012L25.288 2.996H26.14L29.416 11ZM27.604 8.408L25.708 3.728L23.824 8.408H27.604ZM31.2936 11.144C30.6296 11.144 30.1256 10.908 29.7816 10.436L30.1536 9.92C30.4736 10.32 30.8456 10.52 31.2696 10.52C31.5656 10.52 31.8056 10.436 31.9896 10.268C32.1736 10.1 32.3896 9.784 32.6376 9.32L32.9136 8.804L29.7816 2.996H30.5736L33.3096 8.168L36.0456 2.996H36.8376L33.2376 9.644C32.9576 10.164 32.6776 10.544 32.3976 10.784C32.1176 11.024 31.7496 11.144 31.2936 11.144ZM44.4715 11H43.7755V7.196H38.6995V11H38.0155V2.996H38.6995V6.572H43.7755V2.996H44.4715V11ZM49.189 11H48.493V3.62H45.877V2.996H51.805V3.62H49.189V11Z" fill="#062436"/>
</svg>
