<svg width="210" height="20" viewBox="0 0 210 20" fill="none" xmlns="http://www.w3.org/2000/svg">
<path d="M3.60997 14.144C2.96997 14.144 2.40197 14.02 1.90597 13.772C1.40997 13.524 1.02997 13.208 0.765969 12.824L1.35397 12.2C1.59397 12.52 1.90997 12.776 2.30197 12.968C2.69397 13.16 3.12197 13.256 3.58597 13.256C4.16997 13.256 4.62597 13.124 4.95397 12.86C5.28997 12.588 5.45797 12.22 5.45797 11.756C5.45797 11.276 5.27797 10.92 4.91797 10.688C4.56597 10.456 4.08197 10.34 3.46597 10.34C2.99397 10.34 2.71797 10.344 2.63797 10.352V9.44C2.72597 9.448 3.00197 9.452 3.46597 9.452C4.00997 9.452 4.45397 9.344 4.79797 9.128C5.14997 8.904 5.32597 8.572 5.32597 8.132C5.32597 7.708 5.15397 7.376 4.80997 7.136C4.47397 6.888 4.04997 6.764 3.53797 6.764C2.72997 6.764 2.02597 7.088 1.42597 7.736L0.873969 7.112C1.55397 6.288 2.46597 5.876 3.60997 5.876C4.40197 5.876 5.04997 6.068 5.55397 6.452C6.06597 6.828 6.32197 7.348 6.32197 8.012C6.32197 8.54 6.14597 8.964 5.79397 9.284C5.44197 9.596 5.04197 9.792 4.59397 9.872C5.03397 9.912 5.44997 10.104 5.84197 10.448C6.24197 10.792 6.44197 11.256 6.44197 11.84C6.44197 12.52 6.18597 13.076 5.67397 13.508C5.16197 13.932 4.47397 14.144 3.60997 14.144ZM12.2817 14H11.2857V11.972H7.48166V11.144L10.9137 5.996H12.2817V11.096H13.4097V11.972H12.2817V14ZM11.2857 11.096V6.92L8.47766 11.096H11.2857ZM17.4851 14.144C16.9491 14.144 16.4771 14.032 16.0691 13.808C15.6611 13.584 15.3371 13.28 15.0971 12.896C14.8651 12.504 14.6891 12.068 14.5691 11.588C14.4571 11.1 14.4011 10.576 14.4011 10.016C14.4011 9.264 14.5131 8.584 14.7371 7.976C14.9611 7.368 15.3211 6.868 15.8171 6.476C16.3211 6.076 16.9331 5.876 17.6531 5.876C18.5731 5.876 19.3131 6.196 19.8731 6.836L19.3691 7.58C18.9051 7.036 18.3331 6.764 17.6531 6.764C17.1571 6.764 16.7331 6.92 16.3811 7.232C16.0371 7.544 15.7851 7.932 15.6251 8.396C15.4731 8.852 15.3971 9.356 15.3971 9.908C15.3971 10.044 15.4011 10.148 15.4091 10.22C15.6091 9.9 15.9171 9.612 16.3331 9.356C16.7571 9.1 17.2051 8.972 17.6771 8.972C18.4371 8.972 19.0611 9.196 19.5491 9.644C20.0451 10.084 20.2931 10.712 20.2931 11.528C20.2931 12.256 20.0371 12.876 19.5251 13.388C19.0131 13.892 18.3331 14.144 17.4851 14.144ZM17.4491 13.256C18.0251 13.256 18.4731 13.084 18.7931 12.74C19.1211 12.388 19.2851 11.996 19.2851 11.564C19.2851 11.004 19.1131 10.576 18.7691 10.28C18.4251 9.984 17.9811 9.836 17.4371 9.836C17.0451 9.836 16.6691 9.948 16.3091 10.172C15.9491 10.388 15.6571 10.676 15.4331 11.036C15.4891 11.628 15.6811 12.148 16.0091 12.596C16.3371 13.036 16.8171 13.256 17.4491 13.256ZM23.4349 14H22.3309L25.5589 6.884H21.2509V5.996H26.7109V6.68L23.4349 14ZM34.5781 10.6543H30.2129V9.73438H34.5781C35.0039 9.73438 35.3535 9.66602 35.627 9.5293C35.9004 9.39258 36.1016 9.19922 36.2305 8.94922C36.3633 8.69922 36.4297 8.4043 36.4297 8.06445C36.4297 7.78711 36.3672 7.52148 36.2422 7.26758C36.1211 7.01367 35.9238 6.80469 35.6504 6.64062C35.3809 6.47656 35.0234 6.39453 34.5781 6.39453H32.5508V14H31.4258V5.46875H34.5781C35.2227 5.46875 35.7656 5.58008 36.207 5.80273C36.6484 6.02148 36.9824 6.32617 37.209 6.7168C37.4395 7.10352 37.5547 7.54883 37.5547 8.05273C37.5547 8.59961 37.4395 9.06836 37.209 9.45898C36.9824 9.8457 36.6484 10.1426 36.207 10.3496C35.7656 10.5527 35.2227 10.6543 34.5781 10.6543ZM34.5078 11.457V12.3828H30.2129V11.457H34.5078Z" fill="#7A8185"/>
<path d="M179.584 14H175.936V5.996H179.5C180.188 5.996 180.732 6.184 181.132 6.56C181.54 6.936 181.744 7.428 181.744 8.036C181.744 8.516 181.608 8.924 181.336 9.26C181.064 9.588 180.732 9.792 180.34 9.872C180.764 9.936 181.128 10.16 181.432 10.544C181.744 10.928 181.9 11.36 181.9 11.84C181.9 12.488 181.692 13.012 181.276 13.412C180.868 13.804 180.304 14 179.584 14ZM179.332 9.464C179.772 9.464 180.112 9.344 180.352 9.104C180.592 8.864 180.712 8.556 180.712 8.18C180.712 7.804 180.588 7.496 180.34 7.256C180.1 7.008 179.764 6.884 179.332 6.884H176.932V9.464H179.332ZM179.38 13.112C179.844 13.112 180.208 12.988 180.472 12.74C180.736 12.492 180.868 12.156 180.868 11.732C180.868 11.34 180.736 11.012 180.472 10.748C180.216 10.484 179.852 10.352 179.38 10.352H176.932V13.112H179.38ZM183.447 8.204H184.347V10.448H186.519C187.095 10.448 187.543 10.62 187.863 10.964C188.183 11.3 188.343 11.72 188.343 12.224C188.343 12.728 188.179 13.152 187.851 13.496C187.531 13.832 187.087 14 186.519 14H183.447V8.204ZM186.423 11.24H184.347V13.208H186.423C186.743 13.208 186.987 13.12 187.155 12.944C187.331 12.76 187.419 12.52 187.419 12.224C187.419 11.928 187.331 11.692 187.155 11.516C186.987 11.332 186.743 11.24 186.423 11.24ZM190.191 14H189.291V8.204H190.191V14ZM192.854 14H191.99V8.204H192.89V12.632L195.926 8.204H196.814V14H195.914V9.488L192.854 14ZM196.502 6.488C195.982 7.192 195.282 7.544 194.402 7.544C193.53 7.544 192.826 7.192 192.29 6.488L192.734 6.104C193.15 6.68 193.706 6.968 194.402 6.968C195.106 6.968 195.658 6.68 196.058 6.104L196.502 6.488ZM200.567 14H199.667V8.996H197.987V8.204H202.259V8.996H200.567V14ZM204.303 14H203.439V8.204H204.339V12.632L207.375 8.204H208.263V14H207.363V9.488L204.303 14Z" fill="#7A8185"/>
<path d="M103.712 13H102.812V12.184C102.572 12.456 102.268 12.684 101.9 12.868C101.54 13.052 101.156 13.144 100.748 13.144C99.516 13.144 98.9 12.528 98.9 11.296V7.204H99.8V11.02C99.8 11.5 99.908 11.84 100.124 12.04C100.348 12.24 100.672 12.34 101.096 12.34C101.432 12.34 101.756 12.256 102.068 12.088C102.388 11.92 102.636 11.712 102.812 11.464V7.204H103.712V13ZM107.345 13.144C106.361 13.144 105.581 12.84 105.005 12.232L105.473 11.584C105.673 11.816 105.945 12.012 106.289 12.172C106.641 12.332 107.005 12.412 107.381 12.412C107.813 12.412 108.149 12.32 108.389 12.136C108.629 11.952 108.749 11.712 108.749 11.416C108.749 11.16 108.625 10.96 108.377 10.816C108.129 10.664 107.829 10.552 107.477 10.48C107.133 10.4 106.785 10.312 106.433 10.216C106.081 10.112 105.781 9.94 105.533 9.7C105.285 9.452 105.161 9.128 105.161 8.728C105.161 8.256 105.353 7.86 105.737 7.54C106.129 7.22 106.657 7.06 107.321 7.06C108.193 7.06 108.909 7.34 109.469 7.9L109.049 8.524C108.641 8.036 108.065 7.792 107.321 7.792C106.929 7.792 106.617 7.88 106.385 8.056C106.153 8.224 106.037 8.44 106.037 8.704C106.037 8.936 106.161 9.12 106.409 9.256C106.657 9.384 106.953 9.488 107.297 9.568C107.649 9.64 108.001 9.728 108.353 9.832C108.705 9.936 109.005 10.12 109.253 10.384C109.501 10.64 109.625 10.976 109.625 11.392C109.625 11.904 109.425 12.324 109.025 12.652C108.625 12.98 108.065 13.144 107.345 13.144ZM113.704 13.144C112.84 13.144 112.132 12.864 111.58 12.304C111.028 11.736 110.752 11 110.752 10.096C110.752 9.248 111.024 8.532 111.568 7.948C112.112 7.356 112.792 7.06 113.608 7.06C114.464 7.06 115.14 7.356 115.636 7.948C116.14 8.532 116.392 9.272 116.392 10.168V10.396H111.7C111.74 10.964 111.948 11.44 112.324 11.824C112.7 12.208 113.188 12.4 113.788 12.4C114.508 12.4 115.104 12.156 115.576 11.668L116.008 12.256C115.416 12.848 114.648 13.144 113.704 13.144ZM115.504 9.736C115.496 9.24 115.328 8.796 115 8.404C114.672 8.004 114.204 7.804 113.596 7.804C113.02 7.804 112.564 8 112.228 8.392C111.9 8.784 111.724 9.232 111.7 9.736H115.504ZM118.749 13H117.849V7.204H118.749V8.14C119.285 7.436 119.929 7.084 120.681 7.084V8.008C120.569 7.984 120.449 7.972 120.321 7.972C120.049 7.972 119.753 8.068 119.433 8.26C119.113 8.452 118.885 8.664 118.749 8.896V13ZM126.622 13H125.722V9.208C125.722 8.72 125.61 8.376 125.386 8.176C125.162 7.968 124.842 7.864 124.426 7.864C124.09 7.864 123.762 7.952 123.442 8.128C123.13 8.304 122.886 8.516 122.71 8.764V13H121.81V7.204H122.71V8.044C122.934 7.78 123.234 7.552 123.61 7.36C123.986 7.16 124.374 7.06 124.774 7.06C126.006 7.06 126.622 7.684 126.622 8.932V13ZM132.944 13H132.044V12.34C131.556 12.876 130.916 13.144 130.124 13.144C129.588 13.144 129.116 12.972 128.708 12.628C128.3 12.284 128.096 11.816 128.096 11.224C128.096 10.616 128.296 10.148 128.696 9.82C129.104 9.484 129.58 9.316 130.124 9.316C130.948 9.316 131.588 9.58 132.044 10.108V9.064C132.044 8.68 131.908 8.38 131.636 8.164C131.364 7.948 131.012 7.84 130.58 7.84C129.9 7.84 129.308 8.108 128.804 8.644L128.384 8.02C129 7.38 129.772 7.06 130.7 7.06C131.364 7.06 131.904 7.22 132.32 7.54C132.736 7.86 132.944 8.352 132.944 9.016V13ZM130.448 12.496C131.168 12.496 131.7 12.256 132.044 11.776V10.684C131.7 10.204 131.168 9.964 130.448 9.964C130.032 9.964 129.688 10.084 129.416 10.324C129.152 10.556 129.02 10.86 129.02 11.236C129.02 11.604 129.152 11.908 129.416 12.148C129.688 12.38 130.032 12.496 130.448 12.496ZM142.644 13H141.744V9.064C141.744 8.264 141.388 7.864 140.676 7.864C140.388 7.864 140.1 7.952 139.812 8.128C139.524 8.304 139.3 8.512 139.14 8.752V13H138.24V9.064C138.24 8.264 137.884 7.864 137.172 7.864C136.892 7.864 136.608 7.952 136.32 8.128C136.04 8.304 135.816 8.516 135.648 8.764V13H134.748V7.204H135.648V8.044C135.792 7.82 136.044 7.6 136.404 7.384C136.764 7.168 137.136 7.06 137.52 7.06C137.944 7.06 138.288 7.16 138.552 7.36C138.816 7.56 138.992 7.82 139.08 8.14C139.256 7.852 139.524 7.6 139.884 7.384C140.244 7.168 140.624 7.06 141.024 7.06C142.104 7.06 142.644 7.644 142.644 8.812V13ZM147.055 13.144C146.191 13.144 145.483 12.864 144.931 12.304C144.379 11.736 144.103 11 144.103 10.096C144.103 9.248 144.375 8.532 144.919 7.948C145.463 7.356 146.143 7.06 146.959 7.06C147.815 7.06 148.491 7.356 148.987 7.948C149.491 8.532 149.743 9.272 149.743 10.168V10.396H145.051C145.091 10.964 145.299 11.44 145.675 11.824C146.051 12.208 146.539 12.4 147.139 12.4C147.859 12.4 148.455 12.156 148.927 11.668L149.359 12.256C148.767 12.848 147.999 13.144 147.055 13.144ZM148.855 9.736C148.847 9.24 148.679 8.796 148.351 8.404C148.023 8.004 147.555 7.804 146.947 7.804C146.371 7.804 145.915 8 145.579 8.392C145.251 8.784 145.075 9.232 145.051 9.736H148.855Z" fill="#7A8185"/>
<path fill-rule="evenodd" clip-rule="evenodd" d="M86.3761 14.9528C86.2104 15.3362 85.8522 15.572 85.4785 15.5463L82.1887 15.5037L82.0991 15.899C81.9879 16.3925 81.605 17.2545 80.2987 17.4854C80.204 17.5012 80.1011 17.5012 80.0013 17.5092C79.9004 17.5012 79.7964 17.5012 79.7017 17.4844C78.3954 17.2545 78.0125 16.3925 77.9014 15.899L77.8118 15.5037L74.5219 15.5463C74.1483 15.572 73.7901 15.3352 73.6243 14.9528C73.4452 14.5406 73.4916 13.9391 73.998 13.521C74.7288 12.9176 75.5935 11.9683 75.7984 9.97077C76.0372 7.65416 76.8843 6.00539 78.2503 5.11759C79.3157 4.42598 80.6837 4.42598 81.7491 5.11759C83.1151 6.0044 83.9633 7.65416 84.2021 9.97176C84.4069 11.9683 85.2716 12.9176 86.0025 13.522C86.5089 13.9391 86.5552 14.5406 86.3761 14.9528ZM80.0002 2.49085C80.2298 2.49085 80.4161 2.67019 80.4161 2.89214C80.4161 3.1131 80.2298 3.29245 80.0002 3.29245C79.7707 3.29245 79.5833 3.1131 79.5833 2.89214C79.5833 2.67019 79.7707 2.49085 80.0002 2.49085ZM86.6726 12.7689C86.0519 12.2567 85.3941 11.5105 85.2263 9.87367C84.8856 6.56423 83.5237 4.45669 81.1449 3.73139C81.3312 3.49755 81.4455 3.20822 81.4455 2.89214C81.4455 2.12423 80.797 1.5 80.0002 1.5C79.2025 1.5 78.554 2.12423 78.554 2.89214C78.554 3.19633 78.659 3.47575 78.8319 3.70563C76.453 4.43192 75.1149 6.55928 74.7741 9.87367C74.6064 11.5105 73.9486 12.2567 73.3279 12.7689C72.4282 13.5101 72.351 14.5921 72.6742 15.3342C73.0108 16.1121 73.786 16.5956 74.5683 16.5351L75.4443 16.5242C75.9136 16.5183 76.8977 16.4995 76.8977 16.4995C76.8977 16.4995 77.3898 17.2446 77.6533 17.5161C78.1196 17.9947 78.7588 18.3256 79.5154 18.4594C79.6688 18.4861 79.8345 18.4911 79.9982 18.5C79.9992 18.5 80.0002 18.5 80.0013 18.5H80.0023C80.1649 18.4911 80.3307 18.4861 80.484 18.4594C81.2416 18.3256 81.8809 17.9947 82.3472 17.5161C82.6169 17.2396 83.1861 16.4529 83.1861 16.4529C83.1861 16.4529 84.095 16.5183 84.5552 16.5242L85.4322 16.5361C86.2145 16.5956 86.9896 16.1121 87.3262 15.3342C87.6484 14.5921 87.5722 13.5111 86.6726 12.7689Z" fill="#7A8185"/>
</svg>
