<svg width="254" height="60" viewBox="0 0 254 60" fill="none" xmlns="http://www.w3.org/2000/svg">
<path d="M4.728 11.144C3.56 11.144 2.58 10.76 1.788 9.992C1.004 9.216 0.612 8.22 0.612 7.004C0.612 5.788 1.004 4.796 1.788 4.028C2.58 3.252 3.56 2.864 4.728 2.864C6.008 2.864 7.02 3.392 7.764 4.448L6.924 4.916C6.692 4.572 6.38 4.292 5.988 4.076C5.596 3.86 5.176 3.752 4.728 3.752C3.848 3.752 3.112 4.06 2.52 4.676C1.936 5.284 1.644 6.06 1.644 7.004C1.644 7.948 1.936 8.728 2.52 9.344C3.112 9.952 3.848 10.256 4.728 10.256C5.176 10.256 5.596 10.152 5.988 9.944C6.38 9.728 6.692 9.444 6.924 9.092L7.776 9.56C7 10.616 5.984 11.144 4.728 11.144ZM14.1094 11H12.9574L10.8694 8.396L9.90938 9.344V11H9.00938V5.204H9.90938V8.288L12.9574 5.204H14.0974L11.5294 7.832L14.1094 11ZM19.6974 11H18.7974V10.34C18.3094 10.876 17.6694 11.144 16.8774 11.144C16.3414 11.144 15.8694 10.972 15.4614 10.628C15.0534 10.284 14.8494 9.816 14.8494 9.224C14.8494 8.616 15.0494 8.148 15.4494 7.82C15.8574 7.484 16.3334 7.316 16.8774 7.316C17.7014 7.316 18.3414 7.58 18.7974 8.108V7.064C18.7974 6.68 18.6614 6.38 18.3894 6.164C18.1174 5.948 17.7654 5.84 17.3334 5.84C16.6534 5.84 16.0614 6.108 15.5574 6.644L15.1374 6.02C15.7534 5.38 16.5254 5.06 17.4534 5.06C18.1174 5.06 18.6574 5.22 19.0734 5.54C19.4894 5.86 19.6974 6.352 19.6974 7.016V11ZM17.2014 10.496C17.9214 10.496 18.4534 10.256 18.7974 9.776V8.684C18.4534 8.204 17.9214 7.964 17.2014 7.964C16.7854 7.964 16.4414 8.084 16.1694 8.324C15.9054 8.556 15.7734 8.86 15.7734 9.236C15.7734 9.604 15.9054 9.908 16.1694 10.148C16.4414 10.38 16.7854 10.496 17.2014 10.496ZM21.3816 5.204H22.2816V6.836C22.2816 7.356 22.4016 7.716 22.6416 7.916C22.8816 8.116 23.2536 8.216 23.7576 8.216C24.3816 8.216 24.8936 8.112 25.2936 7.904V5.204H26.1936V11H25.2936V8.636C24.7816 8.892 24.1936 9.02 23.5296 9.02C22.7776 9.02 22.2296 8.868 21.8856 8.564C21.5496 8.26 21.3816 7.776 21.3816 7.112V5.204ZM32.5178 11H31.6178V10.34C31.1298 10.876 30.4898 11.144 29.6978 11.144C29.1618 11.144 28.6898 10.972 28.2818 10.628C27.8738 10.284 27.6698 9.816 27.6698 9.224C27.6698 8.616 27.8698 8.148 28.2698 7.82C28.6778 7.484 29.1538 7.316 29.6978 7.316C30.5218 7.316 31.1618 7.58 31.6178 8.108V7.064C31.6178 6.68 31.4818 6.38 31.2098 6.164C30.9378 5.948 30.5858 5.84 30.1538 5.84C29.4738 5.84 28.8818 6.108 28.3778 6.644L27.9578 6.02C28.5738 5.38 29.3458 5.06 30.2738 5.06C30.9378 5.06 31.4778 5.22 31.8938 5.54C32.3098 5.86 32.5178 6.352 32.5178 7.016V11ZM30.0218 10.496C30.7418 10.496 31.2738 10.256 31.6178 9.776V8.684C31.2738 8.204 30.7418 7.964 30.0218 7.964C29.6058 7.964 29.2618 8.084 28.9898 8.324C28.7258 8.556 28.5938 8.86 28.5938 9.236C28.5938 9.604 28.7258 9.908 28.9898 10.148C29.2618 10.38 29.6058 10.496 30.0218 10.496ZM36.2779 11H35.3779V5.996H33.6979V5.204H37.9699V5.996H36.2779V11ZM39.15 5.204H40.05V7.448H42.222C42.798 7.448 43.246 7.62 43.566 7.964C43.886 8.3 44.046 8.72 44.046 9.224C44.046 9.728 43.882 10.152 43.554 10.496C43.234 10.832 42.79 11 42.222 11H39.15V5.204ZM42.126 8.24H40.05V10.208H42.126C42.446 10.208 42.69 10.12 42.858 9.944C43.034 9.76 43.122 9.52 43.122 9.224C43.122 8.928 43.034 8.692 42.858 8.516C42.69 8.332 42.446 8.24 42.126 8.24ZM53.3373 11H52.4373V5.996H49.4133V11H48.5133V5.204H53.3373V11ZM57.9904 11.144C57.1744 11.144 56.5224 10.804 56.0344 10.124V13.208H55.1344V5.204H56.0344V6.068C56.2504 5.764 56.5304 5.52 56.8744 5.336C57.2184 5.152 57.5904 5.06 57.9904 5.06C58.7584 5.06 59.3784 5.336 59.8504 5.888C60.3304 6.432 60.5704 7.168 60.5704 8.096C60.5704 9.024 60.3304 9.764 59.8504 10.316C59.3784 10.868 58.7584 11.144 57.9904 11.144ZM57.7624 10.34C58.3304 10.34 58.7824 10.132 59.1184 9.716C59.4544 9.292 59.6224 8.752 59.6224 8.096C59.6224 7.44 59.4544 6.904 59.1184 6.488C58.7824 6.072 58.3304 5.864 57.7624 5.864C57.4184 5.864 57.0824 5.956 56.7544 6.14C56.4344 6.316 56.1944 6.532 56.0344 6.788V9.404C56.1944 9.668 56.4344 9.892 56.7544 10.076C57.0824 10.252 57.4184 10.34 57.7624 10.34ZM62.8656 11H62.0016V5.204H62.9016V9.632L65.9376 5.204H66.8256V11H65.9256V6.488L62.8656 11ZM67.9387 11.144V10.4C68.2107 10.4 68.4347 10.22 68.6107 9.86C68.7867 9.5 68.9307 8.9 69.0427 8.06L69.4147 5.204H73.4467V11H72.5467V5.996H70.2067L69.9427 8.168C69.8147 9.232 69.5907 9.996 69.2707 10.46C68.9507 10.916 68.5067 11.144 67.9387 11.144ZM79.8518 10.268C79.3318 10.852 78.6398 11.144 77.7758 11.144C76.9118 11.144 76.2158 10.852 75.6878 10.268C75.1678 9.684 74.9078 8.96 74.9078 8.096C74.9078 7.232 75.1678 6.512 75.6878 5.936C76.2158 5.352 76.9118 5.06 77.7758 5.06C78.6398 5.06 79.3318 5.352 79.8518 5.936C80.3798 6.512 80.6438 7.232 80.6438 8.096C80.6438 8.96 80.3798 9.684 79.8518 10.268ZM76.3598 9.692C76.7118 10.124 77.1838 10.34 77.7758 10.34C78.3678 10.34 78.8358 10.124 79.1798 9.692C79.5238 9.252 79.6958 8.72 79.6958 8.096C79.6958 7.472 79.5238 6.944 79.1798 6.512C78.8358 6.08 78.3678 5.864 77.7758 5.864C77.1838 5.864 76.7118 6.084 76.3598 6.524C76.0158 6.956 75.8438 7.48 75.8438 8.096C75.8438 8.72 76.0158 9.252 76.3598 9.692ZM82.0856 11H80.9336L83.5136 7.832L80.9456 5.204H82.0856L84.5816 7.76V5.204H85.4816V7.748L87.9776 5.204H89.1176L86.5376 7.832L89.1296 11H87.9776L85.8896 8.396L85.4816 8.804V11H84.5816V8.804L84.1736 8.396L82.0856 11ZM92.7777 11.144C91.9137 11.144 91.2057 10.864 90.6537 10.304C90.1017 9.736 89.8257 9 89.8257 8.096C89.8257 7.248 90.0977 6.532 90.6417 5.948C91.1857 5.356 91.8657 5.06 92.6817 5.06C93.5377 5.06 94.2137 5.356 94.7097 5.948C95.2137 6.532 95.4657 7.272 95.4657 8.168V8.396H90.7737C90.8137 8.964 91.0217 9.44 91.3977 9.824C91.7737 10.208 92.2617 10.4 92.8617 10.4C93.5817 10.4 94.1777 10.156 94.6497 9.668L95.0817 10.256C94.4897 10.848 93.7217 11.144 92.7777 11.144ZM94.5777 7.736C94.5697 7.24 94.4017 6.796 94.0737 6.404C93.7457 6.004 93.2777 5.804 92.6697 5.804C92.0937 5.804 91.6377 6 91.3017 6.392C90.9737 6.784 90.7977 7.232 90.7737 7.736H94.5777ZM97.8234 11H96.9234V5.204H97.8234V7.616H100.847V5.204H101.747V11H100.847V8.408H97.8234V11ZM104.409 11H103.545V5.204H104.445V9.632L107.481 5.204H108.369V11H107.469V6.488L104.409 11ZM112.782 11.144C111.918 11.144 111.21 10.864 110.658 10.304C110.106 9.736 109.83 9 109.83 8.096C109.83 7.248 110.102 6.532 110.646 5.948C111.19 5.356 111.87 5.06 112.686 5.06C113.542 5.06 114.218 5.356 114.714 5.948C115.218 6.532 115.47 7.272 115.47 8.168V8.396H110.778C110.818 8.964 111.026 9.44 111.402 9.824C111.778 10.208 112.266 10.4 112.866 10.4C113.586 10.4 114.182 10.156 114.654 9.668L115.086 10.256C114.494 10.848 113.726 11.144 112.782 11.144ZM114.582 7.736C114.574 7.24 114.406 6.796 114.078 6.404C113.75 6.004 113.282 5.804 112.674 5.804C112.098 5.804 111.642 6 111.306 6.392C110.978 6.784 110.802 7.232 110.778 7.736H114.582Z" fill="black"/>
<rect x="132.35" y="20.35" width="121.3" height="39.3" rx="5.65" fill="white" stroke="#A6A6A6" stroke-width="0.7"/>
<path d="M160.382 40.0604C160.392 39.1918 160.621 38.3397 161.05 37.5841C161.478 36.8285 162.092 36.1941 162.832 35.7404C162.362 35.0696 161.742 34.5172 161.022 34.1268C160.302 33.7363 159.501 33.5185 158.682 33.4904C156.932 33.3104 155.242 34.4904 154.352 34.4904C153.462 34.4904 152.072 33.4904 150.602 33.4904C149.648 33.521 148.718 33.7989 147.902 34.2966C147.087 34.7944 146.415 35.4952 145.952 36.3304C143.952 39.8104 145.432 44.9304 147.362 47.7404C148.362 49.1204 149.452 50.6604 150.932 50.6104C152.412 50.5604 152.932 49.6904 154.652 49.6904C156.372 49.6904 156.882 50.6104 158.382 50.5704C159.882 50.5304 160.912 49.1904 161.842 47.8004C162.537 46.8191 163.067 45.7316 163.412 44.5804C162.523 44.1921 161.765 43.5532 161.232 42.7417C160.7 41.9301 160.415 40.9811 160.412 40.0104L160.382 40.0604Z" fill="black"/>
<path d="M157.543 31.64C158.384 30.6213 158.799 29.3174 158.703 28C157.412 28.1359 156.219 28.7536 155.363 29.73C154.523 30.6955 154.095 31.9524 154.173 33.23C154.819 33.235 155.458 33.0936 156.042 32.8165C156.625 32.5394 157.139 32.1338 157.543 31.63V31.64Z" fill="black"/>
<path d="M173.197 44.7251H176.5L174.871 39.9246H174.818L173.189 44.7251H173.197ZM176.932 46.0903H172.766L171.762 49.0411H170L173.937 38.1013H175.769L179.724 49.0411H177.963L176.932 46.0903Z" fill="black"/>
<path d="M186.576 45.0599C186.576 43.4392 185.695 42.4175 184.471 42.4175C183.247 42.4175 182.375 43.5009 182.375 45.0599C182.375 46.619 183.256 47.7024 184.471 47.7024C185.687 47.7024 186.576 46.6542 186.576 45.0599ZM188.259 45.0599C188.259 47.535 186.929 49.1293 184.929 49.1293C184.422 49.1544 183.917 49.0365 183.473 48.7888C183.029 48.5412 182.664 48.1739 182.419 47.7288V51.6837H180.745V41.1138H182.331V42.4351C182.586 41.9922 182.957 41.6271 183.404 41.3789C183.851 41.1306 184.357 41.0086 184.868 41.0258C186.893 41.0258 188.223 42.6289 188.223 45.104L188.259 45.0599Z" fill="black"/>
<path d="M195.357 45.0596C195.357 43.4389 194.52 42.4171 193.243 42.4171C191.966 42.4171 191.155 43.5005 191.155 45.0596C191.155 46.6186 192.036 47.702 193.243 47.702C194.45 47.702 195.357 46.6539 195.357 45.0596ZM197.039 45.0596C197.039 47.5347 195.709 49.129 193.71 49.129C193.202 49.1551 192.697 49.0376 192.253 48.7899C191.809 48.5422 191.444 48.1743 191.199 47.7285V51.6833H189.526V41.1135H191.111V42.4347C191.368 41.9932 191.739 41.6291 192.186 41.3811C192.632 41.133 193.138 41.0102 193.648 41.0254C195.674 41.0254 197.013 42.6285 197.013 45.1036L197.039 45.0596Z" fill="black"/>
<path d="M202.836 45.9932C202.959 47.0766 204.016 47.7548 205.478 47.7548C206.941 47.7548 207.848 47.0414 207.848 46.0637C207.848 45.086 207.249 44.7072 205.831 44.3637L204.386 44.0554C202.378 43.571 201.453 42.6285 201.453 41.1047C201.453 39.2197 203.091 37.9249 205.426 37.9249C207.76 37.9249 209.328 39.2197 209.38 41.1047H207.724C207.628 40.0125 206.729 39.343 205.408 39.343C204.087 39.343 203.188 40.0125 203.188 40.9814C203.188 41.7565 203.761 42.2145 205.17 42.558L206.377 42.8575C208.623 43.386 209.557 44.2932 209.557 45.8875C209.557 47.931 207.927 49.217 205.329 49.217C202.906 49.217 201.268 47.9662 201.162 45.9844L202.836 45.9932Z" fill="black"/>
<path d="M213.09 39.1842V41.0692H214.605V42.364H213.09V46.768C213.09 47.4551 213.389 47.7722 214.059 47.7722C214.226 47.7722 214.49 47.7722 214.596 47.7722V49.0582C214.305 49.1092 214.011 49.1328 213.715 49.1286C212.103 49.1286 211.469 48.5297 211.469 46.9794V42.408H210.28V41.1132H211.443V39.2282L213.09 39.1842Z" fill="black"/>
<path d="M221.379 45.0595C221.379 43.2979 220.595 42.3202 219.265 42.3202C217.935 42.3202 217.151 43.3419 217.151 45.0595C217.151 46.7771 217.935 47.7901 219.265 47.7901C220.595 47.7901 221.379 46.7859 221.379 45.0595ZM215.486 45.0595C215.486 42.5492 216.957 40.9725 219.265 40.9725C221.572 40.9725 223.043 42.5492 223.043 45.0595C223.043 47.5699 221.581 49.1465 219.265 49.1465C216.948 49.1465 215.486 47.5787 215.486 45.0595Z" fill="black"/>
<path d="M224.397 41.0695H225.956V42.4259C226.063 42.0018 226.312 41.6271 226.661 41.3642C227.011 41.1013 227.44 40.9662 227.877 40.9814C228.066 40.9827 228.255 41.0034 228.44 41.043V42.5757C228.2 42.5045 227.951 42.4718 227.7 42.4788C227.463 42.4696 227.227 42.5119 227.008 42.6026C226.788 42.6933 226.591 42.8303 226.43 43.0043C226.268 43.1783 226.146 43.3852 226.072 43.6107C225.998 43.8362 225.974 44.075 226 44.3109V49.0409H224.397V41.1135V41.0695Z" fill="black"/>
<path d="M230.485 44.3196H234.475C234.49 44.0557 234.45 43.7917 234.357 43.5439C234.265 43.2962 234.123 43.0702 233.939 42.88C233.756 42.6899 233.535 42.5396 233.291 42.4387C233.046 42.3379 232.784 42.2885 232.52 42.2938C232.253 42.2926 231.988 42.3441 231.742 42.4454C231.495 42.5467 231.27 42.6958 231.081 42.884C230.892 43.0722 230.742 43.296 230.64 43.5423C230.538 43.7887 230.485 44.0529 230.485 44.3196ZM236.016 46.6978C235.796 48.1512 234.387 49.1465 232.59 49.1465C230.265 49.1465 228.829 47.5875 228.829 45.0948C228.829 42.602 230.273 40.9725 232.52 40.9725C234.766 40.9725 236.113 42.4875 236.113 44.901V45.4647H230.476V45.5616C230.451 45.8554 230.488 46.1513 230.586 46.4296C230.684 46.7079 230.839 46.9624 231.042 47.1762C231.245 47.3901 231.491 47.5585 231.764 47.6704C232.037 47.7823 232.33 47.8351 232.625 47.8253C233.014 47.8682 233.405 47.7807 233.739 47.5766C234.072 47.3725 234.328 47.0633 234.466 46.6978H236.016Z" fill="black"/>
<path d="M172.033 32.0934H172.738C172.862 32.1084 172.988 32.0968 173.107 32.0593C173.227 32.0218 173.337 31.9593 173.43 31.876C173.523 31.7926 173.598 31.6904 173.648 31.576C173.699 31.4616 173.725 31.3377 173.724 31.2126C173.724 30.7281 173.363 30.411 172.746 30.411C172.622 30.3938 172.495 30.4016 172.373 30.4342C172.252 30.4667 172.138 30.5232 172.039 30.6003C171.94 30.6775 171.857 30.7737 171.795 30.8834C171.734 30.9931 171.695 31.114 171.681 31.239H170.914C170.926 31.0131 170.984 30.792 171.085 30.5897C171.186 30.3873 171.328 30.2081 171.502 30.0633C171.675 29.9185 171.877 29.8113 172.095 29.7483C172.312 29.6854 172.54 29.6681 172.764 29.6976C173.803 29.6976 174.526 30.2789 174.526 31.1157C174.526 31.3949 174.431 31.6659 174.257 31.8838C174.082 32.1017 173.838 32.2533 173.565 32.3136V32.3752C173.726 32.382 173.884 32.4205 174.03 32.4884C174.176 32.5563 174.307 32.6523 174.416 32.7709C174.525 32.8895 174.609 33.0284 174.664 33.1797C174.719 33.331 174.744 33.4916 174.737 33.6524C174.716 33.8866 174.649 34.1143 174.539 34.322C174.428 34.5297 174.278 34.7133 174.095 34.8619C173.913 35.0105 173.703 35.1211 173.477 35.1872C173.252 35.2532 173.015 35.2735 172.782 35.2467C171.636 35.2467 170.853 34.6301 170.809 33.6877H171.592C171.592 34.1897 172.103 34.5156 172.782 34.5156C173.46 34.5156 173.909 34.1545 173.909 33.6348C173.909 33.1151 173.486 32.754 172.755 32.754H172.033V32.0405V32.0934Z" fill="black"/>
<path d="M178.19 33.6702V33.3355L177.221 33.3971C176.675 33.3971 176.42 33.6173 176.42 33.9696C176.42 34.322 176.737 34.5334 177.16 34.5334C177.286 34.5454 177.413 34.532 177.533 34.4939C177.654 34.4558 177.766 34.3938 177.862 34.3116C177.958 34.2294 178.037 34.1287 178.093 34.0155C178.149 33.9023 178.183 33.7788 178.19 33.6526V33.6702ZM175.636 34.0049C175.636 33.2914 176.173 32.8774 177.116 32.8246L178.19 32.7629V32.4194C178.19 31.9966 177.908 31.7588 177.371 31.7588C176.834 31.7588 176.631 31.9262 176.543 32.1992H175.786C175.874 31.521 176.508 31.0806 177.415 31.0806C178.322 31.0806 178.965 31.5826 178.965 32.4194V35.1235H178.208V34.5686H178.146C178.021 34.769 177.845 34.9326 177.636 35.0425C177.427 35.1524 177.193 35.2047 176.957 35.194C176.79 35.2112 176.622 35.1933 176.463 35.1415C176.304 35.0896 176.157 35.0049 176.032 34.8928C175.908 34.7808 175.808 34.6439 175.74 34.4909C175.672 34.338 175.636 34.1724 175.636 34.0049Z" fill="black"/>
<path d="M181.044 31.821V35.1329H180.26V31.1692H182.876V31.821H181.044Z" fill="black"/>
<path d="M186.812 33.1417C186.812 32.2608 186.416 31.8028 185.746 31.8028C185.077 31.8028 184.68 32.3137 184.68 33.1417C184.68 33.9696 185.094 34.4893 185.746 34.4893C186.398 34.4893 186.812 33.9872 186.812 33.1417ZM187.614 33.1417C187.614 34.4012 186.979 35.194 185.975 35.194C185.73 35.2114 185.484 35.1575 185.269 35.0387C185.053 34.92 184.876 34.7414 184.76 34.5245H184.689V36.4447H183.914V31.1598H184.663V31.8204H184.725C184.844 31.5965 185.023 31.4103 185.243 31.2827C185.462 31.1551 185.713 31.0912 185.966 31.0982C186.979 31.0982 187.614 31.8821 187.614 33.1417Z" fill="black"/>
<path d="M188.656 36.5507V35.8724H188.912C189.079 35.8861 189.246 35.8368 189.38 35.7343C189.513 35.6317 189.604 35.4832 189.634 35.3175L189.695 35.1237L188.26 31.1425H189.141L190.136 34.2958H190.198L191.193 31.1425H192.021L190.541 35.2735C190.206 36.2424 189.828 36.5507 189.017 36.5507H188.691H188.656Z" fill="black"/>
<path d="M192.592 34.0051H193.376C193.447 34.3487 193.782 34.5336 194.257 34.5336C194.733 34.5336 195.138 34.3046 195.138 33.9435C195.138 33.5823 194.856 33.3798 194.257 33.3798H193.658V32.772H194.196C194.662 32.772 194.909 32.5958 194.909 32.2611C194.909 31.9264 194.706 31.7238 194.196 31.7238C193.685 31.7238 193.429 31.9088 193.385 32.2171H192.628C192.69 31.8612 192.889 31.5436 193.182 31.3316C193.474 31.1195 193.838 31.0296 194.196 31.0808C195.138 31.0808 195.675 31.5124 195.675 32.1818C195.679 32.3679 195.618 32.5495 195.505 32.6967C195.391 32.844 195.231 32.9482 195.05 32.9922V33.0539C195.265 33.0798 195.463 33.184 195.605 33.3464C195.748 33.5089 195.827 33.7183 195.825 33.9347C195.825 34.6922 195.182 35.1942 194.204 35.1942C193.227 35.1942 192.628 34.7979 192.557 33.9963L192.592 34.0051Z" fill="black"/>
<path d="M196.989 35.1329V31.1692H197.764V33.8909H197.826L199.649 31.1692H200.433V35.1329H199.649V32.3847H199.596L197.764 35.1329H196.989Z" fill="black"/>
<path d="M204.702 31.821H203.452V35.1329H202.668V31.821H201.417V31.1692H204.702V31.821Z" fill="black"/>
<path d="M206.164 32.7812H208.163C208.177 32.6457 208.162 32.5089 208.119 32.3797C208.076 32.2506 208.006 32.1321 207.913 32.0321C207.821 31.9321 207.708 31.853 207.583 31.7999C207.457 31.7468 207.322 31.721 207.186 31.7242C207.05 31.723 206.916 31.7489 206.791 31.8004C206.666 31.8519 206.553 31.9279 206.457 32.0239C206.362 32.12 206.287 32.2341 206.237 32.3597C206.186 32.4852 206.162 32.6195 206.164 32.7548V32.7812ZM208.912 34.0584C208.815 34.4292 208.589 34.753 208.274 34.9711C207.959 35.1893 207.576 35.2873 207.195 35.2475C206.932 35.2615 206.669 35.2163 206.426 35.1154C206.183 35.0145 205.965 34.8603 205.789 34.6643C205.614 34.4683 205.484 34.2353 205.41 33.9826C205.336 33.7299 205.32 33.4638 205.362 33.204C205.329 32.9438 205.351 32.6794 205.427 32.4284C205.504 32.1775 205.633 31.9458 205.807 31.7489C205.98 31.5521 206.194 31.3946 206.433 31.287C206.673 31.1795 206.932 31.1243 207.195 31.1253C208.296 31.1253 208.956 31.8828 208.956 33.1247V33.3978H206.164C206.152 33.5434 206.17 33.69 206.218 33.8281C206.265 33.9662 206.341 34.0928 206.441 34.1998C206.541 34.3068 206.661 34.3918 206.796 34.4494C206.93 34.5069 207.075 34.5358 207.221 34.534C207.407 34.5555 207.596 34.5219 207.763 34.4374C207.931 34.3528 208.07 34.2211 208.163 34.0584H208.912Z" fill="black"/>
<path d="M213.01 33.3626V34.5252H213.943C214.401 34.5252 214.648 34.3227 214.648 33.9439C214.648 33.5652 214.366 33.3626 213.846 33.3626H213.01ZM213.01 31.7595V32.79H213.785C214.26 32.79 214.489 32.6051 214.489 32.2704C214.489 31.9356 214.287 31.7595 213.873 31.7595H213.01ZM212.234 31.1605H213.996C214.771 31.1605 215.229 31.5569 215.229 32.1735C215.235 32.3747 215.172 32.5718 215.05 32.7321C214.928 32.8923 214.755 33.0061 214.56 33.0543V33.1159C214.793 33.1159 215.018 33.2087 215.183 33.3739C215.348 33.5391 215.441 33.7631 215.441 33.9968C215.441 34.6838 214.921 35.133 214.049 35.133H212.287V31.1693L212.234 31.1605Z" fill="black"/>
<rect x="0.35" y="20.35" width="121.3" height="39.3" rx="5.65" fill="white" stroke="#A6A6A6" stroke-width="0.7"/>
<path d="M37.1875 30.8632C37.2285 31.5715 37.054 32.2757 36.687 32.8829H39.3214V28.9049H37.1875V30.8632ZM35.9757 34.648H35.3259V32.8917H35.844C36.0962 32.6244 36.2867 32.305 36.4021 31.956C36.5174 31.607 36.5547 31.237 36.5114 30.872V28.2375H40.0239V32.8566H40.6123V34.6129H39.9625V33.4976H35.9669V34.6129L35.9757 34.648Z" fill="#010100"/>
<path d="M37.1893 30.8634H37.1015V30.9424C37.1347 31.6061 36.9663 32.2643 36.6185 32.8304L36.5307 32.971H39.4461V28.8173H37.1015V30.8634H37.2771V28.993H39.2705V32.7953H36.6888V32.8831L36.7678 32.9358C37.1327 32.3371 37.3101 31.6428 37.2771 30.9424V30.8634H37.1893ZM35.9775 34.6482V34.5604H35.433V32.971H35.8984C36.1566 32.7047 36.3534 32.3851 36.4747 32.0346C36.5961 31.6842 36.6392 31.3114 36.6009 30.9424V30.881V28.3695H39.9467V32.9885H40.535V34.578H40.0608V33.4627H35.8896V34.6658H35.9775H36.0653V33.6383H39.8237V34.7536H40.6492V32.8129H40.0608V28.1938H36.3638V30.881V30.9424C36.4005 31.2848 36.3621 31.6311 36.2514 31.9571C36.1407 32.2832 35.9603 32.5812 35.7228 32.8304L35.7843 32.9007V32.8129H35.1783V34.7536H36.0038V34.6658L35.9775 34.6482Z" fill="#010100"/>
<path d="M42.5103 32.4087C42.6955 32.6002 42.9182 32.7513 43.1645 32.8525C43.4109 32.9538 43.6755 33.003 43.9417 32.9971C44.208 33.003 44.4726 32.9538 44.7189 32.8525C44.9652 32.7513 45.1879 32.6002 45.3731 32.4087C45.5668 32.2088 45.7186 31.9723 45.8197 31.7129C45.9207 31.4535 45.9689 31.1766 45.9614 30.8983C45.9701 30.6186 45.9225 30.34 45.8214 30.079C45.7203 29.8181 45.5679 29.5801 45.3731 29.3791C45.1879 29.1877 44.9652 29.0366 44.7189 28.9354C44.4726 28.8341 44.208 28.7849 43.9417 28.7908C43.6755 28.7849 43.4109 28.8341 43.1645 28.9354C42.9182 29.0366 42.6955 29.1877 42.5103 29.3791C42.3156 29.5801 42.1631 29.8181 42.062 30.079C41.961 30.34 41.9133 30.6186 41.922 30.8983C41.9145 31.1766 41.9627 31.4535 42.0638 31.7129C42.1648 31.9723 42.3166 32.2088 42.5103 32.4087ZM45.8736 32.8478C45.6255 33.1088 45.3253 33.3148 44.9925 33.4524C44.6597 33.5901 44.3017 33.6563 43.9417 33.6469C43.5817 33.6563 43.2237 33.5901 42.8909 33.4524C42.5581 33.3148 42.258 33.1088 42.0098 32.8478C41.7565 32.5916 41.5575 32.2868 41.4247 31.9518C41.2919 31.6169 41.2281 31.2585 41.237 30.8983C41.2284 30.5368 41.2923 30.1773 41.4251 29.8409C41.5578 29.5046 41.7566 29.1982 42.0098 28.9401C42.2602 28.6821 42.5608 28.4781 42.8931 28.3407C43.2253 28.2032 43.5822 28.1353 43.9417 28.141C44.3019 28.1364 44.6591 28.2057 44.9914 28.3447C45.3237 28.4837 45.6239 28.6893 45.8736 28.9488C46.127 29.2051 46.326 29.5098 46.4587 29.8448C46.5915 30.1798 46.6553 30.5381 46.6464 30.8983C46.6553 31.2585 46.5915 31.6169 46.4587 31.9518C46.326 32.2868 46.127 32.5916 45.8736 32.8478Z" fill="#010100"/>
<path d="M42.5089 32.4085L42.4562 32.5051C42.6491 32.7052 42.8813 32.8631 43.1383 32.9689C43.3952 33.0747 43.6713 33.1261 43.9491 33.1198C44.2269 33.1261 44.503 33.0747 44.7599 32.9689C45.0168 32.8631 45.2491 32.7052 45.4419 32.5051C45.6442 32.2975 45.8029 32.0514 45.9084 31.7814C46.014 31.5115 46.0644 31.223 46.0566 30.9333C46.0646 30.6421 46.0143 30.3523 45.9088 30.0809C45.8032 29.8095 45.6445 29.5619 45.4419 29.3526C45.2481 29.1538 45.0157 28.9968 44.759 28.8911C44.5023 28.7854 44.2267 28.7332 43.9491 28.7379C43.6715 28.7332 43.3959 28.7854 43.1392 28.8911C42.8825 28.9968 42.6501 29.1538 42.4562 29.3526C42.2537 29.5619 42.095 29.8095 41.9894 30.0809C41.8838 30.3523 41.8336 30.6421 41.8415 30.9333C41.8338 31.223 41.8841 31.5115 41.9897 31.7814C42.0953 32.0514 42.2539 32.2975 42.4562 32.5051L42.5177 32.4437L42.5792 32.3822C42.3949 32.1895 42.2503 31.9623 42.1539 31.7137C42.0575 31.4651 42.011 31.1999 42.0172 30.9333C42.0053 30.3923 42.2072 29.8685 42.5792 29.4755C42.7563 29.2923 42.9695 29.1477 43.2052 29.051C43.441 28.9543 43.6943 28.9075 43.9491 28.9135C44.2039 28.9075 44.4571 28.9543 44.6929 29.051C44.9287 29.1477 45.1419 29.2923 45.319 29.4755C45.5052 29.6687 45.6508 29.8972 45.7473 30.1476C45.8439 30.3979 45.8893 30.6651 45.881 30.9333C45.8891 31.2001 45.8436 31.4659 45.747 31.7148C45.6505 31.9636 45.5049 32.1906 45.319 32.3822C45.1419 32.5654 44.9287 32.71 44.6929 32.8067C44.4571 32.9035 44.2039 32.9503 43.9491 32.9442C43.6943 32.9503 43.441 32.9035 43.2052 32.8067C42.9695 32.71 42.7563 32.5654 42.5792 32.3822L42.5177 32.4437L42.5089 32.4085ZM45.8722 32.8476L45.8107 32.7861C45.5703 33.0385 45.2796 33.2377 44.9574 33.3708C44.6353 33.5039 44.2888 33.568 43.9403 33.5589C43.5919 33.5674 43.2456 33.5031 42.9235 33.37C42.6014 33.2369 42.3106 33.0381 42.0699 32.7861C41.8267 32.5364 41.6356 32.241 41.5075 31.9169C41.3793 31.5928 41.3168 31.2466 41.3234 30.8981C41.3156 30.5482 41.3776 30.2003 41.5058 29.8746C41.6339 29.5489 41.8257 29.2521 42.0699 29.0013C42.3106 28.7494 42.6014 28.5505 42.9235 28.4175C43.2456 28.2844 43.5919 28.2201 43.9403 28.2286C44.2893 28.2217 44.6358 28.2877 44.9579 28.4222C45.2799 28.5568 45.5704 28.757 45.8107 29.0101C46.0539 29.2598 46.245 29.5552 46.3731 29.8793C46.5013 30.2034 46.5638 30.5497 46.5572 30.8981C46.5638 31.2466 46.5013 31.5928 46.3731 31.9169C46.245 32.241 46.0539 32.5364 45.8107 32.7861L45.8722 32.8476L45.9337 32.9091C46.1969 32.646 46.4035 32.3319 46.5409 31.9861C46.6783 31.6403 46.7436 31.2701 46.7328 30.8981C46.7436 30.5262 46.6783 30.1559 46.5409 29.8101C46.4035 29.4643 46.1969 29.1503 45.9337 28.8872C45.6833 28.6071 45.3758 28.3839 45.032 28.2324C44.6882 28.081 44.316 28.0048 43.9403 28.009C43.5691 28.002 43.2004 28.0716 42.8574 28.2137C42.5144 28.3557 42.2044 28.5671 41.9469 28.8345C41.6856 29.1007 41.4802 29.4166 41.3429 29.7635C41.2057 30.1104 41.1393 30.4813 41.1478 30.8542C41.139 31.2259 41.2053 31.5956 41.3426 31.9411C41.4799 32.2866 41.6854 32.6009 41.9469 32.8652C42.2021 33.1357 42.5117 33.3491 42.8552 33.4913C43.1988 33.6336 43.5686 33.7015 43.9403 33.6906C44.312 33.7015 44.6818 33.6336 45.0254 33.4913C45.3689 33.3491 45.6785 33.1357 45.9337 32.8652L45.8722 32.8037V32.8476Z" fill="#010100"/>
<path d="M50.0626 33.6468C49.6994 33.6573 49.3378 33.5925 49.0008 33.4565C48.6638 33.3204 48.3586 33.1162 48.1044 32.8565C47.8463 32.6015 47.6436 32.2959 47.5091 31.959C47.3747 31.622 47.3112 31.2609 47.3228 30.8982C47.3131 30.5345 47.3774 30.1726 47.5118 29.8345C47.6461 29.4964 47.8477 29.1891 48.1044 28.9312C48.3586 28.6715 48.6638 28.4672 49.0008 28.3312C49.3378 28.1952 49.6994 28.1304 50.0626 28.1409C50.4299 28.133 50.7942 28.2079 51.1286 28.3599C51.463 28.5119 51.759 28.7372 51.9945 29.019L51.5203 29.4756C51.3478 29.2567 51.1256 29.082 50.8721 28.9659C50.6186 28.8499 50.3411 28.7958 50.0626 28.8083C49.7931 28.8018 49.5251 28.8497 49.2746 28.9493C49.0242 29.0489 48.7964 29.1981 48.6049 29.3878C48.4065 29.588 48.2517 29.8271 48.1505 30.0901C48.0492 30.3531 48.0036 30.6343 48.0166 30.9158C48.0067 31.193 48.0539 31.4693 48.1551 31.7276C48.2563 31.9859 48.4094 32.2207 48.6049 32.4174C48.7964 32.6072 49.0242 32.7563 49.2746 32.8559C49.5251 32.9555 49.7931 33.0035 50.0626 32.997C50.3719 32.9983 50.6775 32.9303 50.9571 32.7981C51.2367 32.6659 51.4832 32.4728 51.6784 32.233L52.1526 32.7072C51.9138 32.9973 51.614 33.2312 51.2745 33.3922C50.9056 33.5621 50.5039 33.6491 50.0978 33.6468H50.0626Z" fill="#010100"/>
<path d="M50.0609 33.6473V33.5595C49.7105 33.5695 49.3618 33.5067 49.0369 33.3752C48.712 33.2437 48.4178 33.0464 48.1729 32.7955C47.9223 32.5487 47.7251 32.2529 47.5936 31.9266C47.4622 31.6003 47.3993 31.2504 47.4089 30.8987C47.3992 30.5457 47.4619 30.1945 47.5933 29.8667C47.7248 29.539 47.922 29.2417 48.1729 28.9932C48.4178 28.7423 48.712 28.5449 49.0369 28.4135C49.3618 28.282 49.7105 28.2192 50.0609 28.2292C50.4142 28.2177 50.7655 28.2869 51.088 28.4314C51.4106 28.576 51.696 28.7921 51.9226 29.0634L51.9928 29.0019L51.9314 28.9405L51.4572 29.3971L51.5186 29.4586L51.5889 29.4059C51.4067 29.1776 51.1736 28.9952 50.9083 28.8732C50.643 28.7512 50.3528 28.6931 50.0609 28.7034C49.78 28.697 49.5006 28.7474 49.2396 28.8515C48.9786 28.9557 48.7412 29.1113 48.5417 29.3093C48.3338 29.5165 48.1717 29.765 48.0658 30.0388C47.9599 30.3126 47.9126 30.6055 47.927 30.8987C47.9133 31.1905 47.961 31.482 48.0668 31.7542C48.1727 32.0265 48.3345 32.2735 48.5417 32.4794C48.7412 32.6773 48.9786 32.833 49.2396 32.9371C49.5006 33.0412 49.78 33.0916 50.0609 33.0853C50.3817 33.087 50.6988 33.0168 50.989 32.8801C51.2792 32.7433 51.5352 32.5434 51.7382 32.295L51.6767 32.2335L51.6152 32.295L52.0806 32.7692L52.1509 32.7077L52.0806 32.6462C51.8398 32.9298 51.5402 33.1575 51.2025 33.3136C50.8452 33.48 50.455 33.564 50.0609 33.5595V33.7351C50.4822 33.7376 50.8988 33.6477 51.2815 33.4717C51.6403 33.3059 51.9582 33.0631 52.2124 32.7604L52.265 32.6989L51.7382 32.172L51.6679 32.1106L51.6064 32.1808C51.4202 32.4107 51.1845 32.5956 50.917 32.7218C50.6494 32.848 50.3568 32.9122 50.0609 32.9097C49.8028 32.9169 49.546 32.8715 49.306 32.7764C49.066 32.6813 48.8478 32.5384 48.6647 32.3565C48.4751 32.1657 48.3272 31.9376 48.2305 31.6866C48.1337 31.4357 48.0902 31.1674 48.1026 30.8987C48.09 30.6287 48.1335 30.3591 48.2302 30.1067C48.3269 29.8543 48.4748 29.6247 48.6647 29.4322C48.8478 29.2502 49.066 29.1074 49.306 29.0123C49.546 28.9172 49.8028 28.8718 50.0609 28.879C50.3265 28.8676 50.591 28.9198 50.8324 29.0313C51.0737 29.1428 51.2849 29.3104 51.4484 29.52L51.5098 29.5903L52.0543 29.0634L52.1158 28.9932L52.0631 28.9317C51.8159 28.6454 51.5078 28.4179 51.1614 28.266C50.815 28.114 50.439 28.0414 50.0609 28.0535C49.6864 28.0448 49.314 28.1128 48.9667 28.2532C48.6194 28.3937 48.3044 28.6036 48.0412 28.8702C47.7759 29.1358 47.5675 29.4526 47.4286 29.8014C47.2897 30.1501 47.2233 30.5235 47.2333 30.8987C47.2239 31.2726 47.2908 31.6444 47.4296 31.9916C47.5685 32.3388 47.7766 32.6542 48.0412 32.9185C48.3044 33.1851 48.6194 33.395 48.9667 33.5355C49.314 33.6759 49.6864 33.7438 50.0609 33.7351V33.6473Z" fill="#010100"/>
<path d="M54.8839 33.5245H54.2078V28.9054H52.7413V28.2556H56.3592V28.9054H54.8839V33.5245Z" fill="#010100"/>
<path d="M54.8825 33.5239V33.4361H54.2942V28.8171H52.8277V28.3429H56.27V28.8171H54.7947V33.5239H54.8825V33.4361V33.5239H54.9703V28.9927H56.4456V28.2551V28.1672H52.652V28.9049V28.9927H54.1185V33.6117H54.8825H54.9703V33.5239H54.8825Z" fill="#010100"/>
<path d="M61.0047 28.2642L59.0114 32.7076C58.9306 32.9732 58.7685 33.2067 58.5479 33.3753C58.3274 33.5439 58.0594 33.639 57.7819 33.6472C57.6033 33.6447 57.427 33.6058 57.2638 33.533L57.4395 32.9008C57.5448 32.9663 57.6668 32.9998 57.7907 32.9974C57.9197 33.0059 58.0483 32.9753 58.1595 32.9095C58.2609 32.816 58.3417 32.7024 58.3967 32.5759L58.5898 32.1543L56.8336 28.2642H57.6239L58.9235 31.285L60.1968 28.2642H61.0047Z" fill="#010100"/>
<path d="M61.0037 28.2636H60.9247L58.9313 32.707C58.8559 32.9555 58.7042 33.174 58.4978 33.3316C58.2913 33.4892 58.0406 33.5779 57.7809 33.5851C57.6136 33.5821 57.4489 33.5432 57.298 33.471V33.5588H57.377L57.5526 32.9353H57.4736V33.0143C57.5936 33.0839 57.73 33.1203 57.8688 33.1197C58.0141 33.13 58.1589 33.093 58.2815 33.0143C58.4008 32.9153 58.4942 32.7887 58.5537 32.6455L58.7469 32.224L56.9906 28.4216H57.5965L58.8962 31.4424H59.0367L60.31 28.4216H61.0476V28.3338H60.9686H61.0476V28.246H60.1695L58.8786 31.3195H58.9577V31.2317V31.3195H59.0455L57.7195 28.246H56.7272L58.5449 32.224L58.3693 32.6104C58.3208 32.7236 58.249 32.8253 58.1585 32.9089C58.062 32.9619 57.9523 32.9863 57.8424 32.9792C57.735 32.979 57.6293 32.9519 57.5351 32.9002L57.3858 32.7684L57.175 33.5061V33.5763H57.2453C57.4199 33.6529 57.6079 33.6947 57.7985 33.6993C58.0931 33.692 58.378 33.5923 58.6128 33.4142C58.8476 33.2361 59.0205 32.9887 59.1069 32.707L61.1618 28.1406H61.0213V28.2284L61.0037 28.2636Z" fill="#010100"/>
<path d="M61.7766 33.5245V28.2556H65.5877V33.5245H64.9115V28.9054H62.4527V33.5245H61.7766Z" fill="#010100"/>
<path d="M61.7751 33.5239H61.8629V28.3429H65.4985V33.4361H64.9979V28.8171H62.3635V33.4361H61.7751V33.5239H61.8629H61.7751V33.6117H62.4513H62.5391V28.9927H64.8223V33.6117H65.5863H65.6741V28.1672H61.6873V33.6117H61.7751V33.5239Z" fill="#010100"/>
<path d="M66.7916 33.5245V28.2556H67.4677V30.5212H70.1022V28.2556H70.7783V33.5245H70.1022V31.1535H67.4677V33.5245H66.7916Z" fill="#010100"/>
<path d="M66.7902 33.5239H66.878V28.3429H67.3786V30.6085H70.1886V28.3429H70.6892V33.4361H70.1886V31.0651H67.3786V33.4361H66.7902V33.5239H66.878H66.7902V33.6117H67.4664H67.5542V31.2407H70.013V33.6117H70.777H70.8648V28.1672H70.1008H70.013V30.4328H67.5542V28.1672H66.7902H66.7024V33.6117H66.7902V33.5239Z" fill="#010100"/>
<path d="M72.9298 32.409C73.1152 32.6 73.338 32.7508 73.5843 32.852C73.8305 32.9532 74.095 33.0027 74.3612 32.9974C74.6334 33.0093 74.905 32.963 75.1579 32.8615C75.4108 32.7601 75.6392 32.6058 75.8277 32.409C76.023 32.2103 76.1759 31.9739 76.2771 31.7143C76.3782 31.4546 76.4255 31.1771 76.416 30.8986C76.4267 30.6186 76.38 30.3395 76.2788 30.0782C76.1776 29.8169 76.0241 29.5791 75.8277 29.3794C75.6432 29.1871 75.4205 29.0355 75.1741 28.9341C74.9276 28.8328 74.6627 28.7841 74.3963 28.791C74.1301 28.7857 73.8657 28.8352 73.6194 28.9364C73.3732 29.0376 73.1504 29.1884 72.9649 29.3794C72.759 29.5752 72.5952 29.8108 72.4835 30.0721C72.3717 30.3333 72.3144 30.6145 72.3151 30.8986C72.306 31.1763 72.3526 31.453 72.4521 31.7124C72.5516 31.9718 72.7021 32.2087 72.8947 32.409H72.9298ZM76.2931 32.8481C76.0449 33.1091 75.7447 33.315 75.4119 33.4527C75.0791 33.5903 74.7212 33.6566 74.3612 33.6472C74.0012 33.6561 73.6434 33.5896 73.3107 33.4519C72.978 33.3143 72.6777 33.1086 72.4292 32.8481C72.1759 32.5918 71.9769 32.2871 71.8441 31.9521C71.7113 31.6171 71.6475 31.2588 71.6565 30.8986C71.6478 30.5371 71.7118 30.1775 71.8445 29.8412C71.9772 29.5048 72.1761 29.1985 72.4292 28.9403C72.6797 28.6823 72.9803 28.4784 73.3125 28.3409C73.6448 28.2035 74.0016 28.1355 74.3612 28.1412C74.7217 28.1335 75.08 28.2014 75.4127 28.3405C75.7454 28.4797 76.0453 28.687 76.2931 28.9491C76.5476 29.2049 76.7479 29.5094 76.8822 29.8443C77.0165 30.1793 77.0819 30.5378 77.0746 30.8986C77.0819 31.2594 77.0165 31.6179 76.8822 31.9529C76.7479 32.2878 76.5476 32.5923 76.2931 32.8481Z" fill="#010100"/>
<path d="M72.9281 32.4088L72.8666 32.4702C73.0598 32.6699 73.2921 32.8275 73.5489 32.9332C73.8058 33.039 74.0817 33.0907 74.3594 33.0849C74.6303 33.0921 74.8999 33.0445 75.1519 32.9449C75.4039 32.8453 75.6332 32.6958 75.8259 32.5054C76.0299 32.2989 76.1896 32.0531 76.2953 31.7828C76.401 31.5125 76.4504 31.2235 76.4406 30.9335C76.4506 30.6421 76.4013 30.3518 76.2956 30.08C76.1899 29.8083 76.0301 29.5609 75.8259 29.3528C75.6321 29.1541 75.3997 28.997 75.143 28.8913C74.8863 28.7856 74.6107 28.7335 74.3331 28.7381C74.0556 28.7345 73.7803 28.7871 73.5238 28.8927C73.2672 28.9984 73.0347 29.1549 72.8402 29.3528C72.6389 29.5625 72.4815 29.8104 72.3774 30.0819C72.2734 30.3534 72.2247 30.6429 72.2343 30.9335C72.2283 31.2246 72.2813 31.5139 72.3899 31.784C72.4986 32.0541 72.6607 32.2995 72.8666 32.5054L72.9281 32.4439L72.9895 32.3824C72.8048 32.1904 72.6606 31.9632 72.5655 31.7142C72.4705 31.4653 72.4265 31.1998 72.4363 30.9335C72.4268 30.6659 72.4709 30.3992 72.5659 30.1488C72.6609 29.8985 72.8049 29.6697 72.9895 29.4758C73.1666 29.2925 73.3798 29.148 73.6156 29.0512C73.8514 28.9545 74.1047 28.9077 74.3594 28.9138C74.6143 28.9072 74.8677 28.9537 75.1036 29.0505C75.3394 29.1472 75.5526 29.2921 75.7293 29.4758C75.9172 29.6678 76.0639 29.8961 76.1605 30.1467C76.2572 30.3974 76.3017 30.6651 76.2913 30.9335C76.3015 31.2006 76.2569 31.4669 76.1602 31.7161C76.0636 31.9653 75.9169 32.1921 75.7293 32.3824C75.5526 32.5661 75.3394 32.711 75.1036 32.8077C74.8677 32.9045 74.6143 32.951 74.3594 32.9444C74.1047 32.9505 73.8514 32.9037 73.6156 32.807C73.3798 32.7102 73.1666 32.5657 72.9895 32.3824L72.9281 32.4439V32.4088ZM76.2913 32.8478L76.2299 32.7864C75.9901 33.0396 75.6995 33.2394 75.3772 33.3726C75.0549 33.5057 74.708 33.5693 74.3594 33.5591C74.0122 33.5686 73.6669 33.5047 73.3461 33.3715C73.0253 33.2384 72.7362 33.039 72.4978 32.7864C72.2502 32.5395 72.0556 32.2448 71.9257 31.9201C71.7959 31.5955 71.7336 31.2479 71.7426 30.8984C71.7317 30.546 71.7931 30.1952 71.9229 29.8674C72.0528 29.5397 72.2485 29.242 72.4978 28.9928C72.7362 28.7402 73.0253 28.5408 73.3461 28.4077C73.6669 28.2745 74.0122 28.2106 74.3594 28.22C74.7084 28.2132 75.055 28.2791 75.377 28.4137C75.6991 28.5483 75.9895 28.7485 76.2299 29.0016C76.4746 29.2505 76.6673 29.5457 76.797 29.8698C76.9266 30.1939 76.9906 30.5405 76.9851 30.8896C76.9906 31.2386 76.9266 31.5853 76.797 31.9094C76.6673 32.2335 76.4746 32.5286 76.2299 32.7776L76.2913 32.8391L76.3616 32.9005C76.6215 32.6351 76.826 32.3206 76.9632 31.9753C77.1004 31.6301 77.1675 31.261 77.1607 30.8896C77.1683 30.5173 77.1007 30.1473 76.9619 29.8017C76.8231 29.4562 76.6159 29.1422 76.3528 28.8786C76.1024 28.5986 75.7949 28.3754 75.4511 28.2239C75.1073 28.0724 74.7351 27.9963 74.3594 28.0005C73.9882 27.9934 73.6196 28.0631 73.2766 28.2051C72.9335 28.3472 72.6236 28.5585 72.366 28.8259C72.1067 29.0936 71.9026 29.4097 71.7655 29.7563C71.6284 30.1028 71.5609 30.473 71.5669 30.8457C71.5601 31.2171 71.6273 31.5862 71.7645 31.9314C71.9017 32.2767 72.1062 32.5912 72.366 32.8566C72.6212 33.1271 72.9308 33.3405 73.2744 33.4828C73.6179 33.6251 73.9877 33.693 74.3594 33.6821C74.7322 33.6909 75.1027 33.6221 75.4474 33.48C75.7921 33.3379 76.1034 33.1256 76.3616 32.8566L76.2913 32.7952V32.8478Z" fill="#010100"/>
<path d="M80.5164 32.8826H81.8775C81.9966 32.8878 82.1153 32.866 82.2248 32.8189C82.3343 32.7718 82.4317 32.7005 82.5098 32.6103C82.6646 32.4498 82.7525 32.2363 82.7556 32.0132C82.7479 31.792 82.657 31.5819 82.501 31.4248C82.4173 31.3371 82.3164 31.2676 82.2046 31.2207C82.0927 31.1739 81.9724 31.1507 81.8512 31.1526H80.5164V32.9089V32.8826ZM80.5164 30.5204H81.7458C81.8604 30.524 81.9746 30.5032 82.0806 30.4592C82.1866 30.4153 82.282 30.3494 82.3605 30.2657C82.433 30.193 82.4905 30.1067 82.5297 30.0118C82.5689 29.9169 82.589 29.8152 82.5888 29.7125C82.5887 29.5068 82.5102 29.309 82.3693 29.1592C82.2942 29.076 82.2018 29.0101 82.0987 28.9662C81.9956 28.9222 81.8842 28.9012 81.7721 28.9046H80.5164V30.5204ZM79.8402 33.5324V28.2635H81.7458C82.1416 28.2552 82.5254 28.3999 82.8171 28.6675C82.9634 28.7952 83.08 28.9533 83.1589 29.1308C83.2378 29.3082 83.277 29.5007 83.2738 29.6949C83.2782 29.9303 83.2075 30.1611 83.0718 30.3535C82.9472 30.5487 82.7666 30.7017 82.5537 30.7926C82.8079 30.8779 83.031 31.0368 83.1947 31.2492C83.3629 31.4647 83.4528 31.7311 83.4494 32.0044C83.4539 32.2069 83.4137 32.4078 83.3317 32.593C83.2498 32.7781 83.128 32.943 82.9752 33.0758C82.668 33.3555 82.2666 33.5092 81.8512 33.506L79.8402 33.5324Z" fill="#010100"/>
<path d="M80.5139 32.8829V32.9707H81.875C82.0066 32.9734 82.1372 32.9482 82.2583 32.8967C82.3794 32.8453 82.4882 32.7687 82.5775 32.6721C82.7421 32.4917 82.8357 32.2577 82.841 32.0135C82.8362 31.7702 82.7388 31.5378 82.5688 31.3637C82.4774 31.2648 82.3658 31.1869 82.2415 31.1354C82.1172 31.0838 81.9832 31.0599 81.8487 31.0651H80.4261V32.9707H80.5139V32.8829H80.6017V31.2407H81.8487C81.958 31.2358 82.0671 31.2544 82.1686 31.2953C82.2701 31.3362 82.3617 31.3985 82.437 31.4778C82.5086 31.5476 82.5657 31.6308 82.6049 31.7228C82.6441 31.8147 82.6646 31.9136 82.6654 32.0135C82.6634 32.2136 82.5849 32.4053 82.4458 32.5492C82.3751 32.6302 82.2871 32.6943 82.1883 32.7369C82.0895 32.7794 81.9825 32.7993 81.875 32.7951H80.5139V32.8829ZM80.5139 30.5207V30.6085H81.7433C81.8696 30.613 81.9954 30.5903 82.1121 30.5418C82.2288 30.4933 82.3336 30.4202 82.4195 30.3275C82.5817 30.1639 82.6732 29.9431 82.6741 29.7128C82.6755 29.4836 82.5873 29.263 82.4283 29.0981C82.3444 29.0076 82.2424 28.9358 82.1289 28.8874C82.0154 28.839 81.893 28.815 81.7696 28.8171H80.4261V30.5734H80.5139V30.4855H80.6017V28.9927H81.7696C81.8688 28.9903 81.9672 29.0096 82.0582 29.049C82.1491 29.0884 82.2305 29.1471 82.2965 29.221C82.3613 29.2854 82.4125 29.362 82.4472 29.4465C82.4819 29.5309 82.4993 29.6215 82.4985 29.7128C82.4973 29.8966 82.4249 30.0729 82.2965 30.2045C82.2264 30.2805 82.1406 30.3403 82.0451 30.3797C81.9496 30.4191 81.8466 30.4373 81.7433 30.4328H80.5139V30.5207ZM79.8377 33.5327H79.9255V28.3516H81.7433C82.1178 28.3415 82.481 28.4805 82.7532 28.738C82.8906 28.8563 83.0004 29.0034 83.0747 29.1688C83.1491 29.3342 83.1862 29.5139 83.1835 29.6952C83.1886 29.9145 83.124 30.1297 82.999 30.3099C82.8765 30.4848 82.7098 30.6241 82.5161 30.7139H82.4634V30.8544H82.5248C82.7628 30.9295 82.9715 31.0768 83.122 31.2759C83.2801 31.4754 83.3639 31.7238 83.3591 31.9784C83.3626 32.1692 83.3243 32.3584 83.247 32.5329C83.1696 32.7073 83.055 32.8628 82.9112 32.9882C82.6198 33.2507 82.2409 33.3948 81.8487 33.3922H79.8377V33.48V33.5678H81.8487C82.2849 33.5719 82.7061 33.4084 83.0254 33.1112C83.188 32.9711 83.3179 32.7971 83.4059 32.6014C83.4939 32.4056 83.5379 32.193 83.5347 31.9784C83.5374 31.6861 83.4415 31.4015 83.2625 31.1705C83.0902 30.9419 82.8507 30.773 82.5775 30.6875V30.7665H82.6654H82.5775V30.8456C82.803 30.7434 82.9971 30.5827 83.1396 30.3802C83.2814 30.1704 83.355 29.922 83.3503 29.6689C83.3473 29.4663 83.3011 29.2668 83.2148 29.0835C83.1285 28.9003 83.004 28.7376 82.8498 28.6063C82.5413 28.3229 82.1358 28.1689 81.717 28.176H79.7236V33.6205H79.8114V33.5327H79.8377Z" fill="#010100"/>
<path d="M92.8697 48.461H94.5118V37.4841H92.8697V48.461ZM107.631 41.4358L105.752 46.1953H105.682L103.732 41.4358H101.976L104.9 48.0833L103.241 51.8242H104.944L109.449 41.4709L107.631 41.4358ZM98.3405 47.214C97.8049 47.214 97.0496 46.9418 97.0496 46.2832C97.0496 45.405 97.9893 45.1064 98.8059 45.1064C99.3304 45.0937 99.8487 45.221 100.308 45.4753C100.25 45.9544 100.021 46.3964 99.6625 46.7194C99.304 47.0424 98.8406 47.2243 98.3581 47.2315L98.3405 47.214ZM98.5337 41.1987C97.9359 41.163 97.3406 41.3027 96.8211 41.6006C96.3016 41.8986 95.8805 42.3419 95.6095 42.876L97.0672 43.4819C97.2101 43.2162 97.4275 42.9982 97.6928 42.8546C97.9581 42.7111 98.2595 42.6483 98.5601 42.674C98.7685 42.6496 98.9797 42.667 99.1814 42.7252C99.3831 42.7834 99.5711 42.8811 99.7346 43.0127C99.8981 43.1443 100.034 43.3071 100.134 43.4917C100.233 43.6763 100.296 43.8789 100.316 44.0878V44.202C99.7752 43.9174 99.1715 43.7725 98.5601 43.7804C96.997 43.7804 95.3987 44.6586 95.3987 46.248C95.4131 46.5873 95.4956 46.9203 95.6413 47.227C95.7871 47.5338 95.9932 47.808 96.2472 48.0334C96.5013 48.2587 96.7981 48.4306 97.1201 48.5388C97.442 48.6469 97.7824 48.6892 98.121 48.6629C98.5335 48.6885 98.9452 48.6025 99.313 48.414C99.6807 48.2255 99.9909 47.9414 100.211 47.5916H100.272V48.4697H101.853V44.2546C101.853 42.3052 100.395 41.225 98.5162 41.225L98.5337 41.1987ZM88.4087 42.7706H86.0816V39.0121H88.4087C88.6585 39.0086 88.9066 39.0546 89.1386 39.1472C89.3707 39.2399 89.5821 39.3775 89.7608 39.5521C89.9395 39.7267 90.0819 39.9349 90.1799 40.1648C90.2779 40.3946 90.3296 40.6415 90.3318 40.8913C90.3249 41.3952 90.1187 41.8758 89.7583 42.228C89.3978 42.5802 88.9126 42.7753 88.4087 42.7706ZM88.4087 37.5017H84.4834V48.4785H86.1255V44.3161H88.4087C89.3374 44.3397 90.2377 43.9945 90.9124 43.3559C91.5872 42.7174 91.9815 41.8375 92.0091 40.9089C91.9815 39.9803 91.5872 39.1004 90.9124 38.4619C90.2377 37.8233 89.3374 37.4781 88.4087 37.5017ZM66.9557 47.214C66.6704 47.2062 66.3896 47.1414 66.1297 47.0236C65.8698 46.9057 65.636 46.7372 65.4422 46.5277C65.2483 46.3183 65.0982 46.0723 65.0007 45.8041C64.9032 45.5359 64.8603 45.251 64.8745 44.9659C64.8591 44.6789 64.901 44.3917 64.9976 44.1209C65.0942 43.8502 65.2437 43.6014 65.4374 43.3889C65.631 43.1765 65.865 43.0047 66.1256 42.8834C66.3863 42.7622 66.6684 42.694 66.9557 42.6828C67.2381 42.6971 67.5148 42.7681 67.7692 42.8916C68.0237 43.015 68.2507 43.1885 68.4367 43.4015C68.6227 43.6146 68.7639 43.8629 68.8519 44.1316C68.9399 44.4004 68.973 44.6841 68.949 44.9659C68.9705 45.2454 68.9355 45.5264 68.8462 45.7921C68.7568 46.0578 68.6149 46.3028 68.429 46.5126C68.243 46.7223 68.0167 46.8925 67.7636 47.013C67.5105 47.1335 67.2357 47.2019 66.9557 47.214ZM68.7998 42.0505C68.5483 41.7818 68.2434 41.5687 67.9046 41.425C67.5658 41.2813 67.2007 41.2102 66.8327 41.2163C65.8645 41.2506 64.9479 41.6618 64.2786 42.3623C63.6093 43.0628 63.2401 43.9971 63.2499 44.9659C63.2449 45.93 63.6166 46.8579 64.2859 47.5518C64.9552 48.2457 65.8691 48.6507 66.8327 48.6805C67.2046 48.685 67.573 48.6088 67.9126 48.4572C68.2521 48.3056 68.5548 48.0822 68.7998 47.8023V48.338C68.7998 49.7694 68.0358 50.5334 66.8064 50.5334C66.3959 50.5231 65.9978 50.3906 65.663 50.1528C65.3283 49.915 65.072 49.5828 64.9271 49.1986L63.4958 49.7957C63.7652 50.4511 64.2243 51.0111 64.8142 51.4038C65.404 51.7965 66.0978 52.0041 66.8064 51.9999C68.7295 51.9999 70.319 50.8671 70.319 48.1097V41.4095H68.7998V42.0154V42.0505ZM71.4869 48.461H73.1905V37.4841H71.522V48.461H71.4869ZM75.5878 44.7991C75.5749 44.5268 75.6165 44.2546 75.7102 43.9986C75.8039 43.7425 75.9478 43.5078 76.1335 43.3082C76.3192 43.1086 76.543 42.9481 76.7916 42.8362C77.0402 42.7242 77.3086 42.6631 77.5812 42.6564C77.8645 42.6378 78.147 42.7027 78.3936 42.8432C78.6403 42.9837 78.8402 43.1936 78.9687 43.4467L75.5878 44.7991ZM80.681 43.5521C80.4506 42.88 80.0217 42.2936 79.451 41.8703C78.8803 41.447 78.1947 41.2067 77.4846 41.1811C77.0043 41.1802 76.5288 41.2778 76.0877 41.4679C75.6466 41.658 75.2491 41.9365 74.9199 42.2863C74.5907 42.6361 74.3367 43.0497 74.1737 43.5015C74.0106 43.9534 73.942 44.4338 73.972 44.9132C73.9601 45.4044 74.0476 45.8929 74.2293 46.3493C74.411 46.8057 74.6831 47.2208 75.0292 47.5694C75.3754 47.918 75.7885 48.193 76.2436 48.3779C76.6988 48.5628 77.1866 48.6538 77.6778 48.6454C78.2921 48.6487 78.8976 48.4996 79.4401 48.2115C79.9826 47.9234 80.4452 47.5052 80.7864 46.9945L79.5131 46.1163C79.3237 46.4337 79.0548 46.6962 78.733 46.878C78.4111 47.0597 78.0474 47.1543 77.6778 47.1525C77.2976 47.1776 76.9184 47.0892 76.5885 46.8984C76.2587 46.7077 75.9929 46.4232 75.8249 46.0812L80.8216 44.0175L80.6547 43.5873L80.681 43.5521ZM40.8923 42.3227V43.9209H44.6859C44.6264 44.6654 44.317 45.3679 43.8078 45.9143C43.4292 46.3023 42.9731 46.606 42.4693 46.8057C41.9654 47.0055 41.4251 47.0967 40.8836 47.0735C40.3325 47.0735 39.7869 46.9641 39.2784 46.7517C38.7699 46.5392 38.3087 46.2279 37.9215 45.8358C37.5343 45.4437 37.2288 44.9786 37.0228 44.4675C36.8167 43.9564 36.7142 43.4094 36.7212 42.8584C36.7142 42.3074 36.8167 41.7604 37.0228 41.2493C37.2288 40.7382 37.5343 40.2731 37.9215 39.881C38.3087 39.4889 38.7699 39.1776 39.2784 38.9651C39.7869 38.7526 40.3325 38.6433 40.8836 38.6433C41.9474 38.6276 42.974 39.0351 43.7375 39.7761L44.8616 38.6521C44.3379 38.1348 43.7164 37.7271 43.0334 37.4527C42.3504 37.1783 41.6195 37.0427 40.8836 37.0539C39.3367 37.0537 37.8521 37.6627 36.7509 38.7491C35.6498 39.8354 35.0208 41.3117 35 42.8584C35.0208 44.4043 35.6501 45.8796 36.7515 46.9646C37.8529 48.0495 39.3375 48.6566 40.8836 48.6541C41.6352 48.6881 42.3854 48.5607 43.0837 48.2805C43.782 48.0002 44.4122 47.5737 44.9318 47.0296C45.8518 46.0188 46.343 44.69 46.3017 43.3238C46.3066 42.9909 46.2772 42.6584 46.2139 42.3315L40.8923 42.3227ZM50.6222 47.1789C50.3339 47.1722 50.0498 47.1078 49.7868 46.9896C49.5237 46.8714 49.287 46.7017 49.0906 46.4906C48.8942 46.2794 48.742 46.031 48.6431 45.7601C48.5442 45.4893 48.5005 45.2013 48.5146 44.9132C48.4993 44.6249 48.5421 44.3364 48.6405 44.065C48.739 43.7936 48.8911 43.5448 49.0878 43.3333C49.2844 43.1219 49.5216 42.9523 49.7852 42.8345C50.0489 42.7167 50.3335 42.6531 50.6222 42.6476C50.9109 42.6531 51.1955 42.7167 51.4591 42.8345C51.7227 42.9523 51.9599 43.1219 52.1566 43.3333C52.3533 43.5448 52.5053 43.7936 52.6038 44.065C52.7023 44.3364 52.7451 44.6249 52.7297 44.9132C52.7439 45.2013 52.7002 45.4893 52.6013 45.7601C52.5024 46.031 52.3502 46.2794 52.1538 46.4906C51.9574 46.7017 51.7206 46.8714 51.4576 46.9896C51.1945 47.1078 50.9105 47.1722 50.6222 47.1789ZM50.6222 41.1811C50.1234 41.1679 49.6272 41.2562 49.1637 41.4407C48.7002 41.6253 48.279 41.9021 47.9258 42.2545C47.5726 42.6069 47.2948 43.0274 47.1092 43.4905C46.9236 43.9536 46.8341 44.4496 46.8462 44.9484C46.8402 45.4416 46.9333 45.931 47.1198 46.3877C47.3064 46.8443 47.5827 47.2589 47.9323 47.6069C48.2819 47.9548 48.6978 48.2292 49.1553 48.4136C49.6128 48.598 50.1026 48.6887 50.5958 48.6805C51.089 48.6887 51.5789 48.598 52.0364 48.4136C52.4939 48.2292 52.9098 47.9548 53.2594 47.6069C53.609 47.2589 53.8853 46.8443 54.0718 46.3877C54.2584 45.931 54.3515 45.4416 54.3455 44.9484C54.3527 44.4548 54.2604 43.9648 54.0743 43.5076C53.8882 43.0505 53.612 42.6354 53.2621 42.2872C52.9122 41.9389 52.4959 41.6647 52.0378 41.4807C51.5798 41.2967 51.0894 41.2068 50.5958 41.2163L50.6222 41.1811ZM58.7977 47.1789C58.5094 47.1722 58.2253 47.1078 57.9623 46.9896C57.6992 46.8714 57.4625 46.7017 57.2661 46.4906C57.0697 46.2794 56.9175 46.031 56.8186 45.7601C56.7197 45.4893 56.676 45.2013 56.6902 44.9132C56.6748 44.6249 56.7176 44.3364 56.8161 44.065C56.9145 43.7936 57.0666 43.5448 57.2633 43.3333C57.46 43.1219 57.6972 42.9523 57.9608 42.8345C58.2244 42.7167 58.509 42.6531 58.7977 42.6476C59.0888 42.6541 59.3755 42.7195 59.6406 42.84C59.9056 42.9605 60.1435 43.1335 60.3397 43.3486C60.5359 43.5637 60.6864 43.8164 60.7821 44.0914C60.8778 44.3664 60.9167 44.6579 60.8965 44.9484C60.9106 45.2364 60.8669 45.5244 60.768 45.7953C60.6691 46.0662 60.5169 46.3145 60.3205 46.5257C60.1241 46.7368 59.8874 46.9065 59.6243 47.0247C59.3613 47.143 59.0772 47.2073 58.7889 47.214L58.7977 47.1789ZM58.7977 41.1811C58.3042 41.1717 57.8138 41.2616 57.3557 41.4456C56.8976 41.6295 56.4813 41.9038 56.1314 42.252C55.7816 42.6003 55.5053 43.0153 55.3192 43.4725C55.1331 43.9297 55.0409 44.4197 55.048 44.9132C55.0421 45.4065 55.1351 45.8959 55.3217 46.3525C55.5083 46.8092 55.7845 47.2238 56.1341 47.5717C56.4838 47.9197 56.8996 48.194 57.3571 48.3784C57.8146 48.5629 58.3045 48.6536 58.7977 48.6454C59.2909 48.6536 59.7808 48.5629 60.2383 48.3784C60.6958 48.194 61.1116 47.9197 61.4613 47.5717C61.8109 47.2238 62.0871 46.8092 62.2737 46.3525C62.4603 45.8959 62.5533 45.4065 62.5474 44.9132C62.5545 44.4197 62.4623 43.9297 62.2762 43.4725C62.0901 43.0153 61.8138 42.6003 61.464 42.252C61.1141 41.9038 60.6978 41.6295 60.2397 41.4456C59.7816 41.2616 59.2912 41.1717 58.7977 41.1811Z" fill="#010100"/>
<path d="M10.4 29.0608C10.16 29.3008 10 29.7008 10 30.1808V47.8608C10 48.3408 10.16 48.7408 10.4 48.9808L10.48 49.0608L20.4 39.1408V39.0608V38.9808L10.4 29.0608Z" fill="url(#paint0_linear_2_4361)"/>
<path d="M23.68 42.5009L20.4 39.2209V39.0609V38.9809L23.68 35.7009L23.76 35.7809L27.68 38.0209C28.8 38.6609 28.8 39.7009 27.68 40.3409L23.68 42.5009Z" fill="url(#paint1_linear_2_4361)"/>
<path d="M23.76 42.4208L20.4 39.0608L10.4 49.0608C10.8 49.4608 11.36 49.4608 12.08 49.1408L23.76 42.4208Z" fill="url(#paint2_linear_2_4361)"/>
<path d="M23.76 35.7008L12.08 29.0608C11.36 28.6608 10.8 28.7408 10.4 29.1408L20.4 39.0608L23.76 35.7008Z" fill="url(#paint3_linear_2_4361)"/>
<path opacity="0.2" d="M23.68 42.3408L12.08 48.9008C11.44 49.3008 10.88 49.2208 10.48 48.9008L10.4 48.9808L10.48 49.0608C10.88 49.3808 11.44 49.4608 12.08 49.0608L23.68 42.3408Z" fill="black"/>
<path opacity="0.12" d="M10.4001 48.9008C10.1601 48.6608 10.0801 48.2608 10.0801 47.7808V47.8608C10.0801 48.3408 10.2401 48.7408 10.4801 48.9808V48.9008H10.4001Z" fill="black"/>
<path opacity="0.12" d="M27.6801 40.1008L23.6801 42.3408L23.7601 42.4208L27.6801 40.1808C28.2401 39.8608 28.4801 39.4608 28.4801 39.0608C28.4801 39.4608 28.1601 39.7808 27.6801 40.1008Z" fill="black"/>
<path opacity="0.25" d="M12.0801 29.1408L27.6801 38.0208C28.1601 38.3408 28.4801 38.6608 28.4801 39.0608C28.4801 38.6608 28.2401 38.2608 27.6801 37.9408L12.0801 29.0608C10.9601 28.4208 10.0801 28.9808 10.0801 30.2608V30.3408C10.0801 29.0608 10.9601 28.5008 12.0801 29.1408Z" fill="white"/>
<defs>
<linearGradient id="paint0_linear_2_4361" x1="19.5198" y1="30.0286" x2="6.09384" y2="43.4545" gradientUnits="userSpaceOnUse">
<stop stop-color="#00A0FF"/>
<stop offset="0.00657445" stop-color="#00A1FF"/>
<stop offset="0.2601" stop-color="#00BEFF"/>
<stop offset="0.5122" stop-color="#00D2FF"/>
<stop offset="0.7604" stop-color="#00DFFF"/>
<stop offset="1" stop-color="#00E3FF"/>
</linearGradient>
<linearGradient id="paint1_linear_2_4361" x1="29.1475" y1="39.062" x2="9.79003" y2="39.062" gradientUnits="userSpaceOnUse">
<stop stop-color="#FFE000"/>
<stop offset="0.4087" stop-color="#FFBD00"/>
<stop offset="0.7754" stop-color="#FFA500"/>
<stop offset="1" stop-color="#FF9C00"/>
</linearGradient>
<linearGradient id="paint2_linear_2_4361" x1="21.9416" y1="40.8977" x2="3.73498" y2="59.1043" gradientUnits="userSpaceOnUse">
<stop stop-color="#FF3A44"/>
<stop offset="1" stop-color="#C31162"/>
</linearGradient>
<linearGradient id="paint3_linear_2_4361" x1="7.91786" y1="23.2018" x2="16.0479" y2="31.3318" gradientUnits="userSpaceOnUse">
<stop stop-color="#32A071"/>
<stop offset="0.0685" stop-color="#2DA771"/>
<stop offset="0.4762" stop-color="#15CF74"/>
<stop offset="0.8009" stop-color="#06E775"/>
<stop offset="1" stop-color="#00F076"/>
</linearGradient>
</defs>
</svg>
