<svg width="161" height="30" viewBox="0 0 161 30" fill="none" xmlns="http://www.w3.org/2000/svg">
<path d="M38.144 11H32.648V10.208C33.48 9.552 34.124 9.032 34.58 8.648C35.044 8.256 35.488 7.844 35.912 7.412C36.344 6.972 36.648 6.584 36.824 6.248C37 5.904 37.088 5.564 37.088 5.228C37.088 4.748 36.924 4.384 36.596 4.136C36.268 3.888 35.876 3.764 35.42 3.764C34.5 3.764 33.776 4.1 33.248 4.772L32.636 4.136C32.94 3.736 33.336 3.428 33.824 3.212C34.32 2.988 34.852 2.876 35.42 2.876C36.148 2.876 36.776 3.08 37.304 3.488C37.84 3.896 38.108 4.476 38.108 5.228C38.108 5.972 37.788 6.716 37.148 7.46C36.508 8.196 35.532 9.08 34.22 10.112H38.144V11ZM44.0804 11H43.0844V2.996H44.0804V11ZM46.9515 11H45.9555V2.996H49.1715C49.9475 2.996 50.5595 3.228 51.0075 3.692C51.4555 4.156 51.6795 4.728 51.6795 5.408C51.6795 6.088 51.4515 6.66 50.9955 7.124C50.5475 7.588 49.9395 7.82 49.1715 7.82H46.9515V11ZM49.0515 6.932C49.5235 6.932 49.9075 6.792 50.2035 6.512C50.4995 6.224 50.6475 5.856 50.6475 5.408C50.6475 4.96 50.4995 4.596 50.2035 4.316C49.9075 4.028 49.5235 3.884 49.0515 3.884H46.9515V6.932H49.0515ZM54.8923 8.492H52.0123V7.7H54.8923V8.492ZM60.674 11H59.774V10.34C59.286 10.876 58.646 11.144 57.854 11.144C57.318 11.144 56.846 10.972 56.438 10.628C56.03 10.284 55.826 9.816 55.826 9.224C55.826 8.616 56.026 8.148 56.426 7.82C56.834 7.484 57.31 7.316 57.854 7.316C58.678 7.316 59.318 7.58 59.774 8.108V7.064C59.774 6.68 59.638 6.38 59.366 6.164C59.094 5.948 58.742 5.84 58.31 5.84C57.63 5.84 57.038 6.108 56.534 6.644L56.114 6.02C56.73 5.38 57.502 5.06 58.43 5.06C59.094 5.06 59.634 5.22 60.05 5.54C60.466 5.86 60.674 6.352 60.674 7.016V11ZM58.178 10.496C58.898 10.496 59.43 10.256 59.774 9.776V8.684C59.43 8.204 58.898 7.964 58.178 7.964C57.762 7.964 57.418 8.084 57.146 8.324C56.882 8.556 56.75 8.86 56.75 9.236C56.75 9.604 56.882 9.908 57.146 10.148C57.418 10.38 57.762 10.496 58.178 10.496ZM61.7941 12.476V10.256C62.0901 10.2 62.3221 10.024 62.4901 9.728C62.6581 9.424 62.7941 8.868 62.8981 8.06L63.2701 5.204H67.3021V10.208H67.9741V12.476H67.0741V11H62.6941V12.476H61.7941ZM64.0621 5.996L63.7981 8.168C63.6621 9.184 63.3821 9.864 62.9581 10.208H66.4021V5.996H64.0621ZM72.0607 11.144C71.2447 11.144 70.5927 10.804 70.1047 10.124V13.208H69.2047V5.204H70.1047V6.068C70.3207 5.764 70.6007 5.52 70.9447 5.336C71.2887 5.152 71.6607 5.06 72.0607 5.06C72.8287 5.06 73.4487 5.336 73.9207 5.888C74.4007 6.432 74.6407 7.168 74.6407 8.096C74.6407 9.024 74.4007 9.764 73.9207 10.316C73.4487 10.868 72.8287 11.144 72.0607 11.144ZM71.8327 10.34C72.4007 10.34 72.8527 10.132 73.1887 9.716C73.5247 9.292 73.6927 8.752 73.6927 8.096C73.6927 7.44 73.5247 6.904 73.1887 6.488C72.8527 6.072 72.4007 5.864 71.8327 5.864C71.4887 5.864 71.1527 5.956 70.8247 6.14C70.5047 6.316 70.2647 6.532 70.1047 6.788V9.404C70.2647 9.668 70.5047 9.892 70.8247 10.076C71.1527 10.252 71.4887 10.34 71.8327 10.34ZM78.6879 11.144C77.8239 11.144 77.1159 10.864 76.5639 10.304C76.0119 9.736 75.7359 9 75.7359 8.096C75.7359 7.248 76.0079 6.532 76.5519 5.948C77.0959 5.356 77.7759 5.06 78.5919 5.06C79.4479 5.06 80.1239 5.356 80.6199 5.948C81.1239 6.532 81.3759 7.272 81.3759 8.168V8.396H76.6839C76.7239 8.964 76.9319 9.44 77.3079 9.824C77.6839 10.208 78.1719 10.4 78.7719 10.4C79.4919 10.4 80.0879 10.156 80.5599 9.668L80.9919 10.256C80.3999 10.848 79.6319 11.144 78.6879 11.144ZM80.4879 7.736C80.4799 7.24 80.3119 6.796 79.9839 6.404C79.6559 6.004 79.1879 5.804 78.5799 5.804C78.0039 5.804 77.5479 6 77.2119 6.392C76.8839 6.784 76.7079 7.232 76.6839 7.736H80.4879ZM85.3896 11.144C84.5336 11.144 83.8376 10.856 83.3016 10.28C82.7656 9.696 82.4976 8.968 82.4976 8.096C82.4976 7.224 82.7656 6.5 83.3016 5.924C83.8376 5.348 84.5336 5.06 85.3896 5.06C86.2856 5.06 86.9936 5.396 87.5136 6.068L86.9136 6.62C86.5456 6.116 86.0536 5.864 85.4376 5.864C84.8296 5.864 84.3416 6.072 83.9736 6.488C83.6136 6.904 83.4336 7.44 83.4336 8.096C83.4336 8.752 83.6136 9.292 83.9736 9.716C84.3416 10.132 84.8296 10.34 85.4376 10.34C86.0456 10.34 86.5376 10.088 86.9136 9.584L87.5136 10.136C86.9936 10.808 86.2856 11.144 85.3896 11.144ZM93.299 11H92.399V10.34C91.911 10.876 91.271 11.144 90.479 11.144C89.943 11.144 89.471 10.972 89.063 10.628C88.655 10.284 88.451 9.816 88.451 9.224C88.451 8.616 88.651 8.148 89.051 7.82C89.459 7.484 89.935 7.316 90.479 7.316C91.303 7.316 91.943 7.58 92.399 8.108V7.064C92.399 6.68 92.263 6.38 91.991 6.164C91.719 5.948 91.367 5.84 90.935 5.84C90.255 5.84 89.663 6.108 89.159 6.644L88.739 6.02C89.355 5.38 90.127 5.06 91.055 5.06C91.719 5.06 92.259 5.22 92.675 5.54C93.091 5.86 93.299 6.352 93.299 7.016V11ZM90.803 10.496C91.523 10.496 92.055 10.256 92.399 9.776V8.684C92.055 8.204 91.523 7.964 90.803 7.964C90.387 7.964 90.043 8.084 89.771 8.324C89.507 8.556 89.375 8.86 89.375 9.236C89.375 9.604 89.507 9.908 89.771 10.148C90.043 10.38 90.387 10.496 90.803 10.496ZM100.057 12.968L99.5169 13.388C98.3889 11.844 97.8249 10.076 97.8249 8.084C97.8249 6.1 98.3889 4.332 99.5169 2.78L100.057 3.188C99.6329 4.028 99.3169 4.82 99.1089 5.564C98.9089 6.308 98.8089 7.148 98.8089 8.084C98.8089 9.02 98.9089 9.864 99.1089 10.616C99.3169 11.36 99.6329 12.144 100.057 12.968ZM102.073 11H101.173V2.996H102.073V11ZM104.901 11H103.905V2.996H107.121C107.897 2.996 108.509 3.228 108.957 3.692C109.405 4.156 109.629 4.728 109.629 5.408C109.629 6.088 109.401 6.66 108.945 7.124C108.497 7.588 107.889 7.82 107.121 7.82H104.901V11ZM107.001 6.932C107.473 6.932 107.857 6.792 108.153 6.512C108.449 6.224 108.597 5.856 108.597 5.408C108.597 4.96 108.449 4.596 108.153 4.316C107.857 4.028 107.473 3.884 107.001 3.884H104.901V6.932H107.001ZM113.444 11H112.46L110.048 5.204H111.02L112.952 9.956L114.872 5.204H115.856L113.444 11ZM121.079 11H120.083V8.972H116.279V8.144L119.711 2.996H121.079V8.096H122.207V8.972H121.079V11ZM120.083 8.096V3.92L117.275 8.096H120.083ZM131.32 7.268H129.016V9.824H128.332V7.268H126.028V6.644H128.332V4.16H129.016V6.644H131.32V7.268ZM136.562 11H135.662V2.996H136.562V11ZM139.389 11H138.393V2.996H141.609C142.385 2.996 142.997 3.228 143.445 3.692C143.893 4.156 144.117 4.728 144.117 5.408C144.117 6.088 143.889 6.66 143.433 7.124C142.985 7.588 142.377 7.82 141.609 7.82H139.389V11ZM141.489 6.932C141.961 6.932 142.345 6.792 142.641 6.512C142.937 6.224 143.085 5.856 143.085 5.408C143.085 4.96 142.937 4.596 142.641 4.316C142.345 4.028 141.961 3.884 141.489 3.884H139.389V6.932H141.489ZM147.932 11H146.948L144.536 5.204H145.508L147.44 9.956L149.36 5.204H150.344L147.932 11ZM154.079 11.144C153.543 11.144 153.071 11.032 152.663 10.808C152.255 10.584 151.931 10.28 151.691 9.896C151.459 9.504 151.283 9.068 151.163 8.588C151.051 8.1 150.995 7.576 150.995 7.016C150.995 6.264 151.107 5.584 151.331 4.976C151.555 4.368 151.915 3.868 152.411 3.476C152.915 3.076 153.527 2.876 154.247 2.876C155.167 2.876 155.907 3.196 156.467 3.836L155.963 4.58C155.499 4.036 154.927 3.764 154.247 3.764C153.751 3.764 153.327 3.92 152.975 4.232C152.631 4.544 152.379 4.932 152.219 5.396C152.067 5.852 151.991 6.356 151.991 6.908C151.991 7.044 151.995 7.148 152.003 7.22C152.203 6.9 152.511 6.612 152.927 6.356C153.351 6.1 153.799 5.972 154.271 5.972C155.031 5.972 155.655 6.196 156.143 6.644C156.639 7.084 156.887 7.712 156.887 8.528C156.887 9.256 156.631 9.876 156.119 10.388C155.607 10.892 154.927 11.144 154.079 11.144ZM154.043 10.256C154.619 10.256 155.067 10.084 155.387 9.74C155.715 9.388 155.879 8.996 155.879 8.564C155.879 8.004 155.707 7.576 155.363 7.28C155.019 6.984 154.575 6.836 154.031 6.836C153.639 6.836 153.263 6.948 152.903 7.172C152.543 7.388 152.251 7.676 152.027 8.036C152.083 8.628 152.275 9.148 152.603 9.596C152.931 10.036 153.411 10.256 154.043 10.256ZM158.217 13.388L157.677 12.968C158.101 12.144 158.417 11.36 158.625 10.616C158.833 9.864 158.937 9.02 158.937 8.084C158.937 7.14 158.833 6.296 158.625 5.552C158.417 4.808 158.101 4.02 157.677 3.188L158.217 2.78C159.353 4.324 159.921 6.092 159.921 8.084C159.921 10.084 159.353 11.852 158.217 13.388ZM35.192 26.144C34.552 26.144 33.984 26.02 33.488 25.772C32.992 25.524 32.612 25.208 32.348 24.824L32.936 24.2C33.176 24.52 33.492 24.776 33.884 24.968C34.276 25.16 34.704 25.256 35.168 25.256C35.752 25.256 36.208 25.124 36.536 24.86C36.872 24.588 37.04 24.22 37.04 23.756C37.04 23.276 36.86 22.92 36.5 22.688C36.148 22.456 35.664 22.34 35.048 22.34C34.576 22.34 34.3 22.344 34.22 22.352V21.44C34.308 21.448 34.584 21.452 35.048 21.452C35.592 21.452 36.036 21.344 36.38 21.128C36.732 20.904 36.908 20.572 36.908 20.132C36.908 19.708 36.736 19.376 36.392 19.136C36.056 18.888 35.632 18.764 35.12 18.764C34.312 18.764 33.608 19.088 33.008 19.736L32.456 19.112C33.136 18.288 34.048 17.876 35.192 17.876C35.984 17.876 36.632 18.068 37.136 18.452C37.648 18.828 37.904 19.348 37.904 20.012C37.904 20.54 37.728 20.964 37.376 21.284C37.024 21.596 36.624 21.792 36.176 21.872C36.616 21.912 37.032 22.104 37.424 22.448C37.824 22.792 38.024 23.256 38.024 23.84C38.024 24.52 37.768 25.076 37.256 25.508C36.744 25.932 36.056 26.144 35.192 26.144ZM45.5294 26.144C44.7134 26.144 44.0614 25.804 43.5734 25.124V28.208H42.6734V20.204H43.5734V21.068C43.7894 20.764 44.0694 20.52 44.4134 20.336C44.7574 20.152 45.1294 20.06 45.5294 20.06C46.2974 20.06 46.9174 20.336 47.3894 20.888C47.8694 21.432 48.1094 22.168 48.1094 23.096C48.1094 24.024 47.8694 24.764 47.3894 25.316C46.9174 25.868 46.2974 26.144 45.5294 26.144ZM45.3014 25.34C45.8694 25.34 46.3214 25.132 46.6574 24.716C46.9934 24.292 47.1614 23.752 47.1614 23.096C47.1614 22.44 46.9934 21.904 46.6574 21.488C46.3214 21.072 45.8694 20.864 45.3014 20.864C44.9574 20.864 44.6214 20.956 44.2934 21.14C43.9734 21.316 43.7334 21.532 43.5734 21.788V24.404C43.7334 24.668 43.9734 24.892 44.2934 25.076C44.6214 25.252 44.9574 25.34 45.3014 25.34ZM52.1566 26.144C51.2926 26.144 50.5846 25.864 50.0326 25.304C49.4806 24.736 49.2046 24 49.2046 23.096C49.2046 22.248 49.4766 21.532 50.0206 20.948C50.5646 20.356 51.2446 20.06 52.0606 20.06C52.9166 20.06 53.5926 20.356 54.0886 20.948C54.5926 21.532 54.8446 22.272 54.8446 23.168V23.396H50.1526C50.1926 23.964 50.4006 24.44 50.7766 24.824C51.1526 25.208 51.6406 25.4 52.2406 25.4C52.9606 25.4 53.5566 25.156 54.0286 24.668L54.4606 25.256C53.8686 25.848 53.1006 26.144 52.1566 26.144ZM53.9566 22.736C53.9486 22.24 53.7806 21.796 53.4526 21.404C53.1246 21.004 52.6566 20.804 52.0486 20.804C51.4726 20.804 51.0166 21 50.6806 21.392C50.3526 21.784 50.1766 22.232 50.1526 22.736H53.9566ZM58.3543 26.144C57.2423 26.144 56.3703 25.828 55.7383 25.196L56.1823 24.62C56.7263 25.14 57.4503 25.4 58.3543 25.4C58.8743 25.4 59.2863 25.308 59.5903 25.124C59.9023 24.94 60.0583 24.696 60.0583 24.392C60.0583 23.752 59.4503 23.432 58.2343 23.432H56.9383V22.7H58.2343C58.7383 22.7 59.1503 22.62 59.4703 22.46C59.7903 22.292 59.9503 22.048 59.9503 21.728C59.9503 21.456 59.7903 21.236 59.4703 21.068C59.1503 20.892 58.7463 20.804 58.2583 20.804C57.4503 20.804 56.8023 21.052 56.3143 21.548L55.8463 20.996C56.4463 20.38 57.2383 20.072 58.2223 20.072C59.0143 20.064 59.6543 20.2 60.1423 20.48C60.6383 20.752 60.8863 21.132 60.8863 21.62C60.8863 22.02 60.7223 22.344 60.3943 22.592C60.0743 22.84 59.7183 22.988 59.3263 23.036C59.7343 23.068 60.1143 23.204 60.4663 23.444C60.8263 23.684 61.0063 24.02 61.0063 24.452C61.0063 24.948 60.7663 25.356 60.2863 25.676C59.8143 25.988 59.1703 26.144 58.3543 26.144ZM65.0824 26.144C64.2184 26.144 63.5104 25.864 62.9584 25.304C62.4064 24.736 62.1304 24 62.1304 23.096C62.1304 22.248 62.4024 21.532 62.9464 20.948C63.4904 20.356 64.1704 20.06 64.9864 20.06C65.8424 20.06 66.5184 20.356 67.0144 20.948C67.5184 21.532 67.7704 22.272 67.7704 23.168V23.396H63.0784C63.1184 23.964 63.3264 24.44 63.7024 24.824C64.0784 25.208 64.5664 25.4 65.1664 25.4C65.8864 25.4 66.4824 25.156 66.9544 24.668L67.3864 25.256C66.7944 25.848 66.0264 26.144 65.0824 26.144ZM66.8824 22.736C66.8744 22.24 66.7064 21.796 66.3784 21.404C66.0504 21.004 65.5824 20.804 64.9744 20.804C64.3984 20.804 63.9424 21 63.6064 21.392C63.2784 21.784 63.1024 22.232 63.0784 22.736H66.8824ZM72.0841 26.144C71.2681 26.144 70.6161 25.804 70.1281 25.124V28.208H69.2281V20.204H70.1281V21.068C70.3441 20.764 70.6241 20.52 70.9681 20.336C71.3121 20.152 71.6841 20.06 72.0841 20.06C72.8521 20.06 73.4721 20.336 73.9441 20.888C74.4241 21.432 74.6641 22.168 74.6641 23.096C74.6641 24.024 74.4241 24.764 73.9441 25.316C73.4721 25.868 72.8521 26.144 72.0841 26.144ZM71.8561 25.34C72.4241 25.34 72.8761 25.132 73.2121 24.716C73.5481 24.292 73.7161 23.752 73.7161 23.096C73.7161 22.44 73.5481 21.904 73.2121 21.488C72.8761 21.072 72.4241 20.864 71.8561 20.864C71.5121 20.864 71.1761 20.956 70.8481 21.14C70.5281 21.316 70.2881 21.532 70.1281 21.788V24.404C70.2881 24.668 70.5281 24.892 70.8481 25.076C71.1761 25.252 71.5121 25.34 71.8561 25.34ZM79.3473 26H76.0953V20.204H79.2873C79.7913 20.204 80.1873 20.34 80.4753 20.612C80.7713 20.884 80.9193 21.244 80.9193 21.692C80.9193 22.02 80.8273 22.304 80.6433 22.544C80.4673 22.776 80.2473 22.932 79.9833 23.012C80.2793 23.084 80.5273 23.256 80.7273 23.528C80.9353 23.8 81.0393 24.1 81.0393 24.428C81.0393 24.9 80.8873 25.28 80.5833 25.568C80.2873 25.856 79.8753 26 79.3473 26ZM79.1673 25.208C79.4553 25.208 79.6833 25.128 79.8513 24.968C80.0193 24.808 80.1033 24.592 80.1033 24.32C80.1033 24.072 80.0193 23.86 79.8513 23.684C79.6833 23.508 79.4553 23.42 79.1673 23.42H76.9953V25.208H79.1673ZM79.1313 22.628C79.4033 22.628 79.6153 22.556 79.7673 22.412C79.9193 22.26 79.9953 22.064 79.9953 21.824C79.9953 21.568 79.9193 21.368 79.7673 21.224C79.6153 21.072 79.4033 20.996 79.1313 20.996H76.9953V22.628H79.1313ZM83.6398 26H82.7398V20.204H83.6398V22.616H86.6638V20.204H87.5638V26H86.6638V23.408H83.6398V26ZM89.3609 20.204H90.2609V22.448H92.4329C93.0089 22.448 93.4569 22.62 93.7769 22.964C94.0969 23.3 94.2569 23.72 94.2569 24.224C94.2569 24.728 94.0929 25.152 93.7649 25.496C93.4449 25.832 93.0009 26 92.4329 26H89.3609V20.204ZM92.3369 23.24H90.2609V25.208H92.3369C92.6569 25.208 92.9009 25.12 93.0689 24.944C93.2449 24.76 93.3329 24.52 93.3329 24.224C93.3329 23.928 93.2449 23.692 93.0689 23.516C92.9009 23.332 92.6569 23.24 92.3369 23.24ZM96.1049 26H95.2049V20.204H96.1049V26ZM102.704 26H101.66L99.9199 23.624L98.1799 26H97.1479L99.3679 23.024L97.2679 20.204H98.3119L99.9199 22.412L101.528 20.204H102.572L100.472 23.024L102.704 26ZM111.934 26H110.782L108.694 23.396L107.734 24.344V26H106.834V20.204H107.734V23.288L110.782 20.204H111.922L109.354 22.832L111.934 26ZM117.571 25.268C117.051 25.852 116.359 26.144 115.495 26.144C114.631 26.144 113.935 25.852 113.407 25.268C112.887 24.684 112.627 23.96 112.627 23.096C112.627 22.232 112.887 21.512 113.407 20.936C113.935 20.352 114.631 20.06 115.495 20.06C116.359 20.06 117.051 20.352 117.571 20.936C118.099 21.512 118.363 22.232 118.363 23.096C118.363 23.96 118.099 24.684 117.571 25.268ZM114.079 24.692C114.431 25.124 114.903 25.34 115.495 25.34C116.087 25.34 116.555 25.124 116.899 24.692C117.243 24.252 117.415 23.72 117.415 23.096C117.415 22.472 117.243 21.944 116.899 21.512C116.555 21.08 116.087 20.864 115.495 20.864C114.903 20.864 114.431 21.084 114.079 21.524C113.735 21.956 113.562 22.48 113.562 23.096C113.562 23.72 113.735 24.252 114.079 24.692ZM124.654 26H123.754V20.996H120.73V26H119.83V20.204H124.654V26ZM127.315 26H126.451V20.204H127.351V24.632L130.387 20.204H131.275V26H130.375V21.488L127.315 26ZM133.936 26H133.072V20.204H133.972V24.632L137.008 20.204H137.896V26H136.996V21.488L133.936 26Z" fill="black"/>
<rect x="7.5" y="9.5" width="1" height="11" rx="0.5" fill="#3DBDF6"/>
<rect x="13.5" y="14.5" width="1" height="11" rx="0.5" transform="rotate(90 13.5 14.5)" fill="#3DBDF6"/>
</svg>
