<svg width="219" height="42" viewBox="0 0 219 42" fill="none" xmlns="http://www.w3.org/2000/svg">
<path d="M5.64 5.268H3.336V7.824H2.652V5.268H0.348V4.644H2.652V2.16H3.336V4.644H5.64V5.268ZM8.54428 9H7.44028L10.6683 1.884H6.36028V0.995999H11.8203V1.68L8.54428 9ZM18.0178 10.968L17.4778 11.388C16.3498 9.844 15.7858 8.076 15.7858 6.084C15.7858 4.1 16.3498 2.332 17.4778 0.779999L18.0178 1.188C17.5938 2.028 17.2778 2.82 17.0698 3.564C16.8698 4.308 16.7698 5.148 16.7698 6.084C16.7698 7.02 16.8698 7.864 17.0698 8.616C17.2778 9.36 17.5938 10.144 18.0178 10.968ZM23.7664 8.556C23.2224 8.948 22.5424 9.144 21.7264 9.144C20.9104 9.144 20.2264 8.948 19.6744 8.556C19.1304 8.164 18.8584 7.636 18.8584 6.972C18.8584 6.468 19.0384 6.032 19.3984 5.664C19.7664 5.296 20.2224 5.032 20.7664 4.872C20.2544 4.728 19.8304 4.496 19.4944 4.176C19.1584 3.848 18.9904 3.44 18.9904 2.952C18.9904 2.28 19.2624 1.768 19.8064 1.416C20.3504 1.056 20.9904 0.875999 21.7264 0.875999C22.4624 0.875999 23.1024 1.056 23.6464 1.416C24.1984 1.768 24.4744 2.28 24.4744 2.952C24.4744 3.44 24.3064 3.848 23.9704 4.176C23.6344 4.496 23.2064 4.728 22.6864 4.872C23.2304 5.032 23.6824 5.296 24.0424 5.664C24.4104 6.032 24.5944 6.468 24.5944 6.972C24.5944 7.628 24.3184 8.156 23.7664 8.556ZM21.7264 4.464C21.8864 4.44 22.0464 4.4 22.2064 4.344C22.3744 4.288 22.5624 4.212 22.7704 4.116C22.9784 4.012 23.1464 3.872 23.2744 3.696C23.4024 3.512 23.4664 3.308 23.4664 3.084C23.4664 2.684 23.2984 2.364 22.9624 2.124C22.6344 1.884 22.2224 1.764 21.7264 1.764C21.2224 1.764 20.8064 1.884 20.4784 2.124C20.1504 2.364 19.9864 2.684 19.9864 3.084C19.9864 3.308 20.0504 3.512 20.1784 3.696C20.3064 3.872 20.4744 4.012 20.6824 4.116C20.8904 4.212 21.0744 4.288 21.2344 4.344C21.4024 4.392 21.5664 4.432 21.7264 4.464ZM21.7264 8.256C22.2384 8.256 22.6744 8.128 23.0344 7.872C23.4024 7.616 23.5864 7.28 23.5864 6.864C23.5864 6.544 23.4584 6.264 23.2024 6.024C22.9544 5.776 22.6984 5.604 22.4344 5.508C22.1784 5.404 21.9424 5.34 21.7264 5.316C21.5104 5.34 21.2704 5.404 21.0064 5.508C20.7504 5.604 20.4944 5.776 20.2384 6.024C19.9824 6.264 19.8544 6.544 19.8544 6.864C19.8544 7.28 20.0344 7.616 20.3944 7.872C20.7624 8.128 21.2064 8.256 21.7264 8.256ZM28.339 9H27.343V2.316L26.059 3.672L25.459 3.06L27.463 0.995999H28.339V9ZM35.4174 9H29.9214V8.208C30.7534 7.552 31.3974 7.032 31.8534 6.648C32.3174 6.256 32.7614 5.844 33.1854 5.412C33.6174 4.972 33.9214 4.584 34.0974 4.248C34.2734 3.904 34.3614 3.564 34.3614 3.228C34.3614 2.748 34.1974 2.384 33.8694 2.136C33.5414 1.888 33.1494 1.764 32.6934 1.764C31.7734 1.764 31.0494 2.1 30.5214 2.772L29.9094 2.136C30.2134 1.736 30.6094 1.428 31.0974 1.212C31.5934 0.987999 32.1254 0.875999 32.6934 0.875999C33.4214 0.875999 34.0494 1.08 34.5774 1.488C35.1134 1.896 35.3814 2.476 35.3814 3.228C35.3814 3.972 35.0614 4.716 34.4214 5.46C33.7814 6.196 32.8054 7.08 31.4934 8.112H35.4174V9ZM37.0721 11.388L36.5321 10.968C36.9561 10.144 37.2721 9.36 37.4801 8.616C37.6881 7.864 37.7921 7.02 37.7921 6.084C37.7921 5.14 37.6881 4.296 37.4801 3.552C37.2721 2.808 36.9561 2.02 36.5321 1.188L37.0721 0.779999C38.2081 2.324 38.7761 4.092 38.7761 6.084C38.7761 8.084 38.2081 9.852 37.0721 11.388ZM45.5904 9.144C44.9504 9.144 44.3824 9.02 43.8864 8.772C43.3904 8.524 43.0104 8.208 42.7464 7.824L43.3344 7.2C43.5744 7.52 43.8904 7.776 44.2824 7.968C44.6744 8.16 45.1024 8.256 45.5664 8.256C46.1504 8.256 46.6064 8.124 46.9344 7.86C47.2704 7.588 47.4384 7.22 47.4384 6.756C47.4384 6.276 47.2584 5.92 46.8984 5.688C46.5464 5.456 46.0624 5.34 45.4464 5.34C44.9744 5.34 44.6984 5.344 44.6184 5.352V4.44C44.7064 4.448 44.9824 4.452 45.4464 4.452C45.9904 4.452 46.4344 4.344 46.7784 4.128C47.1304 3.904 47.3064 3.572 47.3064 3.132C47.3064 2.708 47.1344 2.376 46.7904 2.136C46.4544 1.888 46.0304 1.764 45.5184 1.764C44.7104 1.764 44.0064 2.088 43.4064 2.736L42.8544 2.112C43.5344 1.288 44.4464 0.875999 45.5904 0.875999C46.3824 0.875999 47.0304 1.068 47.5344 1.452C48.0464 1.828 48.3024 2.348 48.3024 3.012C48.3024 3.54 48.1264 3.964 47.7744 4.284C47.4224 4.596 47.0224 4.792 46.5744 4.872C47.0144 4.912 47.4304 5.104 47.8224 5.448C48.2224 5.792 48.4224 6.256 48.4224 6.84C48.4224 7.52 48.1664 8.076 47.6544 8.508C47.1424 8.932 46.4544 9.144 45.5904 9.144ZM52.2701 9.144C51.6301 9.144 51.0621 9.02 50.5661 8.772C50.0701 8.524 49.6901 8.208 49.4261 7.824L50.0141 7.2C50.2541 7.52 50.5701 7.776 50.9621 7.968C51.3541 8.16 51.7821 8.256 52.2461 8.256C52.8301 8.256 53.2861 8.124 53.6141 7.86C53.9501 7.588 54.1181 7.22 54.1181 6.756C54.1181 6.276 53.9381 5.92 53.5781 5.688C53.2261 5.456 52.7421 5.34 52.1261 5.34C51.6541 5.34 51.3781 5.344 51.2981 5.352V4.44C51.3861 4.448 51.6621 4.452 52.1261 4.452C52.6701 4.452 53.1141 4.344 53.4581 4.128C53.8101 3.904 53.9861 3.572 53.9861 3.132C53.9861 2.708 53.8141 2.376 53.4701 2.136C53.1341 1.888 52.7101 1.764 52.1981 1.764C51.3901 1.764 50.6861 2.088 50.0861 2.736L49.5341 2.112C50.2141 1.288 51.1261 0.875999 52.2701 0.875999C53.0621 0.875999 53.7101 1.068 54.2141 1.452C54.7261 1.828 54.9821 2.348 54.9821 3.012C54.9821 3.54 54.8061 3.964 54.4541 4.284C54.1021 4.596 53.7021 4.792 53.2541 4.872C53.6941 4.912 54.1101 5.104 54.5021 5.448C54.9021 5.792 55.1021 6.256 55.1021 6.84C55.1021 7.52 54.8461 8.076 54.3341 8.508C53.8221 8.932 53.1341 9.144 52.2701 9.144ZM60.9418 9H59.9458V6.972H56.1418V6.144L59.5738 0.995999H60.9418V6.096H62.0698V6.972H60.9418V9ZM59.9458 6.096V1.92L57.1378 6.096H59.9458ZM65.6892 6.492H62.8092V5.7H65.6892V6.492ZM69.1789 9H68.1829V2.316L66.8989 3.672L66.2989 3.06L68.3029 0.995999H69.1789V9ZM76.2573 9H70.7613V8.208C71.5933 7.552 72.2373 7.032 72.6933 6.648C73.1573 6.256 73.6013 5.844 74.0253 5.412C74.4573 4.972 74.7613 4.584 74.9373 4.248C75.1133 3.904 75.2013 3.564 75.2013 3.228C75.2013 2.748 75.0373 2.384 74.7093 2.136C74.3813 1.888 73.9893 1.764 73.5333 1.764C72.6133 1.764 71.8893 2.1 71.3613 2.772L70.7493 2.136C71.0533 1.736 71.4493 1.428 71.9373 1.212C72.4333 0.987999 72.9653 0.875999 73.5333 0.875999C74.2613 0.875999 74.8893 1.08 75.4173 1.488C75.9533 1.896 76.2213 2.476 76.2213 3.228C76.2213 3.972 75.9013 4.716 75.2613 5.46C74.6213 6.196 73.6453 7.08 72.3333 8.112H76.2573V9ZM80.408 6.492H77.528V5.7H80.408V6.492ZM86.9096 9H81.4136V8.208C82.2456 7.552 82.8896 7.032 83.3456 6.648C83.8096 6.256 84.2536 5.844 84.6776 5.412C85.1096 4.972 85.4136 4.584 85.5896 4.248C85.7656 3.904 85.8536 3.564 85.8536 3.228C85.8536 2.748 85.6896 2.384 85.3616 2.136C85.0336 1.888 84.6416 1.764 84.1856 1.764C83.2656 1.764 82.5416 2.1 82.0136 2.772L81.4016 2.136C81.7056 1.736 82.1016 1.428 82.5896 1.212C83.0856 0.987999 83.6176 0.875999 84.1856 0.875999C84.9136 0.875999 85.5416 1.08 86.0696 1.488C86.6056 1.896 86.8736 2.476 86.8736 3.228C86.8736 3.972 86.5536 4.716 85.9136 5.46C85.2736 6.196 84.2976 7.08 82.9856 8.112H86.9096V9ZM93.9643 9H88.4683V8.208C89.3003 7.552 89.9443 7.032 90.4003 6.648C90.8643 6.256 91.3083 5.844 91.7323 5.412C92.1643 4.972 92.4683 4.584 92.6443 4.248C92.8203 3.904 92.9083 3.564 92.9083 3.228C92.9083 2.748 92.7443 2.384 92.4163 2.136C92.0883 1.888 91.6963 1.764 91.2403 1.764C90.3203 1.764 89.5963 2.1 89.0683 2.772L88.4563 2.136C88.7603 1.736 89.1563 1.428 89.6443 1.212C90.1403 0.987999 90.6723 0.875999 91.2403 0.875999C91.9683 0.875999 92.5963 1.08 93.1243 1.488C93.6603 1.896 93.9283 2.476 93.9283 3.228C93.9283 3.972 93.6083 4.716 92.9683 5.46C92.3283 6.196 91.3523 7.08 90.0403 8.112H93.9643V9ZM5.64 20.268H3.336V22.824H2.652V20.268H0.348V19.644H2.652V17.16H3.336V19.644H5.64V20.268ZM8.54428 24H7.44028L10.6683 16.884H6.36028V15.996H11.8203V16.68L8.54428 24ZM18.0178 25.968L17.4778 26.388C16.3498 24.844 15.7858 23.076 15.7858 21.084C15.7858 19.1 16.3498 17.332 17.4778 15.78L18.0178 16.188C17.5938 17.028 17.2778 17.82 17.0698 18.564C16.8698 19.308 16.7698 20.148 16.7698 21.084C16.7698 22.02 16.8698 22.864 17.0698 23.616C17.2778 24.36 17.5938 25.144 18.0178 25.968ZM23.4184 24H22.4224V21.972H18.6184V21.144L22.0504 15.996H23.4184V21.096H24.5464V21.972H23.4184V24ZM22.4224 21.096V16.92L19.6144 21.096H22.4224ZM28.1538 24.132C27.2338 24.132 26.4938 23.812 25.9338 23.172L26.4378 22.428C26.9018 22.972 27.4738 23.244 28.1538 23.244C28.6658 23.244 29.0978 23.084 29.4498 22.764C29.8018 22.444 30.0498 22.056 30.1938 21.6C30.3378 21.144 30.4098 20.648 30.4098 20.112C30.4098 19.968 30.4058 19.86 30.3978 19.788C30.1978 20.108 29.8898 20.396 29.4738 20.652C29.0578 20.908 28.6138 21.036 28.1418 21.036C27.3818 21.036 26.7538 20.816 26.2578 20.376C25.7618 19.928 25.5138 19.296 25.5138 18.48C25.5138 17.76 25.7698 17.144 26.2818 16.632C26.7938 16.12 27.4698 15.864 28.3098 15.864C28.8538 15.864 29.3298 15.976 29.7378 16.2C30.1458 16.424 30.4658 16.732 30.6978 17.124C30.9378 17.516 31.1138 17.952 31.2258 18.432C31.3458 18.912 31.4058 19.436 31.4058 20.004C31.4058 20.756 31.2938 21.436 31.0698 22.044C30.8458 22.644 30.4818 23.144 29.9778 23.544C29.4818 23.936 28.8738 24.132 28.1538 24.132ZM28.3698 20.172C28.7618 20.172 29.1378 20.064 29.4978 19.848C29.8658 19.632 30.1538 19.344 30.3618 18.984C30.3138 18.392 30.1258 17.872 29.7978 17.424C29.4698 16.976 28.9898 16.752 28.3578 16.752C27.7898 16.752 27.3418 16.928 27.0138 17.28C26.6858 17.632 26.5218 18.02 26.5218 18.444C26.5218 19.004 26.6938 19.432 27.0378 19.728C27.3818 20.024 27.8258 20.172 28.3698 20.172ZM35.6276 24.144C34.3956 24.144 33.4556 23.716 32.8076 22.86L33.4196 22.2C33.9716 22.904 34.7076 23.256 35.6276 23.256C36.1716 23.256 36.6156 23.092 36.9596 22.764C37.3036 22.436 37.4756 22.028 37.4756 21.54C37.4756 21.02 37.3036 20.604 36.9596 20.292C36.6236 19.972 36.1836 19.812 35.6396 19.812C34.9196 19.812 34.3036 20.064 33.7916 20.568L33.0596 20.316V15.996H37.9556V16.884H34.0556V19.668C34.5356 19.188 35.1596 18.948 35.9276 18.948C36.6316 18.948 37.2316 19.18 37.7276 19.644C38.2236 20.1 38.4716 20.72 38.4716 21.504C38.4716 22.304 38.2036 22.944 37.6676 23.424C37.1316 23.904 36.4516 24.144 35.6276 24.144ZM39.8378 26.388L39.2978 25.968C39.7218 25.144 40.0378 24.36 40.2458 23.616C40.4538 22.864 40.5578 22.02 40.5578 21.084C40.5578 20.14 40.4538 19.296 40.2458 18.552C40.0378 17.808 39.7218 17.02 39.2978 16.188L39.8378 15.78C40.9738 17.324 41.5418 19.092 41.5418 21.084C41.5418 23.084 40.9738 24.852 39.8378 26.388ZM48.8601 24.144C48.3241 24.144 47.8521 24.032 47.4441 23.808C47.0361 23.584 46.7121 23.28 46.4721 22.896C46.2401 22.504 46.0641 22.068 45.9441 21.588C45.8321 21.1 45.7761 20.576 45.7761 20.016C45.7761 19.264 45.8881 18.584 46.1121 17.976C46.3361 17.368 46.6961 16.868 47.1921 16.476C47.6961 16.076 48.3081 15.876 49.0281 15.876C49.9481 15.876 50.6881 16.196 51.2481 16.836L50.7441 17.58C50.2801 17.036 49.7081 16.764 49.0281 16.764C48.5321 16.764 48.1081 16.92 47.7561 17.232C47.4121 17.544 47.1601 17.932 47.0001 18.396C46.8481 18.852 46.7721 19.356 46.7721 19.908C46.7721 20.044 46.7761 20.148 46.7841 20.22C46.9841 19.9 47.2921 19.612 47.7081 19.356C48.1321 19.1 48.5801 18.972 49.0521 18.972C49.8121 18.972 50.4361 19.196 50.9241 19.644C51.4201 20.084 51.6681 20.712 51.6681 21.528C51.6681 22.256 51.4121 22.876 50.9001 23.388C50.3881 23.892 49.7081 24.144 48.8601 24.144ZM48.8241 23.256C49.4001 23.256 49.8481 23.084 50.1681 22.74C50.4961 22.388 50.6601 21.996 50.6601 21.564C50.6601 21.004 50.4881 20.576 50.1441 20.28C49.8001 19.984 49.3561 19.836 48.8121 19.836C48.4201 19.836 48.0441 19.948 47.6841 20.172C47.3241 20.388 47.0321 20.676 46.8081 21.036C46.8641 21.628 47.0561 22.148 47.3841 22.596C47.7121 23.036 48.1921 23.256 48.8241 23.256ZM55.9499 24.144C55.4139 24.144 54.9419 24.032 54.5339 23.808C54.1259 23.584 53.8019 23.28 53.5619 22.896C53.3299 22.504 53.1539 22.068 53.0339 21.588C52.9219 21.1 52.8659 20.576 52.8659 20.016C52.8659 19.264 52.9779 18.584 53.2019 17.976C53.4259 17.368 53.7859 16.868 54.2819 16.476C54.7859 16.076 55.3979 15.876 56.1179 15.876C57.0379 15.876 57.7779 16.196 58.3379 16.836L57.8339 17.58C57.3699 17.036 56.7979 16.764 56.1179 16.764C55.6219 16.764 55.1979 16.92 54.8459 17.232C54.5019 17.544 54.2499 17.932 54.0899 18.396C53.9379 18.852 53.8619 19.356 53.8619 19.908C53.8619 20.044 53.8659 20.148 53.8739 20.22C54.0739 19.9 54.3819 19.612 54.7979 19.356C55.2219 19.1 55.6699 18.972 56.1419 18.972C56.9019 18.972 57.5259 19.196 58.0139 19.644C58.5099 20.084 58.7579 20.712 58.7579 21.528C58.7579 22.256 58.5019 22.876 57.9899 23.388C57.4779 23.892 56.7979 24.144 55.9499 24.144ZM55.9139 23.256C56.4899 23.256 56.9379 23.084 57.2579 22.74C57.5859 22.388 57.7499 21.996 57.7499 21.564C57.7499 21.004 57.5779 20.576 57.2339 20.28C56.8899 19.984 56.4459 19.836 55.9019 19.836C55.5099 19.836 55.1339 19.948 54.7739 20.172C54.4139 20.388 54.1219 20.676 53.8979 21.036C53.9539 21.628 54.1459 22.148 54.4739 22.596C54.8019 23.036 55.2819 23.256 55.9139 23.256ZM62.5358 24.144C61.8958 24.144 61.3278 24.02 60.8318 23.772C60.3358 23.524 59.9558 23.208 59.6918 22.824L60.2798 22.2C60.5198 22.52 60.8358 22.776 61.2278 22.968C61.6198 23.16 62.0478 23.256 62.5117 23.256C63.0958 23.256 63.5518 23.124 63.8798 22.86C64.2158 22.588 64.3838 22.22 64.3838 21.756C64.3838 21.276 64.2038 20.92 63.8438 20.688C63.4918 20.456 63.0078 20.34 62.3918 20.34C61.9198 20.34 61.6438 20.344 61.5638 20.352V19.44C61.6518 19.448 61.9278 19.452 62.3918 19.452C62.9358 19.452 63.3798 19.344 63.7238 19.128C64.0758 18.904 64.2518 18.572 64.2518 18.132C64.2518 17.708 64.0798 17.376 63.7358 17.136C63.3998 16.888 62.9758 16.764 62.4638 16.764C61.6558 16.764 60.9518 17.088 60.3518 17.736L59.7998 17.112C60.4798 16.288 61.3918 15.876 62.5358 15.876C63.3278 15.876 63.9758 16.068 64.4798 16.452C64.9918 16.828 65.2478 17.348 65.2478 18.012C65.2478 18.54 65.0718 18.964 64.7198 19.284C64.3678 19.596 63.9678 19.792 63.5198 19.872C63.9598 19.912 64.3758 20.104 64.7678 20.448C65.1678 20.792 65.3678 21.256 65.3678 21.84C65.3678 22.52 65.1118 23.076 64.5998 23.508C64.0878 23.932 63.3998 24.144 62.5358 24.144ZM69.2634 21.492H66.3834V20.7H69.2634V21.492ZM72.7531 24H71.7571V17.316L70.4731 18.672L69.8731 18.06L71.8771 15.996H72.7531V24ZM77.3835 24.144C76.8475 24.144 76.3755 24.032 75.9675 23.808C75.5595 23.584 75.2355 23.28 74.9955 22.896C74.7635 22.504 74.5875 22.068 74.4675 21.588C74.3555 21.1 74.2995 20.576 74.2995 20.016C74.2995 19.264 74.4115 18.584 74.6355 17.976C74.8595 17.368 75.2195 16.868 75.7155 16.476C76.2195 16.076 76.8315 15.876 77.5515 15.876C78.4715 15.876 79.2115 16.196 79.7715 16.836L79.2675 17.58C78.8035 17.036 78.2315 16.764 77.5515 16.764C77.0555 16.764 76.6315 16.92 76.2795 17.232C75.9355 17.544 75.6835 17.932 75.5235 18.396C75.3715 18.852 75.2955 19.356 75.2955 19.908C75.2955 20.044 75.2995 20.148 75.3075 20.22C75.5075 19.9 75.8155 19.612 76.2315 19.356C76.6555 19.1 77.1035 18.972 77.5755 18.972C78.3355 18.972 78.9595 19.196 79.4475 19.644C79.9435 20.084 80.1915 20.712 80.1915 21.528C80.1915 22.256 79.9355 22.876 79.4235 23.388C78.9115 23.892 78.2315 24.144 77.3835 24.144ZM77.3475 23.256C77.9235 23.256 78.3715 23.084 78.6915 22.74C79.0195 22.388 79.1835 21.996 79.1835 21.564C79.1835 21.004 79.0115 20.576 78.6675 20.28C78.3235 19.984 77.8795 19.836 77.3355 19.836C76.9435 19.836 76.5675 19.948 76.2075 20.172C75.8475 20.388 75.5555 20.676 75.3315 21.036C75.3875 21.628 75.5795 22.148 75.9075 22.596C76.2355 23.036 76.7155 23.256 77.3475 23.256ZM84.0173 21.492H81.1373V20.7H84.0173V21.492ZM87.507 24H86.511V17.316L85.227 18.672L84.627 18.06L86.631 15.996H87.507V24ZM94.5854 24H89.0894V23.208C89.9214 22.552 90.5654 22.032 91.0214 21.648C91.4854 21.256 91.9294 20.844 92.3534 20.412C92.7854 19.972 93.0894 19.584 93.2654 19.248C93.4414 18.904 93.5294 18.564 93.5294 18.228C93.5294 17.748 93.3654 17.384 93.0374 17.136C92.7094 16.888 92.3174 16.764 91.8614 16.764C90.9414 16.764 90.2174 17.1 89.6894 17.772L89.0774 17.136C89.3814 16.736 89.7774 16.428 90.2654 16.212C90.7614 15.988 91.2934 15.876 91.8614 15.876C92.5894 15.876 93.2174 16.08 93.7454 16.488C94.2814 16.896 94.5494 17.476 94.5494 18.228C94.5494 18.972 94.2294 19.716 93.5894 20.46C92.9494 21.196 91.9734 22.08 90.6614 23.112H94.5854V24ZM5.64 35.268H3.336V37.824H2.652V35.268H0.348V34.644H2.652V32.16H3.336V34.644H5.64V35.268ZM8.54428 39H7.44028L10.6683 31.884H6.36028V30.996H11.8203V31.68L8.54428 39ZM18.0178 40.968L17.4778 41.388C16.3498 39.844 15.7858 38.076 15.7858 36.084C15.7858 34.1 16.3498 32.332 17.4778 30.78L18.0178 31.188C17.5938 32.028 17.2778 32.82 17.0698 33.564C16.8698 34.308 16.7698 35.148 16.7698 36.084C16.7698 37.02 16.8698 37.864 17.0698 38.616C17.2778 39.36 17.5938 40.144 18.0178 40.968ZM23.7664 38.556C23.2224 38.948 22.5424 39.144 21.7264 39.144C20.9104 39.144 20.2264 38.948 19.6744 38.556C19.1304 38.164 18.8584 37.636 18.8584 36.972C18.8584 36.468 19.0384 36.032 19.3984 35.664C19.7664 35.296 20.2224 35.032 20.7664 34.872C20.2544 34.728 19.8304 34.496 19.4944 34.176C19.1584 33.848 18.9904 33.44 18.9904 32.952C18.9904 32.28 19.2624 31.768 19.8064 31.416C20.3504 31.056 20.9904 30.876 21.7264 30.876C22.4624 30.876 23.1024 31.056 23.6464 31.416C24.1984 31.768 24.4744 32.28 24.4744 32.952C24.4744 33.44 24.3064 33.848 23.9704 34.176C23.6344 34.496 23.2064 34.728 22.6864 34.872C23.2304 35.032 23.6824 35.296 24.0424 35.664C24.4104 36.032 24.5944 36.468 24.5944 36.972C24.5944 37.628 24.3184 38.156 23.7664 38.556ZM21.7264 34.464C21.8864 34.44 22.0464 34.4 22.2064 34.344C22.3744 34.288 22.5624 34.212 22.7704 34.116C22.9784 34.012 23.1464 33.872 23.2744 33.696C23.4024 33.512 23.4664 33.308 23.4664 33.084C23.4664 32.684 23.2984 32.364 22.9624 32.124C22.6344 31.884 22.2224 31.764 21.7264 31.764C21.2224 31.764 20.8064 31.884 20.4784 32.124C20.1504 32.364 19.9864 32.684 19.9864 33.084C19.9864 33.308 20.0504 33.512 20.1784 33.696C20.3064 33.872 20.4744 34.012 20.6824 34.116C20.8904 34.212 21.0744 34.288 21.2344 34.344C21.4024 34.392 21.5664 34.432 21.7264 34.464ZM21.7264 38.256C22.2384 38.256 22.6744 38.128 23.0344 37.872C23.4024 37.616 23.5864 37.28 23.5864 36.864C23.5864 36.544 23.4584 36.264 23.2024 36.024C22.9544 35.776 22.6984 35.604 22.4344 35.508C22.1784 35.404 21.9424 35.34 21.7264 35.316C21.5104 35.34 21.2704 35.404 21.0064 35.508C20.7504 35.604 20.4944 35.776 20.2384 36.024C19.9824 36.264 19.8544 36.544 19.8544 36.864C19.8544 37.28 20.0344 37.616 20.3944 37.872C20.7624 38.128 21.2064 38.256 21.7264 38.256ZM28.879 39.144C28.351 39.144 27.883 39.024 27.475 38.784C27.075 38.536 26.755 38.208 26.515 37.8C26.283 37.392 26.107 36.952 25.987 36.48C25.875 36.008 25.819 35.516 25.819 35.004C25.819 34.492 25.875 34 25.987 33.528C26.107 33.056 26.283 32.62 26.515 32.22C26.755 31.812 27.075 31.488 27.475 31.248C27.883 31 28.351 30.876 28.879 30.876C29.399 30.876 29.863 31 30.271 31.248C30.679 31.488 30.999 31.812 31.231 32.22C31.471 32.62 31.647 33.056 31.759 33.528C31.879 34 31.939 34.492 31.939 35.004C31.939 35.516 31.879 36.008 31.759 36.48C31.647 36.952 31.471 37.392 31.231 37.8C30.999 38.208 30.679 38.536 30.271 38.784C29.863 39.024 29.399 39.144 28.879 39.144ZM27.679 37.764C27.999 38.092 28.399 38.256 28.879 38.256C29.359 38.256 29.759 38.092 30.079 37.764C30.399 37.428 30.619 37.028 30.739 36.564C30.859 36.1 30.919 35.58 30.919 35.004C30.919 34.428 30.859 33.908 30.739 33.444C30.619 32.98 30.399 32.584 30.079 32.256C29.759 31.928 29.359 31.764 28.879 31.764C28.399 31.764 27.999 31.928 27.679 32.256C27.359 32.584 27.139 32.98 27.019 33.444C26.899 33.908 26.839 34.428 26.839 35.004C26.839 35.58 26.899 36.1 27.019 36.564C27.139 37.028 27.359 37.428 27.679 37.764ZM36.2267 39.144C35.6987 39.144 35.2307 39.024 34.8227 38.784C34.4227 38.536 34.1027 38.208 33.8627 37.8C33.6307 37.392 33.4547 36.952 33.3347 36.48C33.2227 36.008 33.1667 35.516 33.1667 35.004C33.1667 34.492 33.2227 34 33.3347 33.528C33.4547 33.056 33.6307 32.62 33.8627 32.22C34.1027 31.812 34.4227 31.488 34.8227 31.248C35.2307 31 35.6987 30.876 36.2267 30.876C36.7467 30.876 37.2107 31 37.6187 31.248C38.0267 31.488 38.3467 31.812 38.5787 32.22C38.8187 32.62 38.9947 33.056 39.1067 33.528C39.2267 34 39.2867 34.492 39.2867 35.004C39.2867 35.516 39.2267 36.008 39.1067 36.48C38.9947 36.952 38.8187 37.392 38.5787 37.8C38.3467 38.208 38.0267 38.536 37.6187 38.784C37.2107 39.024 36.7467 39.144 36.2267 39.144ZM35.0267 37.764C35.3467 38.092 35.7467 38.256 36.2267 38.256C36.7067 38.256 37.1067 38.092 37.4267 37.764C37.7467 37.428 37.9667 37.028 38.0867 36.564C38.2067 36.1 38.2667 35.58 38.2667 35.004C38.2667 34.428 38.2067 33.908 38.0867 33.444C37.9667 32.98 37.7467 32.584 37.4267 32.256C37.1067 31.928 36.7067 31.764 36.2267 31.764C35.7467 31.764 35.3467 31.928 35.0267 32.256C34.7067 32.584 34.4867 32.98 34.3667 33.444C34.2467 33.908 34.1867 34.428 34.1867 35.004C34.1867 35.58 34.2467 36.1 34.3667 36.564C34.4867 37.028 34.7067 37.428 35.0267 37.764ZM40.6463 41.388L40.1063 40.968C40.5303 40.144 40.8463 39.36 41.0543 38.616C41.2623 37.864 41.3663 37.02 41.3663 36.084C41.3663 35.14 41.2623 34.296 41.0543 33.552C40.8463 32.808 40.5303 32.02 40.1063 31.188L40.6463 30.78C41.7823 32.324 42.3503 34.092 42.3503 36.084C42.3503 38.084 41.7823 39.852 40.6463 41.388ZM49.1047 39H48.1087V32.316L46.8247 33.672L46.2247 33.06L48.2287 30.996H49.1047V39ZM53.7111 39.144C53.1831 39.144 52.7151 39.024 52.3071 38.784C51.9071 38.536 51.5871 38.208 51.3471 37.8C51.1151 37.392 50.9391 36.952 50.8191 36.48C50.7071 36.008 50.6511 35.516 50.6511 35.004C50.6511 34.492 50.7071 34 50.8191 33.528C50.9391 33.056 51.1151 32.62 51.3471 32.22C51.5871 31.812 51.9071 31.488 52.3071 31.248C52.7151 31 53.1831 30.876 53.7111 30.876C54.2311 30.876 54.6951 31 55.1031 31.248C55.5111 31.488 55.8311 31.812 56.0631 32.22C56.3031 32.62 56.4791 33.056 56.5911 33.528C56.7111 34 56.7711 34.492 56.7711 35.004C56.7711 35.516 56.7111 36.008 56.5911 36.48C56.4791 36.952 56.3031 37.392 56.0631 37.8C55.8311 38.208 55.5111 38.536 55.1031 38.784C54.6951 39.024 54.2311 39.144 53.7111 39.144ZM52.5111 37.764C52.8311 38.092 53.2311 38.256 53.7111 38.256C54.1911 38.256 54.5911 38.092 54.9111 37.764C55.2311 37.428 55.4511 37.028 55.5711 36.564C55.6911 36.1 55.7511 35.58 55.7511 35.004C55.7511 34.428 55.6911 33.908 55.5711 33.444C55.4511 32.98 55.2311 32.584 54.9111 32.256C54.5911 31.928 54.1911 31.764 53.7111 31.764C53.2311 31.764 52.8311 31.928 52.5111 32.256C52.1911 32.584 51.9711 32.98 51.8511 33.444C51.7311 33.908 51.6711 34.428 51.6711 35.004C51.6711 35.58 51.7311 36.1 51.8511 36.564C51.9711 37.028 52.1911 37.428 52.5111 37.764ZM61.0587 39.144C60.5307 39.144 60.0627 39.024 59.6547 38.784C59.2547 38.536 58.9347 38.208 58.6947 37.8C58.4627 37.392 58.2867 36.952 58.1667 36.48C58.0547 36.008 57.9987 35.516 57.9987 35.004C57.9987 34.492 58.0547 34 58.1667 33.528C58.2867 33.056 58.4627 32.62 58.6947 32.22C58.9347 31.812 59.2547 31.488 59.6547 31.248C60.0627 31 60.5307 30.876 61.0587 30.876C61.5787 30.876 62.0427 31 62.4507 31.248C62.8587 31.488 63.1787 31.812 63.4107 32.22C63.6507 32.62 63.8267 33.056 63.9387 33.528C64.0587 34 64.1187 34.492 64.1187 35.004C64.1187 35.516 64.0587 36.008 63.9387 36.48C63.8267 36.952 63.6507 37.392 63.4107 37.8C63.1787 38.208 62.8587 38.536 62.4507 38.784C62.0427 39.024 61.5787 39.144 61.0587 39.144ZM59.8587 37.764C60.1787 38.092 60.5787 38.256 61.0587 38.256C61.5387 38.256 61.9387 38.092 62.2587 37.764C62.5787 37.428 62.7987 37.028 62.9187 36.564C63.0387 36.1 63.0987 35.58 63.0987 35.004C63.0987 34.428 63.0387 33.908 62.9187 33.444C62.7987 32.98 62.5787 32.584 62.2587 32.256C61.9387 31.928 61.5387 31.764 61.0587 31.764C60.5787 31.764 60.1787 31.928 59.8587 32.256C59.5387 32.584 59.3187 32.98 59.1987 33.444C59.0787 33.908 59.0187 34.428 59.0187 35.004C59.0187 35.58 59.0787 36.1 59.1987 36.564C59.3187 37.028 59.5387 37.428 59.8587 37.764ZM67.9744 36.492H65.0944V35.7H67.9744V36.492ZM71.464 39H70.468V32.316L69.184 33.672L68.584 33.06L70.588 30.996H71.464V39ZM76.0944 39.144C75.5584 39.144 75.0864 39.032 74.6784 38.808C74.2704 38.584 73.9464 38.28 73.7064 37.896C73.4744 37.504 73.2984 37.068 73.1784 36.588C73.0664 36.1 73.0104 35.576 73.0104 35.016C73.0104 34.264 73.1224 33.584 73.3464 32.976C73.5704 32.368 73.9304 31.868 74.4264 31.476C74.9304 31.076 75.5424 30.876 76.2624 30.876C77.1824 30.876 77.9224 31.196 78.4824 31.836L77.9784 32.58C77.5144 32.036 76.9424 31.764 76.2624 31.764C75.7664 31.764 75.3424 31.92 74.9904 32.232C74.6464 32.544 74.3944 32.932 74.2344 33.396C74.0824 33.852 74.0064 34.356 74.0064 34.908C74.0064 35.044 74.0104 35.148 74.0184 35.22C74.2184 34.9 74.5264 34.612 74.9424 34.356C75.3664 34.1 75.8144 33.972 76.2864 33.972C77.0464 33.972 77.6704 34.196 78.1584 34.644C78.6544 35.084 78.9024 35.712 78.9024 36.528C78.9024 37.256 78.6464 37.876 78.1344 38.388C77.6224 38.892 76.9424 39.144 76.0944 39.144ZM76.0584 38.256C76.6344 38.256 77.0824 38.084 77.4024 37.74C77.7304 37.388 77.8944 36.996 77.8944 36.564C77.8944 36.004 77.7224 35.576 77.3784 35.28C77.0344 34.984 76.5904 34.836 76.0464 34.836C75.6544 34.836 75.2784 34.948 74.9184 35.172C74.5584 35.388 74.2664 35.676 74.0424 36.036C74.0984 36.628 74.2904 37.148 74.6184 37.596C74.9464 38.036 75.4264 38.256 76.0584 38.256ZM82.7283 36.492H79.8483V35.7H82.7283V36.492ZM86.2179 39H85.2219V32.316L83.9379 33.672L83.3379 33.06L85.3419 30.996H86.2179V39ZM90.7643 39.144C89.5323 39.144 88.5923 38.716 87.9443 37.86L88.5563 37.2C89.1083 37.904 89.8443 38.256 90.7643 38.256C91.3083 38.256 91.7523 38.092 92.0963 37.764C92.4403 37.436 92.6123 37.028 92.6123 36.54C92.6123 36.02 92.4403 35.604 92.0963 35.292C91.7603 34.972 91.3203 34.812 90.7763 34.812C90.0563 34.812 89.4403 35.064 88.9283 35.568L88.1963 35.316V30.996H93.0923V31.884H89.1923V34.668C89.6723 34.188 90.2963 33.948 91.0643 33.948C91.7683 33.948 92.3683 34.18 92.8643 34.644C93.3603 35.1 93.6083 35.72 93.6083 36.504C93.6083 37.304 93.3403 37.944 92.8043 38.424C92.2683 38.904 91.5883 39.144 90.7643 39.144Z" fill="#3DBDF6"/>
<path d="M100.729 10.968L100.189 11.388C99.0608 9.844 98.4968 8.076 98.4968 6.084C98.4968 4.1 99.0608 2.332 100.189 0.779999L100.729 1.188C100.305 2.028 99.9888 2.82 99.7808 3.564C99.5808 4.308 99.4808 5.148 99.4808 6.084C99.4808 7.02 99.5808 7.864 99.7808 8.616C99.9888 9.36 100.305 10.144 100.729 10.968ZM105.097 9H101.845V3.204H105.037C105.541 3.204 105.937 3.34 106.225 3.612C106.521 3.884 106.669 4.244 106.669 4.692C106.669 5.02 106.577 5.304 106.393 5.544C106.217 5.776 105.997 5.932 105.733 6.012C106.029 6.084 106.277 6.256 106.477 6.528C106.685 6.8 106.789 7.1 106.789 7.428C106.789 7.9 106.637 8.28 106.333 8.568C106.037 8.856 105.625 9 105.097 9ZM104.917 8.208C105.205 8.208 105.433 8.128 105.601 7.968C105.769 7.808 105.853 7.592 105.853 7.32C105.853 7.072 105.769 6.86 105.601 6.684C105.433 6.508 105.205 6.42 104.917 6.42H102.745V8.208H104.917ZM104.881 5.628C105.153 5.628 105.365 5.556 105.517 5.412C105.669 5.26 105.745 5.064 105.745 4.824C105.745 4.568 105.669 4.368 105.517 4.224C105.365 4.072 105.153 3.996 104.881 3.996H102.745V5.628H104.881ZM115.412 9.144C114.244 9.144 113.264 8.76 112.472 7.992C111.688 7.216 111.296 6.22 111.296 5.004C111.296 3.788 111.688 2.796 112.472 2.028C113.264 1.252 114.244 0.864 115.412 0.864C116.692 0.864 117.704 1.392 118.448 2.448L117.608 2.916C117.376 2.572 117.064 2.292 116.672 2.076C116.28 1.86 115.86 1.752 115.412 1.752C114.532 1.752 113.796 2.06 113.204 2.676C112.62 3.284 112.328 4.06 112.328 5.004C112.328 5.948 112.62 6.728 113.204 7.344C113.796 7.952 114.532 8.256 115.412 8.256C115.86 8.256 116.28 8.152 116.672 7.944C117.064 7.728 117.376 7.444 117.608 7.092L118.46 7.56C117.684 8.616 116.668 9.144 115.412 9.144ZM124.217 9H123.317V8.34C122.829 8.876 122.189 9.144 121.397 9.144C120.861 9.144 120.389 8.972 119.981 8.628C119.573 8.284 119.369 7.816 119.369 7.224C119.369 6.616 119.569 6.148 119.969 5.82C120.377 5.484 120.853 5.316 121.397 5.316C122.221 5.316 122.861 5.58 123.317 6.108V5.064C123.317 4.68 123.181 4.38 122.909 4.164C122.637 3.948 122.285 3.84 121.853 3.84C121.173 3.84 120.581 4.108 120.077 4.644L119.657 4.02C120.273 3.38 121.045 3.06 121.973 3.06C122.637 3.06 123.177 3.22 123.593 3.54C124.009 3.86 124.217 4.352 124.217 5.016V9ZM121.721 8.496C122.441 8.496 122.973 8.256 123.317 7.776V6.684C122.973 6.204 122.441 5.964 121.721 5.964C121.305 5.964 120.961 6.084 120.689 6.324C120.425 6.556 120.293 6.86 120.293 7.236C120.293 7.604 120.425 7.908 120.689 8.148C120.961 8.38 121.305 8.496 121.721 8.496ZM126.921 9H126.021V3.204H126.921V5.616H129.945V3.204H130.845V9H129.945V6.408H126.921V9ZM137.742 9H136.59L134.502 6.396L133.542 7.344V9H132.642V3.204H133.542V6.288L136.59 3.204H137.73L135.162 5.832L137.742 9ZM140.762 9H139.862V3.996H138.182V3.204H142.454V3.996H140.762V9ZM145.974 6.492H143.094V5.7H145.974V6.492ZM153.94 9H152.944V1.884H148.264V9H147.268V0.995999H153.94V9ZM158.391 9.144C157.527 9.144 156.819 8.864 156.267 8.304C155.715 7.736 155.439 7 155.439 6.096C155.439 5.248 155.711 4.532 156.255 3.948C156.799 3.356 157.479 3.06 158.295 3.06C159.151 3.06 159.827 3.356 160.323 3.948C160.827 4.532 161.079 5.272 161.079 6.168V6.396H156.387C156.427 6.964 156.635 7.44 157.011 7.824C157.387 8.208 157.875 8.4 158.475 8.4C159.195 8.4 159.791 8.156 160.263 7.668L160.695 8.256C160.103 8.848 159.335 9.144 158.391 9.144ZM160.191 5.736C160.183 5.24 160.015 4.796 159.687 4.404C159.359 4.004 158.891 3.804 158.283 3.804C157.707 3.804 157.251 4 156.915 4.392C156.587 4.784 156.411 5.232 156.387 5.736H160.191ZM164.493 9H163.593V3.996H161.913V3.204H166.185V3.996H164.493V9ZM169.981 9.144C169.117 9.144 168.409 8.864 167.857 8.304C167.305 7.736 167.029 7 167.029 6.096C167.029 5.248 167.301 4.532 167.845 3.948C168.389 3.356 169.069 3.06 169.885 3.06C170.741 3.06 171.417 3.356 171.913 3.948C172.417 4.532 172.669 5.272 172.669 6.168V6.396H167.977C168.017 6.964 168.225 7.44 168.601 7.824C168.977 8.208 169.465 8.4 170.065 8.4C170.785 8.4 171.381 8.156 171.853 7.668L172.285 8.256C171.693 8.848 170.925 9.144 169.981 9.144ZM171.781 5.736C171.773 5.24 171.605 4.796 171.277 4.404C170.949 4.004 170.481 3.804 169.873 3.804C169.297 3.804 168.841 4 168.505 4.392C168.177 4.784 168.001 5.232 167.977 5.736H171.781ZM176.983 9.144C176.167 9.144 175.515 8.804 175.027 8.124V11.208H174.127V3.204H175.027V4.068C175.243 3.764 175.523 3.52 175.867 3.336C176.211 3.152 176.583 3.06 176.983 3.06C177.751 3.06 178.371 3.336 178.843 3.888C179.323 4.432 179.563 5.168 179.563 6.096C179.563 7.024 179.323 7.764 178.843 8.316C178.371 8.868 177.751 9.144 176.983 9.144ZM176.755 8.34C177.323 8.34 177.775 8.132 178.111 7.716C178.447 7.292 178.615 6.752 178.615 6.096C178.615 5.44 178.447 4.904 178.111 4.488C177.775 4.072 177.323 3.864 176.755 3.864C176.411 3.864 176.075 3.956 175.747 4.14C175.427 4.316 175.187 4.532 175.027 4.788V7.404C175.187 7.668 175.427 7.892 175.747 8.076C176.075 8.252 176.411 8.34 176.755 8.34ZM182.11 7.692C182.462 8.124 182.934 8.34 183.526 8.34C184.118 8.34 184.586 8.124 184.93 7.692C185.274 7.252 185.446 6.716 185.446 6.084C185.446 5.468 185.274 4.944 184.93 4.512C184.586 4.08 184.118 3.864 183.526 3.864C182.934 3.864 182.462 4.08 182.11 4.512C181.766 4.944 181.594 5.468 181.594 6.084C181.594 6.716 181.766 7.252 182.11 7.692ZM183.526 9.144C182.654 9.144 181.958 8.836 181.438 8.22C180.918 7.604 180.658 6.808 180.658 5.832C180.658 4.456 180.906 3.44 181.402 2.784C181.898 2.12 182.662 1.72 183.694 1.584C184.31 1.488 184.734 1.396 184.966 1.308C185.206 1.22 185.326 1.116 185.326 0.995999H186.202C186.202 1.22 186.134 1.416 185.998 1.584C185.862 1.744 185.666 1.872 185.41 1.968C185.162 2.064 184.926 2.14 184.702 2.196C184.486 2.244 184.226 2.288 183.922 2.328C183.122 2.44 182.542 2.66 182.182 2.988C181.83 3.316 181.598 3.752 181.486 4.296C182.014 3.472 182.742 3.06 183.67 3.06C184.47 3.06 185.122 3.352 185.626 3.936C186.13 4.52 186.382 5.236 186.382 6.084C186.382 6.948 186.122 7.676 185.602 8.268C185.082 8.852 184.39 9.144 183.526 9.144ZM187.596 11.268L187.74 10.452C187.884 10.516 188.048 10.548 188.232 10.548C188.44 10.548 188.612 10.504 188.748 10.416C188.884 10.328 189 10.168 189.096 9.936L189.48 9.06L187.056 3.204H188.028L189.96 7.956L191.88 3.204H192.864L189.96 10.176C189.64 10.944 189.072 11.336 188.256 11.352C188.016 11.352 187.796 11.324 187.596 11.268ZM196.658 9.144C195.842 9.144 195.19 8.804 194.702 8.124V11.208H193.802V3.204H194.702V4.068C194.918 3.764 195.198 3.52 195.542 3.336C195.886 3.152 196.258 3.06 196.658 3.06C197.426 3.06 198.046 3.336 198.518 3.888C198.998 4.432 199.238 5.168 199.238 6.096C199.238 7.024 198.998 7.764 198.518 8.316C198.046 8.868 197.426 9.144 196.658 9.144ZM196.43 8.34C196.998 8.34 197.45 8.132 197.786 7.716C198.122 7.292 198.29 6.752 198.29 6.096C198.29 5.44 198.122 4.904 197.786 4.488C197.45 4.072 196.998 3.864 196.43 3.864C196.086 3.864 195.75 3.956 195.422 4.14C195.102 4.316 194.862 4.532 194.702 4.788V7.404C194.862 7.668 195.102 7.892 195.422 8.076C195.75 8.252 196.086 8.34 196.43 8.34ZM204.726 3.204V3.996H201.57V9H200.67V3.204H204.726ZM208.512 9.144C207.648 9.144 206.94 8.864 206.388 8.304C205.836 7.736 205.56 7 205.56 6.096C205.56 5.248 205.832 4.532 206.376 3.948C206.92 3.356 207.6 3.06 208.416 3.06C209.272 3.06 209.948 3.356 210.444 3.948C210.948 4.532 211.2 5.272 211.2 6.168V6.396H206.508C206.548 6.964 206.756 7.44 207.132 7.824C207.508 8.208 207.996 8.4 208.596 8.4C209.316 8.4 209.912 8.156 210.384 7.668L210.816 8.256C210.224 8.848 209.456 9.144 208.512 9.144ZM210.312 5.736C210.304 5.24 210.136 4.796 209.808 4.404C209.48 4.004 209.012 3.804 208.404 3.804C207.828 3.804 207.372 4 207.036 4.392C206.708 4.784 206.532 5.232 206.508 5.736H210.312ZM212.502 11.388L211.962 10.968C212.386 10.144 212.702 9.36 212.91 8.616C213.118 7.864 213.222 7.02 213.222 6.084C213.222 5.14 213.118 4.296 212.91 3.552C212.702 2.808 212.386 2.02 211.962 1.188L212.502 0.779999C213.638 2.324 214.206 4.092 214.206 6.084C214.206 8.084 213.638 9.852 212.502 11.388ZM101.35 25.968L100.81 26.388C99.6818 24.844 99.1178 23.076 99.1178 21.084C99.1178 19.1 99.6818 17.332 100.81 15.78L101.35 16.188C100.926 17.028 100.61 17.82 100.402 18.564C100.202 19.308 100.102 20.148 100.102 21.084C100.102 22.02 100.202 22.864 100.402 23.616C100.61 24.36 100.926 25.144 101.35 25.968ZM105.718 24H102.466V18.204H105.658C106.162 18.204 106.558 18.34 106.846 18.612C107.142 18.884 107.29 19.244 107.29 19.692C107.29 20.02 107.198 20.304 107.014 20.544C106.838 20.776 106.618 20.932 106.354 21.012C106.65 21.084 106.898 21.256 107.098 21.528C107.306 21.8 107.41 22.1 107.41 22.428C107.41 22.9 107.258 23.28 106.954 23.568C106.658 23.856 106.246 24 105.718 24ZM105.538 23.208C105.826 23.208 106.054 23.128 106.222 22.968C106.39 22.808 106.474 22.592 106.474 22.32C106.474 22.072 106.39 21.86 106.222 21.684C106.054 21.508 105.826 21.42 105.538 21.42H103.366V23.208H105.538ZM105.502 20.628C105.774 20.628 105.986 20.556 106.138 20.412C106.29 20.26 106.366 20.064 106.366 19.824C106.366 19.568 106.29 19.368 106.138 19.224C105.986 19.072 105.774 18.996 105.502 18.996H103.366V20.628H105.502ZM120.077 24H119.081V17.412L116.357 24H115.949L113.237 17.412V24H112.241V15.996H113.669L116.153 22.02L118.649 15.996H120.077V24ZM126.516 23.268C125.996 23.852 125.304 24.144 124.44 24.144C123.576 24.144 122.88 23.852 122.352 23.268C121.832 22.684 121.572 21.96 121.572 21.096C121.572 20.232 121.832 19.512 122.352 18.936C122.88 18.352 123.576 18.06 124.44 18.06C125.304 18.06 125.996 18.352 126.516 18.936C127.044 19.512 127.308 20.232 127.308 21.096C127.308 21.96 127.044 22.684 126.516 23.268ZM123.024 22.692C123.376 23.124 123.848 23.34 124.44 23.34C125.032 23.34 125.5 23.124 125.844 22.692C126.188 22.252 126.36 21.72 126.36 21.096C126.36 20.472 126.188 19.944 125.844 19.512C125.5 19.08 125.032 18.864 124.44 18.864C123.848 18.864 123.376 19.084 123.024 19.524C122.68 19.956 122.508 20.48 122.508 21.096C122.508 21.72 122.68 22.252 123.024 22.692ZM131.331 24.144C130.475 24.144 129.779 23.856 129.243 23.28C128.707 22.696 128.439 21.968 128.439 21.096C128.439 20.224 128.707 19.5 129.243 18.924C129.779 18.348 130.475 18.06 131.331 18.06C132.227 18.06 132.935 18.396 133.455 19.068L132.855 19.62C132.487 19.116 131.995 18.864 131.379 18.864C130.771 18.864 130.283 19.072 129.915 19.488C129.555 19.904 129.375 20.44 129.375 21.096C129.375 21.752 129.555 22.292 129.915 22.716C130.283 23.132 130.771 23.34 131.379 23.34C131.987 23.34 132.479 23.088 132.855 22.584L133.455 23.136C132.935 23.808 132.227 24.144 131.331 24.144ZM139.816 24H138.664L136.576 21.396L135.616 22.344V24H134.716V18.204H135.616V21.288L138.664 18.204H139.804L137.236 20.832L139.816 24ZM144.132 24H140.88V18.204H144.072C144.576 18.204 144.972 18.34 145.26 18.612C145.556 18.884 145.704 19.244 145.704 19.692C145.704 20.02 145.612 20.304 145.428 20.544C145.252 20.776 145.032 20.932 144.768 21.012C145.064 21.084 145.312 21.256 145.512 21.528C145.72 21.8 145.824 22.1 145.824 22.428C145.824 22.9 145.672 23.28 145.368 23.568C145.072 23.856 144.66 24 144.132 24ZM143.952 23.208C144.24 23.208 144.468 23.128 144.636 22.968C144.804 22.808 144.888 22.592 144.888 22.32C144.888 22.072 144.804 21.86 144.636 21.684C144.468 21.508 144.24 21.42 143.952 21.42H141.78V23.208H143.952ZM143.916 20.628C144.188 20.628 144.4 20.556 144.552 20.412C144.704 20.26 144.78 20.064 144.78 19.824C144.78 19.568 144.704 19.368 144.552 19.224C144.4 19.072 144.188 18.996 143.916 18.996H141.78V20.628H143.916ZM150.141 24.144C149.277 24.144 148.569 23.864 148.017 23.304C147.465 22.736 147.189 22 147.189 21.096C147.189 20.248 147.461 19.532 148.005 18.948C148.549 18.356 149.229 18.06 150.045 18.06C150.901 18.06 151.577 18.356 152.073 18.948C152.577 19.532 152.829 20.272 152.829 21.168V21.396H148.137C148.177 21.964 148.385 22.44 148.761 22.824C149.137 23.208 149.625 23.4 150.225 23.4C150.945 23.4 151.541 23.156 152.013 22.668L152.445 23.256C151.853 23.848 151.085 24.144 150.141 24.144ZM151.941 20.736C151.933 20.24 151.765 19.796 151.437 19.404C151.109 19.004 150.641 18.804 150.033 18.804C149.457 18.804 149.001 19 148.665 19.392C148.337 19.784 148.161 20.232 148.137 20.736H151.941ZM154.131 26.388L153.591 25.968C154.015 25.144 154.331 24.36 154.539 23.616C154.747 22.864 154.851 22.02 154.851 21.084C154.851 20.14 154.747 19.296 154.539 18.552C154.331 17.808 154.015 17.02 153.591 16.188L154.131 15.78C155.267 17.324 155.835 19.092 155.835 21.084C155.835 23.084 155.267 24.852 154.131 26.388ZM100.084 40.968L99.5442 41.388C98.4162 39.844 97.8522 38.076 97.8522 36.084C97.8522 34.1 98.4162 32.332 99.5442 30.78L100.084 31.188C99.6602 32.028 99.3442 32.82 99.1362 33.564C98.9362 34.308 98.8362 35.148 98.8362 36.084C98.8362 37.02 98.9362 37.864 99.1362 38.616C99.3442 39.36 99.6602 40.144 100.084 40.968ZM102.317 37.692C102.669 38.124 103.141 38.34 103.733 38.34C104.325 38.34 104.793 38.124 105.137 37.692C105.481 37.252 105.653 36.716 105.653 36.084C105.653 35.468 105.481 34.944 105.137 34.512C104.793 34.08 104.325 33.864 103.733 33.864C103.141 33.864 102.669 34.08 102.317 34.512C101.973 34.944 101.801 35.468 101.801 36.084C101.801 36.716 101.973 37.252 102.317 37.692ZM103.733 39.144C102.861 39.144 102.165 38.836 101.645 38.22C101.125 37.604 100.865 36.808 100.865 35.832C100.865 34.456 101.113 33.44 101.609 32.784C102.105 32.12 102.869 31.72 103.901 31.584C104.517 31.488 104.941 31.396 105.173 31.308C105.413 31.22 105.533 31.116 105.533 30.996H106.409C106.409 31.22 106.341 31.416 106.205 31.584C106.069 31.744 105.873 31.872 105.617 31.968C105.369 32.064 105.133 32.14 104.909 32.196C104.693 32.244 104.433 32.288 104.129 32.328C103.329 32.44 102.749 32.66 102.389 32.988C102.037 33.316 101.805 33.752 101.693 34.296C102.221 33.472 102.949 33.06 103.877 33.06C104.677 33.06 105.329 33.352 105.833 33.936C106.337 34.52 106.589 35.236 106.589 36.084C106.589 36.948 106.329 37.676 105.809 38.268C105.289 38.852 104.597 39.144 103.733 39.144ZM110.743 39.144C109.879 39.144 109.171 38.864 108.619 38.304C108.067 37.736 107.791 37 107.791 36.096C107.791 35.248 108.063 34.532 108.607 33.948C109.151 33.356 109.831 33.06 110.647 33.06C111.503 33.06 112.179 33.356 112.675 33.948C113.179 34.532 113.431 35.272 113.431 36.168V36.396H108.739C108.779 36.964 108.987 37.44 109.363 37.824C109.739 38.208 110.227 38.4 110.827 38.4C111.547 38.4 112.143 38.156 112.615 37.668L113.047 38.256C112.455 38.848 111.687 39.144 110.743 39.144ZM112.543 35.736C112.535 35.24 112.367 34.796 112.039 34.404C111.711 34.004 111.243 33.804 110.635 33.804C110.059 33.804 109.603 34 109.267 34.392C108.939 34.784 108.763 35.232 108.739 35.736H112.543ZM117.444 39.144C116.588 39.144 115.892 38.856 115.356 38.28C114.82 37.696 114.552 36.968 114.552 36.096C114.552 35.224 114.82 34.5 115.356 33.924C115.892 33.348 116.588 33.06 117.444 33.06C118.34 33.06 119.048 33.396 119.568 34.068L118.968 34.62C118.6 34.116 118.108 33.864 117.492 33.864C116.884 33.864 116.396 34.072 116.028 34.488C115.668 34.904 115.488 35.44 115.488 36.096C115.488 36.752 115.668 37.292 116.028 37.716C116.396 38.132 116.884 38.34 117.492 38.34C118.1 38.34 118.592 38.088 118.968 37.584L119.568 38.136C119.048 38.808 118.34 39.144 117.444 39.144ZM125.654 39H124.754V33.996H121.73V39H120.83V33.204H125.654V39ZM126.767 39.144V38.4C127.039 38.4 127.263 38.22 127.439 37.86C127.615 37.5 127.759 36.9 127.871 36.06L128.243 33.204H132.275V39H131.375V33.996H129.035L128.771 36.168C128.643 37.232 128.419 37.996 128.099 38.46C127.779 38.916 127.335 39.144 126.767 39.144ZM138.596 39H137.696V38.34C137.208 38.876 136.568 39.144 135.776 39.144C135.24 39.144 134.768 38.972 134.36 38.628C133.952 38.284 133.748 37.816 133.748 37.224C133.748 36.616 133.948 36.148 134.348 35.82C134.756 35.484 135.232 35.316 135.776 35.316C136.6 35.316 137.24 35.58 137.696 36.108V35.064C137.696 34.68 137.56 34.38 137.288 34.164C137.016 33.948 136.664 33.84 136.232 33.84C135.552 33.84 134.96 34.108 134.456 34.644L134.036 34.02C134.652 33.38 135.424 33.06 136.352 33.06C137.016 33.06 137.556 33.22 137.972 33.54C138.388 33.86 138.596 34.352 138.596 35.016V39ZM136.1 38.496C136.82 38.496 137.352 38.256 137.696 37.776V36.684C137.352 36.204 136.82 35.964 136.1 35.964C135.684 35.964 135.34 36.084 135.068 36.324C134.804 36.556 134.672 36.86 134.672 37.236C134.672 37.604 134.804 37.908 135.068 38.148C135.34 38.38 135.684 38.496 136.1 38.496ZM142.356 39H141.456V33.996H139.776V33.204H144.048V33.996H142.356V39ZM146.128 39H145.228V33.204H146.128V35.616H149.152V33.204H150.052V39H149.152V36.408H146.128V39ZM156.457 38.268C155.937 38.852 155.245 39.144 154.381 39.144C153.517 39.144 152.821 38.852 152.293 38.268C151.773 37.684 151.513 36.96 151.513 36.096C151.513 35.232 151.773 34.512 152.293 33.936C152.821 33.352 153.517 33.06 154.381 33.06C155.245 33.06 155.937 33.352 156.457 33.936C156.985 34.512 157.249 35.232 157.249 36.096C157.249 36.96 156.985 37.684 156.457 38.268ZM152.965 37.692C153.317 38.124 153.789 38.34 154.381 38.34C154.973 38.34 155.441 38.124 155.785 37.692C156.129 37.252 156.301 36.72 156.301 36.096C156.301 35.472 156.129 34.944 155.785 34.512C155.441 34.08 154.973 33.864 154.381 33.864C153.789 33.864 153.317 34.084 152.965 34.524C152.621 34.956 152.449 35.48 152.449 36.096C152.449 36.72 152.621 37.252 152.965 37.692ZM166.634 39H165.734V33.996H162.71V39H161.81V33.204H166.634V39ZM173.039 38.268C172.519 38.852 171.827 39.144 170.963 39.144C170.099 39.144 169.403 38.852 168.875 38.268C168.355 37.684 168.095 36.96 168.095 36.096C168.095 35.232 168.355 34.512 168.875 33.936C169.403 33.352 170.099 33.06 170.963 33.06C171.827 33.06 172.519 33.352 173.039 33.936C173.567 34.512 173.831 35.232 173.831 36.096C173.831 36.96 173.567 37.684 173.039 38.268ZM169.547 37.692C169.899 38.124 170.371 38.34 170.963 38.34C171.555 38.34 172.023 38.124 172.367 37.692C172.711 37.252 172.883 36.72 172.883 36.096C172.883 35.472 172.711 34.944 172.367 34.512C172.023 34.08 171.555 33.864 170.963 33.864C170.371 33.864 169.899 34.084 169.547 34.524C169.203 34.956 169.031 35.48 169.031 36.096C169.031 36.72 169.203 37.252 169.547 37.692ZM179.424 39H178.428V30.996H181.644C182.42 30.996 183.032 31.228 183.48 31.692C183.928 32.156 184.152 32.728 184.152 33.408C184.152 34.088 183.924 34.66 183.468 35.124C183.02 35.588 182.412 35.82 181.644 35.82H179.424V39ZM181.524 34.932C181.996 34.932 182.38 34.792 182.676 34.512C182.972 34.224 183.12 33.856 183.12 33.408C183.12 32.96 182.972 32.596 182.676 32.316C182.38 32.028 181.996 31.884 181.524 31.884H179.424V34.932H181.524ZM189.891 38.268C189.371 38.852 188.679 39.144 187.815 39.144C186.951 39.144 186.255 38.852 185.727 38.268C185.207 37.684 184.947 36.96 184.947 36.096C184.947 35.232 185.207 34.512 185.727 33.936C186.255 33.352 186.951 33.06 187.815 33.06C188.679 33.06 189.371 33.352 189.891 33.936C190.419 34.512 190.683 35.232 190.683 36.096C190.683 36.96 190.419 37.684 189.891 38.268ZM186.399 37.692C186.751 38.124 187.223 38.34 187.815 38.34C188.407 38.34 188.875 38.124 189.219 37.692C189.563 37.252 189.735 36.72 189.735 36.096C189.735 35.472 189.563 34.944 189.219 34.512C188.875 34.08 188.407 33.864 187.815 33.864C187.223 33.864 186.751 34.084 186.399 34.524C186.055 34.956 185.883 35.48 185.883 36.096C185.883 36.72 186.055 37.252 186.399 37.692ZM194.706 39.144C193.85 39.144 193.154 38.856 192.618 38.28C192.082 37.696 191.814 36.968 191.814 36.096C191.814 35.224 192.082 34.5 192.618 33.924C193.154 33.348 193.85 33.06 194.706 33.06C195.602 33.06 196.31 33.396 196.83 34.068L196.23 34.62C195.862 34.116 195.37 33.864 194.754 33.864C194.146 33.864 193.658 34.072 193.29 34.488C192.93 34.904 192.75 35.44 192.75 36.096C192.75 36.752 192.93 37.292 193.29 37.716C193.658 38.132 194.146 38.34 194.754 38.34C195.362 38.34 195.854 38.088 196.23 37.584L196.83 38.136C196.31 38.808 195.602 39.144 194.706 39.144ZM200.647 39.144C199.791 39.144 199.095 38.856 198.559 38.28C198.023 37.696 197.755 36.968 197.755 36.096C197.755 35.224 198.023 34.5 198.559 33.924C199.095 33.348 199.791 33.06 200.647 33.06C201.543 33.06 202.251 33.396 202.771 34.068L202.171 34.62C201.803 34.116 201.311 33.864 200.695 33.864C200.087 33.864 199.599 34.072 199.231 34.488C198.871 34.904 198.691 35.44 198.691 36.096C198.691 36.752 198.871 37.292 199.231 37.716C199.599 38.132 200.087 38.34 200.695 38.34C201.303 38.34 201.795 38.088 202.171 37.584L202.771 38.136C202.251 38.808 201.543 39.144 200.647 39.144ZM204.897 39H204.033V33.204H204.933V37.632L207.969 33.204H208.857V39H207.957V34.488L204.897 39ZM211.518 39H210.654V33.204H211.554V37.632L214.59 33.204H215.478V39H214.578V34.488L211.518 39ZM217.119 41.388L216.579 40.968C217.003 40.144 217.319 39.36 217.527 38.616C217.735 37.864 217.839 37.02 217.839 36.084C217.839 35.14 217.735 34.296 217.527 33.552C217.319 32.808 217.003 32.02 216.579 31.188L217.119 30.78C218.255 32.324 218.823 34.092 218.823 36.084C218.823 38.084 218.255 39.852 217.119 41.388Z" fill="black"/>
</svg>
