<svg width="173" height="41" viewBox="0 0 173 41" fill="none" xmlns="http://www.w3.org/2000/svg">
<path d="M7.596 2.064C8.404 2.872 8.808 3.848 8.808 4.992C8.808 6.136 8.404 7.112 7.596 7.92C6.788 8.728 5.812 9.132 4.668 9.132C3.524 9.132 2.548 8.728 1.74 7.92C0.932 7.104 0.528 6.128 0.528 4.992C0.528 3.848 0.932 2.872 1.74 2.064C2.548 1.256 3.524 0.852 4.668 0.852C5.812 0.852 6.788 1.256 7.596 2.064ZM7.332 7.656C8.068 6.92 8.436 6.032 8.436 4.992C8.436 3.952 8.068 3.064 7.332 2.328C6.596 1.592 5.708 1.224 4.668 1.224C3.628 1.224 2.74 1.592 2.004 2.328C1.268 3.064 0.9 3.952 0.9 4.992C0.9 6.032 1.268 6.92 2.004 7.656C2.74 8.392 3.628 8.76 4.668 8.76C5.708 8.76 6.596 8.392 7.332 7.656ZM6.144 6.456L6.456 6.756C6 7.284 5.412 7.548 4.692 7.548C3.996 7.548 3.404 7.304 2.916 6.816C2.436 6.32 2.196 5.708 2.196 4.98C2.196 4.252 2.436 3.644 2.916 3.156C3.404 2.668 3.996 2.424 4.692 2.424C5.412 2.424 5.996 2.688 6.444 3.216L6.144 3.504C5.992 3.296 5.78 3.132 5.508 3.012C5.244 2.884 4.972 2.82 4.692 2.82C4.132 2.82 3.648 3.024 3.24 3.432C2.84 3.832 2.64 4.348 2.64 4.98C2.64 5.596 2.844 6.112 3.252 6.528C3.66 6.944 4.14 7.152 4.692 7.152C4.98 7.152 5.252 7.088 5.508 6.96C5.772 6.832 5.984 6.664 6.144 6.456ZM18.5776 9H13.0816V8.208C13.9136 7.552 14.5576 7.032 15.0136 6.648C15.4776 6.256 15.9216 5.844 16.3456 5.412C16.7776 4.972 17.0816 4.584 17.2576 4.248C17.4336 3.904 17.5216 3.564 17.5216 3.228C17.5216 2.748 17.3576 2.384 17.0296 2.136C16.7016 1.888 16.3096 1.764 15.8536 1.764C14.9336 1.764 14.2096 2.1 13.6816 2.772L13.0696 2.136C13.3736 1.736 13.7696 1.428 14.2576 1.212C14.7536 0.987999 15.2856 0.875999 15.8536 0.875999C16.5816 0.875999 17.2096 1.08 17.7376 1.488C18.2736 1.896 18.5416 2.476 18.5416 3.228C18.5416 3.972 18.2216 4.716 17.5816 5.46C16.9416 6.196 15.9656 7.08 14.6536 8.112H18.5776V9ZM23.1603 9.144C22.6323 9.144 22.1643 9.024 21.7563 8.784C21.3563 8.536 21.0363 8.208 20.7963 7.8C20.5643 7.392 20.3883 6.952 20.2683 6.48C20.1563 6.008 20.1003 5.516 20.1003 5.004C20.1003 4.492 20.1563 4 20.2683 3.528C20.3883 3.056 20.5643 2.62 20.7963 2.22C21.0363 1.812 21.3563 1.488 21.7563 1.248C22.1643 1 22.6323 0.875999 23.1603 0.875999C23.6803 0.875999 24.1443 1 24.5523 1.248C24.9603 1.488 25.2803 1.812 25.5123 2.22C25.7523 2.62 25.9283 3.056 26.0403 3.528C26.1603 4 26.2203 4.492 26.2203 5.004C26.2203 5.516 26.1603 6.008 26.0403 6.48C25.9283 6.952 25.7523 7.392 25.5123 7.8C25.2803 8.208 24.9603 8.536 24.5523 8.784C24.1443 9.024 23.6803 9.144 23.1603 9.144ZM21.9603 7.764C22.2803 8.092 22.6803 8.256 23.1603 8.256C23.6403 8.256 24.0403 8.092 24.3603 7.764C24.6803 7.428 24.9003 7.028 25.0203 6.564C25.1403 6.1 25.2003 5.58 25.2003 5.004C25.2003 4.428 25.1403 3.908 25.0203 3.444C24.9003 2.98 24.6803 2.584 24.3603 2.256C24.0403 1.928 23.6403 1.764 23.1603 1.764C22.6803 1.764 22.2803 1.928 21.9603 2.256C21.6403 2.584 21.4203 2.98 21.3003 3.444C21.1803 3.908 21.1203 4.428 21.1203 5.004C21.1203 5.58 21.1803 6.1 21.3003 6.564C21.4203 7.028 21.6403 7.428 21.9603 7.764ZM30.5079 9.144C29.9799 9.144 29.5119 9.024 29.1039 8.784C28.7039 8.536 28.3839 8.208 28.1439 7.8C27.9119 7.392 27.7359 6.952 27.6159 6.48C27.5039 6.008 27.4479 5.516 27.4479 5.004C27.4479 4.492 27.5039 4 27.6159 3.528C27.7359 3.056 27.9119 2.62 28.1439 2.22C28.3839 1.812 28.7039 1.488 29.1039 1.248C29.5119 1 29.9799 0.875999 30.5079 0.875999C31.0279 0.875999 31.4919 1 31.8999 1.248C32.3079 1.488 32.6279 1.812 32.8599 2.22C33.0999 2.62 33.2759 3.056 33.3879 3.528C33.5079 4 33.5679 4.492 33.5679 5.004C33.5679 5.516 33.5079 6.008 33.3879 6.48C33.2759 6.952 33.0999 7.392 32.8599 7.8C32.6279 8.208 32.3079 8.536 31.8999 8.784C31.4919 9.024 31.0279 9.144 30.5079 9.144ZM29.3079 7.764C29.6279 8.092 30.0279 8.256 30.5079 8.256C30.9879 8.256 31.3879 8.092 31.7079 7.764C32.0279 7.428 32.2479 7.028 32.3679 6.564C32.4879 6.1 32.5479 5.58 32.5479 5.004C32.5479 4.428 32.4879 3.908 32.3679 3.444C32.2479 2.98 32.0279 2.584 31.7079 2.256C31.3879 1.928 30.9879 1.764 30.5079 1.764C30.0279 1.764 29.6279 1.928 29.3079 2.256C28.9879 2.584 28.7679 2.98 28.6479 3.444C28.5279 3.908 28.4679 4.428 28.4679 5.004C28.4679 5.58 28.5279 6.1 28.6479 6.564C28.7679 7.028 28.9879 7.428 29.3079 7.764ZM37.3156 9H36.3196V2.316L35.0356 3.672L34.4356 3.06L36.4396 0.995999H37.3156V9ZM45.006 6.492H38.61V5.7H45.006V6.492ZM51.5073 9H46.0113V8.208C46.8433 7.552 47.4873 7.032 47.9433 6.648C48.4073 6.256 48.8513 5.844 49.2753 5.412C49.7073 4.972 50.0113 4.584 50.1873 4.248C50.3633 3.904 50.4513 3.564 50.4513 3.228C50.4513 2.748 50.2873 2.384 49.9593 2.136C49.6313 1.888 49.2393 1.764 48.7833 1.764C47.8633 1.764 47.1393 2.1 46.6113 2.772L45.9993 2.136C46.3033 1.736 46.6993 1.428 47.1873 1.212C47.6833 0.987999 48.2153 0.875999 48.7833 0.875999C49.5113 0.875999 50.1393 1.08 50.6673 1.488C51.2033 1.896 51.4713 2.476 51.4713 3.228C51.4713 3.972 51.1513 4.716 50.5113 5.46C49.8713 6.196 48.8953 7.08 47.5833 8.112H51.5073V9ZM56.09 9.144C55.562 9.144 55.094 9.024 54.686 8.784C54.286 8.536 53.966 8.208 53.726 7.8C53.494 7.392 53.318 6.952 53.198 6.48C53.086 6.008 53.03 5.516 53.03 5.004C53.03 4.492 53.086 4 53.198 3.528C53.318 3.056 53.494 2.62 53.726 2.22C53.966 1.812 54.286 1.488 54.686 1.248C55.094 1 55.562 0.875999 56.09 0.875999C56.61 0.875999 57.074 1 57.482 1.248C57.89 1.488 58.21 1.812 58.442 2.22C58.682 2.62 58.858 3.056 58.97 3.528C59.09 4 59.15 4.492 59.15 5.004C59.15 5.516 59.09 6.008 58.97 6.48C58.858 6.952 58.682 7.392 58.442 7.8C58.21 8.208 57.89 8.536 57.482 8.784C57.074 9.024 56.61 9.144 56.09 9.144ZM54.89 7.764C55.21 8.092 55.61 8.256 56.09 8.256C56.57 8.256 56.97 8.092 57.29 7.764C57.61 7.428 57.83 7.028 57.95 6.564C58.07 6.1 58.13 5.58 58.13 5.004C58.13 4.428 58.07 3.908 57.95 3.444C57.83 2.98 57.61 2.584 57.29 2.256C56.97 1.928 56.57 1.764 56.09 1.764C55.61 1.764 55.21 1.928 54.89 2.256C54.57 2.584 54.35 2.98 54.23 3.444C54.11 3.908 54.05 4.428 54.05 5.004C54.05 5.58 54.11 6.1 54.23 6.564C54.35 7.028 54.57 7.428 54.89 7.764ZM65.9096 9H60.4136V8.208C61.2456 7.552 61.8896 7.032 62.3456 6.648C62.8096 6.256 63.2536 5.844 63.6776 5.412C64.1096 4.972 64.4136 4.584 64.5896 4.248C64.7656 3.904 64.8536 3.564 64.8536 3.228C64.8536 2.748 64.6896 2.384 64.3616 2.136C64.0336 1.888 63.6416 1.764 63.1856 1.764C62.2656 1.764 61.5416 2.1 61.0136 2.772L60.4016 2.136C60.7056 1.736 61.1016 1.428 61.5896 1.212C62.0856 0.987999 62.6176 0.875999 63.1856 0.875999C63.9136 0.875999 64.5416 1.08 65.0696 1.488C65.6056 1.896 65.8736 2.476 65.8736 3.228C65.8736 3.972 65.5536 4.716 64.9136 5.46C64.2736 6.196 63.2976 7.08 61.9856 8.112H65.9096V9ZM72.9643 9H67.4683V8.208C68.3003 7.552 68.9443 7.032 69.4003 6.648C69.8643 6.256 70.3083 5.844 70.7323 5.412C71.1643 4.972 71.4683 4.584 71.6443 4.248C71.8203 3.904 71.9083 3.564 71.9083 3.228C71.9083 2.748 71.7443 2.384 71.4163 2.136C71.0883 1.888 70.6963 1.764 70.2403 1.764C69.3203 1.764 68.5963 2.1 68.0683 2.772L67.4563 2.136C67.7603 1.736 68.1563 1.428 68.6443 1.212C69.1403 0.987999 69.6723 0.875999 70.2403 0.875999C70.9683 0.875999 71.5963 1.08 72.1243 1.488C72.6603 1.896 72.9283 2.476 72.9283 3.228C72.9283 3.972 72.6083 4.716 71.9683 5.46C71.3283 6.196 70.3523 7.08 69.0403 8.112H72.9643V9ZM81.5528 9.144C80.3768 9.144 79.4208 8.752 78.6848 7.968C77.9488 7.184 77.5808 6.196 77.5808 5.004C77.5808 3.812 77.9488 2.824 78.6848 2.04C79.4208 1.256 80.3768 0.864 81.5528 0.864C82.7208 0.864 83.6727 1.256 84.4088 2.04C85.1528 2.824 85.5248 3.812 85.5248 5.004C85.5248 6.196 85.1528 7.184 84.4088 7.968C83.6727 8.752 82.7208 9.144 81.5528 9.144ZM81.5528 8.256C82.4328 8.256 83.1408 7.952 83.6768 7.344C84.2208 6.728 84.4928 5.948 84.4928 5.004C84.4928 4.052 84.2208 3.272 83.6768 2.664C83.1408 2.056 82.4328 1.752 81.5528 1.752C80.6648 1.752 79.9528 2.056 79.4168 2.664C78.8808 3.272 78.6128 4.052 78.6128 5.004C78.6128 5.948 78.8808 6.728 79.4168 7.344C79.9528 7.952 80.6648 8.256 81.5528 8.256ZM90.7285 9.144C89.5525 9.144 88.5965 8.752 87.8605 7.968C87.1245 7.184 86.7565 6.196 86.7565 5.004C86.7565 3.812 87.1245 2.824 87.8605 2.04C88.5965 1.256 89.5525 0.864 90.7285 0.864C91.8965 0.864 92.8485 1.256 93.5845 2.04C94.3285 2.824 94.7005 3.812 94.7005 5.004C94.7005 6.196 94.3285 7.184 93.5845 7.968C92.8485 8.752 91.8965 9.144 90.7285 9.144ZM90.7285 8.256C91.6085 8.256 92.3165 7.952 92.8525 7.344C93.3965 6.728 93.6685 5.948 93.6685 5.004C93.6685 4.052 93.3965 3.272 92.8525 2.664C92.3165 2.056 91.6085 1.752 90.7285 1.752C89.8405 1.752 89.1285 2.056 88.5925 2.664C88.0565 3.272 87.7885 4.052 87.7885 5.004C87.7885 5.948 88.0565 6.728 88.5925 7.344C89.1285 7.952 89.8405 8.256 90.7285 8.256ZM99.9043 9.144C98.7283 9.144 97.7723 8.752 97.0363 7.968C96.3003 7.184 95.9323 6.196 95.9323 5.004C95.9323 3.812 96.3003 2.824 97.0363 2.04C97.7723 1.256 98.7283 0.864 99.9043 0.864C101.072 0.864 102.024 1.256 102.76 2.04C103.504 2.824 103.876 3.812 103.876 5.004C103.876 6.196 103.504 7.184 102.76 7.968C102.024 8.752 101.072 9.144 99.9043 9.144ZM99.9043 8.256C100.784 8.256 101.492 7.952 102.028 7.344C102.572 6.728 102.844 5.948 102.844 5.004C102.844 4.052 102.572 3.272 102.028 2.664C101.492 2.056 100.784 1.752 99.9043 1.752C99.0163 1.752 98.3043 2.056 97.7683 2.664C97.2323 3.272 96.9643 4.052 96.9643 5.004C96.9643 5.948 97.2323 6.728 97.7683 7.344C98.3043 7.952 99.0163 8.256 99.9043 8.256ZM4.584 24H0.936V15.996H4.5C5.188 15.996 5.732 16.184 6.132 16.56C6.54 16.936 6.744 17.428 6.744 18.036C6.744 18.516 6.608 18.924 6.336 19.26C6.064 19.588 5.732 19.792 5.34 19.872C5.764 19.936 6.128 20.16 6.432 20.544C6.744 20.928 6.9 21.36 6.9 21.84C6.9 22.488 6.692 23.012 6.276 23.412C5.868 23.804 5.304 24 4.584 24ZM4.332 19.464C4.772 19.464 5.112 19.344 5.352 19.104C5.592 18.864 5.712 18.556 5.712 18.18C5.712 17.804 5.588 17.496 5.34 17.256C5.1 17.008 4.764 16.884 4.332 16.884H1.932V19.464H4.332ZM4.38 23.112C4.844 23.112 5.208 22.988 5.472 22.74C5.736 22.492 5.868 22.156 5.868 21.732C5.868 21.34 5.736 21.012 5.472 20.748C5.216 20.484 4.852 20.352 4.38 20.352H1.932V23.112H4.38ZM11.0029 24.144C10.1469 24.144 9.45088 23.856 8.91488 23.28C8.37888 22.696 8.11088 21.968 8.11088 21.096C8.11088 20.224 8.37888 19.5 8.91488 18.924C9.45088 18.348 10.1469 18.06 11.0029 18.06C11.8989 18.06 12.6069 18.396 13.1269 19.068L12.5269 19.62C12.1589 19.116 11.6669 18.864 11.0509 18.864C10.4429 18.864 9.95488 19.072 9.58688 19.488C9.22688 19.904 9.04688 20.44 9.04688 21.096C9.04688 21.752 9.22688 22.292 9.58688 22.716C9.95488 23.132 10.4429 23.34 11.0509 23.34C11.6589 23.34 12.1509 23.088 12.5269 22.584L13.1269 23.136C12.6069 23.808 11.8989 24.144 11.0029 24.144ZM17.0043 24.144C16.1403 24.144 15.4323 23.864 14.8803 23.304C14.3283 22.736 14.0523 22 14.0523 21.096C14.0523 20.248 14.3243 19.532 14.8683 18.948C15.4123 18.356 16.0923 18.06 16.9083 18.06C17.7643 18.06 18.4403 18.356 18.9363 18.948C19.4403 19.532 19.6923 20.272 19.6923 21.168V21.396H15.0003C15.0403 21.964 15.2483 22.44 15.6243 22.824C16.0003 23.208 16.4883 23.4 17.0883 23.4C17.8083 23.4 18.4043 23.156 18.8763 22.668L19.3083 23.256C18.7163 23.848 17.9483 24.144 17.0043 24.144ZM18.8043 20.736C18.7963 20.24 18.6283 19.796 18.3003 19.404C17.9723 19.004 17.5043 18.804 16.8963 18.804C16.3203 18.804 15.8643 19 15.5283 19.392C15.2003 19.784 15.0243 20.232 15.0003 20.736H18.8043ZM29.0678 24H28.1678V18.996H25.1438V24H24.2438V18.204H29.0678V24ZM33.7208 24.144C32.9048 24.144 32.2528 23.804 31.7648 23.124V26.208H30.8648V18.204H31.7648V19.068C31.9808 18.764 32.2608 18.52 32.6048 18.336C32.9488 18.152 33.3208 18.06 33.7208 18.06C34.4888 18.06 35.1088 18.336 35.5808 18.888C36.0608 19.432 36.3008 20.168 36.3008 21.096C36.3008 22.024 36.0608 22.764 35.5808 23.316C35.1088 23.868 34.4888 24.144 33.7208 24.144ZM33.4928 23.34C34.0608 23.34 34.5128 23.132 34.8488 22.716C35.1848 22.292 35.3528 21.752 35.3528 21.096C35.3528 20.44 35.1848 19.904 34.8488 19.488C34.5128 19.072 34.0608 18.864 33.4928 18.864C33.1488 18.864 32.8128 18.956 32.4848 19.14C32.1648 19.316 31.9248 19.532 31.7648 19.788V22.404C31.9248 22.668 32.1648 22.892 32.4848 23.076C32.8128 23.252 33.1488 23.34 33.4928 23.34ZM42.256 24H41.356V23.34C40.868 23.876 40.228 24.144 39.436 24.144C38.9 24.144 38.428 23.972 38.02 23.628C37.612 23.284 37.408 22.816 37.408 22.224C37.408 21.616 37.608 21.148 38.008 20.82C38.416 20.484 38.892 20.316 39.436 20.316C40.26 20.316 40.9 20.58 41.356 21.108V20.064C41.356 19.68 41.22 19.38 40.948 19.164C40.676 18.948 40.324 18.84 39.892 18.84C39.212 18.84 38.62 19.108 38.116 19.644L37.696 19.02C38.312 18.38 39.084 18.06 40.012 18.06C40.676 18.06 41.216 18.22 41.632 18.54C42.048 18.86 42.256 19.352 42.256 20.016V24ZM39.76 23.496C40.48 23.496 41.012 23.256 41.356 22.776V21.684C41.012 21.204 40.48 20.964 39.76 20.964C39.344 20.964 39 21.084 38.728 21.324C38.464 21.556 38.332 21.86 38.332 22.236C38.332 22.604 38.464 22.908 38.728 23.148C39 23.38 39.344 23.496 39.76 23.496ZM47.3122 24H44.0602V18.204H47.2522C47.7562 18.204 48.1522 18.34 48.4402 18.612C48.7362 18.884 48.8842 19.244 48.8842 19.692C48.8842 20.02 48.7922 20.304 48.6082 20.544C48.4322 20.776 48.2122 20.932 47.9482 21.012C48.2442 21.084 48.4922 21.256 48.6922 21.528C48.9002 21.8 49.0042 22.1 49.0042 22.428C49.0042 22.9 48.8522 23.28 48.5482 23.568C48.2522 23.856 47.8402 24 47.3122 24ZM47.1322 23.208C47.4202 23.208 47.6482 23.128 47.8162 22.968C47.9842 22.808 48.0682 22.592 48.0682 22.32C48.0682 22.072 47.9842 21.86 47.8162 21.684C47.6482 21.508 47.4202 21.42 47.1322 21.42H44.9602V23.208H47.1322ZM47.0962 20.628C47.3682 20.628 47.5802 20.556 47.7322 20.412C47.8842 20.26 47.9602 20.064 47.9602 19.824C47.9602 19.568 47.8842 19.368 47.7322 19.224C47.5802 19.072 47.3682 18.996 47.0962 18.996H44.9602V20.628H47.0962ZM55.2287 24H54.3287V23.34C53.8407 23.876 53.2007 24.144 52.4087 24.144C51.8727 24.144 51.4007 23.972 50.9927 23.628C50.5847 23.284 50.3807 22.816 50.3807 22.224C50.3807 21.616 50.5807 21.148 50.9807 20.82C51.3887 20.484 51.8647 20.316 52.4087 20.316C53.2327 20.316 53.8727 20.58 54.3287 21.108V20.064C54.3287 19.68 54.1927 19.38 53.9207 19.164C53.6487 18.948 53.2967 18.84 52.8647 18.84C52.1847 18.84 51.5927 19.108 51.0887 19.644L50.6687 19.02C51.2847 18.38 52.0567 18.06 52.9847 18.06C53.6487 18.06 54.1887 18.22 54.6047 18.54C55.0207 18.86 55.2287 19.352 55.2287 20.016V24ZM52.7327 23.496C53.4527 23.496 53.9847 23.256 54.3287 22.776V21.684C53.9847 21.204 53.4527 20.964 52.7327 20.964C52.3167 20.964 51.9727 21.084 51.7007 21.324C51.4367 21.556 51.3047 21.86 51.3047 22.236C51.3047 22.604 51.4367 22.908 51.7007 23.148C51.9727 23.38 52.3167 23.496 52.7327 23.496ZM62.1786 24.144C61.0666 24.144 60.1946 23.828 59.5626 23.196L60.0066 22.62C60.5506 23.14 61.2746 23.4 62.1786 23.4C62.6986 23.4 63.1106 23.308 63.4146 23.124C63.7266 22.94 63.8826 22.696 63.8826 22.392C63.8826 21.752 63.2746 21.432 62.0586 21.432H60.7626V20.7H62.0586C62.5626 20.7 62.9746 20.62 63.2946 20.46C63.6146 20.292 63.7746 20.048 63.7746 19.728C63.7746 19.456 63.6146 19.236 63.2946 19.068C62.9746 18.892 62.5706 18.804 62.0826 18.804C61.2746 18.804 60.6266 19.052 60.1386 19.548L59.6706 18.996C60.2706 18.38 61.0626 18.072 62.0466 18.072C62.8386 18.064 63.4786 18.2 63.9666 18.48C64.4626 18.752 64.7106 19.132 64.7106 19.62C64.7106 20.02 64.5466 20.344 64.2186 20.592C63.8986 20.84 63.5426 20.988 63.1506 21.036C63.5586 21.068 63.9386 21.204 64.2906 21.444C64.6506 21.684 64.8306 22.02 64.8306 22.452C64.8306 22.948 64.5906 23.356 64.1106 23.676C63.6386 23.988 62.9946 24.144 62.1786 24.144ZM70.8146 24H69.9146V23.34C69.4266 23.876 68.7866 24.144 67.9946 24.144C67.4586 24.144 66.9866 23.972 66.5786 23.628C66.1706 23.284 65.9666 22.816 65.9666 22.224C65.9666 21.616 66.1666 21.148 66.5666 20.82C66.9746 20.484 67.4506 20.316 67.9946 20.316C68.8186 20.316 69.4586 20.58 69.9146 21.108V20.064C69.9146 19.68 69.7786 19.38 69.5066 19.164C69.2346 18.948 68.8826 18.84 68.4506 18.84C67.7706 18.84 67.1786 19.108 66.6746 19.644L66.2546 19.02C66.8706 18.38 67.6426 18.06 68.5706 18.06C69.2346 18.06 69.7746 18.22 70.1906 18.54C70.6066 18.86 70.8146 19.352 70.8146 20.016V24ZM68.3186 23.496C69.0386 23.496 69.5706 23.256 69.9146 22.776V21.684C69.5706 21.204 69.0386 20.964 68.3186 20.964C67.9026 20.964 67.5586 21.084 67.2866 21.324C67.0226 21.556 66.8906 21.86 66.8906 22.236C66.8906 22.604 67.0226 22.908 67.2866 23.148C67.5586 23.38 67.9026 23.496 68.3186 23.496ZM79.3148 18.204H80.2148V23.208H80.9588V25.476H80.0588V24H72.6188V18.204H73.5188V23.208H75.9668V18.204H76.8668V23.208H79.3148V18.204ZM83.057 24H82.193V18.204H83.093V22.632L86.129 18.204H87.017V24H86.117V19.488L83.057 24ZM95.5101 18.204H96.4101V23.208H97.1541V25.476H96.2541V24H88.8141V18.204H89.7141V23.208H92.1621V18.204H93.0621V23.208H95.5101V18.204ZM101.004 24.144C100.14 24.144 99.4323 23.864 98.8803 23.304C98.3283 22.736 98.0523 22 98.0523 21.096C98.0523 20.248 98.3243 19.532 98.8683 18.948C99.4123 18.356 100.092 18.06 100.908 18.06C101.764 18.06 102.44 18.356 102.936 18.948C103.44 19.532 103.692 20.272 103.692 21.168V21.396H99.0003C99.0403 21.964 99.2483 22.44 99.6243 22.824C100 23.208 100.488 23.4 101.088 23.4C101.808 23.4 102.404 23.156 102.876 22.668L103.308 23.256C102.716 23.848 101.948 24.144 101.004 24.144ZM102.804 20.736C102.796 20.24 102.628 19.796 102.3 19.404C101.972 19.004 101.504 18.804 100.896 18.804C100.32 18.804 99.8643 19 99.5283 19.392C99.2003 19.784 99.0243 20.232 99.0003 20.736H102.804ZM106.05 24H105.15V18.204H106.05V20.616H109.074V18.204H109.974V24H109.074V21.408H106.05V24ZM111.771 18.204H112.671V20.448H114.843C115.419 20.448 115.867 20.62 116.187 20.964C116.507 21.3 116.667 21.72 116.667 22.224C116.667 22.728 116.503 23.152 116.175 23.496C115.855 23.832 115.411 24 114.843 24H111.771V18.204ZM114.747 21.24H112.671V23.208H114.747C115.067 23.208 115.311 23.12 115.479 22.944C115.655 22.76 115.743 22.52 115.743 22.224C115.743 21.928 115.655 21.692 115.479 21.516C115.311 21.332 115.067 21.24 114.747 21.24ZM118.515 24H117.615V18.204H118.515V24ZM121.262 23.928C121.134 24.056 120.978 24.12 120.794 24.12C120.61 24.12 120.454 24.056 120.326 23.928C120.198 23.8 120.134 23.644 120.134 23.46C120.134 23.276 120.198 23.12 120.326 22.992C120.454 22.864 120.61 22.8 120.794 22.8C120.978 22.8 121.134 22.864 121.262 22.992C121.39 23.12 121.454 23.276 121.454 23.46C121.454 23.644 121.39 23.8 121.262 23.928ZM0.384 39.144V38.256C0.728 38.256 1.008 38.176 1.224 38.016C1.44 37.856 1.632 37.54 1.8 37.068C1.968 36.588 2.108 35.904 2.22 35.016L2.712 30.996H7.608V39H6.612V31.884H3.6L3.204 35.088C3.1 35.944 2.96 36.648 2.784 37.2C2.616 37.752 2.404 38.168 2.148 38.448C1.9 38.72 1.64 38.904 1.368 39C1.104 39.096 0.776 39.144 0.384 39.144ZM10.307 39H9.44297V33.204H10.343V37.632L13.379 33.204H14.267V39H13.367V34.488L10.307 39ZM20.6601 40.476V39H16.0641V33.204H16.9641V38.208H19.9881V33.204H20.8881V38.208H21.5601V40.476H20.6601ZM25.4066 39.144C24.5426 39.144 23.8346 38.864 23.2826 38.304C22.7306 37.736 22.4546 37 22.4546 36.096C22.4546 35.248 22.7266 34.532 23.2706 33.948C23.8146 33.356 24.4946 33.06 25.3106 33.06C26.1666 33.06 26.8426 33.356 27.3386 33.948C27.8426 34.532 28.0946 35.272 28.0946 36.168V36.396H23.4026C23.4426 36.964 23.6506 37.44 24.0266 37.824C24.4026 38.208 24.8906 38.4 25.4906 38.4C26.2106 38.4 26.8066 38.156 27.2786 37.668L27.7106 38.256C27.1186 38.848 26.3506 39.144 25.4066 39.144ZM27.2066 35.736C27.1986 35.24 27.0306 34.796 26.7026 34.404C26.3746 34.004 25.9066 33.804 25.2986 33.804C24.7226 33.804 24.2666 34 23.9306 34.392C23.6026 34.784 23.4266 35.232 23.4026 35.736H27.2066ZM30.4523 39H29.5523V33.204H30.4523V35.616H33.4763V33.204H34.3763V39H33.4763V36.408H30.4523V39ZM38.2254 39.144C37.1134 39.144 36.2414 38.828 35.6094 38.196L36.0534 37.62C36.5974 38.14 37.3214 38.4 38.2254 38.4C38.7454 38.4 39.1574 38.308 39.4614 38.124C39.7734 37.94 39.9294 37.696 39.9294 37.392C39.9294 36.752 39.3214 36.432 38.1054 36.432H36.8094V35.7H38.1054C38.6094 35.7 39.0214 35.62 39.3414 35.46C39.6614 35.292 39.8214 35.048 39.8214 34.728C39.8214 34.456 39.6614 34.236 39.3414 34.068C39.0214 33.892 38.6174 33.804 38.1294 33.804C37.3214 33.804 36.6734 34.052 36.1854 34.548L35.7174 33.996C36.3174 33.38 37.1094 33.072 38.0934 33.072C38.8854 33.064 39.5254 33.2 40.0134 33.48C40.5094 33.752 40.7574 34.132 40.7574 34.62C40.7574 35.02 40.5934 35.344 40.2654 35.592C39.9454 35.84 39.5894 35.988 39.1974 36.036C39.6054 36.068 39.9854 36.204 40.3374 36.444C40.6974 36.684 40.8774 37.02 40.8774 37.452C40.8774 37.948 40.6374 38.356 40.1574 38.676C39.6854 38.988 39.0414 39.144 38.2254 39.144ZM43.2015 39H42.3375V33.204H43.2375V37.632L46.2735 33.204H47.1615V39H46.2615V34.488L43.2015 39ZM49.8226 39H48.7666L50.3146 36.72C49.8746 36.664 49.5146 36.48 49.2346 36.168C48.9626 35.856 48.8266 35.46 48.8266 34.98C48.8266 34.468 48.9906 34.044 49.3186 33.708C49.6466 33.372 50.0946 33.204 50.6626 33.204H53.7226V39H52.8226V36.756H51.2386L49.8226 39ZM50.7586 35.964H52.8226V33.996H50.7586C50.4466 33.996 50.1986 34.088 50.0146 34.272C49.8386 34.448 49.7506 34.684 49.7506 34.98C49.7506 35.276 49.8386 35.516 50.0146 35.7C50.1906 35.876 50.4386 35.964 50.7586 35.964Z" fill="black"/>
<path d="M112.498 8.244H111.598L109.678 6.084L111.598 3.96H112.498L110.578 6.084L112.498 8.244ZM110.77 8.244H109.87L107.95 6.084L109.87 3.96H110.77L108.85 6.084L110.77 8.244ZM117.591 9.144C116.423 9.144 115.443 8.76 114.651 7.992C113.867 7.216 113.475 6.22 113.475 5.004C113.475 3.788 113.867 2.796 114.651 2.028C115.443 1.252 116.423 0.864 117.591 0.864C118.871 0.864 119.883 1.392 120.627 2.448L119.787 2.916C119.555 2.572 119.243 2.292 118.851 2.076C118.459 1.86 118.039 1.752 117.591 1.752C116.711 1.752 115.975 2.06 115.383 2.676C114.799 3.284 114.507 4.06 114.507 5.004C114.507 5.948 114.799 6.728 115.383 7.344C115.975 7.952 116.711 8.256 117.591 8.256C118.039 8.256 118.459 8.152 118.851 7.944C119.243 7.728 119.555 7.444 119.787 7.092L120.639 7.56C119.863 8.616 118.847 9.144 117.591 9.144ZM126.697 9H125.797V3.996H122.773V9H121.873V3.204H126.697V9ZM131.11 9.144C130.246 9.144 129.538 8.864 128.986 8.304C128.434 7.736 128.158 7 128.158 6.096C128.158 5.248 128.43 4.532 128.974 3.948C129.518 3.356 130.198 3.06 131.014 3.06C131.87 3.06 132.546 3.356 133.042 3.948C133.546 4.532 133.798 5.272 133.798 6.168V6.396H129.106C129.146 6.964 129.354 7.44 129.73 7.824C130.106 8.208 130.594 8.4 131.194 8.4C131.914 8.4 132.51 8.156 132.982 7.668L133.414 8.256C132.822 8.848 132.054 9.144 131.11 9.144ZM132.91 5.736C132.902 5.24 132.734 4.796 132.406 4.404C132.078 4.004 131.61 3.804 131.002 3.804C130.426 3.804 129.97 4 129.634 4.392C129.306 4.784 129.13 5.232 129.106 5.736H132.91ZM136.119 9H135.255V3.204H136.155V7.632L139.191 3.204H140.079V9H139.179V4.488L136.119 9ZM139.767 1.488C139.247 2.192 138.547 2.544 137.667 2.544C136.795 2.544 136.091 2.192 135.555 1.488L135.999 1.104C136.415 1.68 136.971 1.968 137.667 1.968C138.371 1.968 138.923 1.68 139.323 1.104L139.767 1.488ZM144.433 9.144C143.577 9.144 142.881 8.856 142.345 8.28C141.809 7.696 141.541 6.968 141.541 6.096C141.541 5.224 141.809 4.5 142.345 3.924C142.881 3.348 143.577 3.06 144.433 3.06C145.329 3.06 146.037 3.396 146.557 4.068L145.957 4.62C145.589 4.116 145.097 3.864 144.481 3.864C143.873 3.864 143.385 4.072 143.017 4.488C142.657 4.904 142.477 5.44 142.477 6.096C142.477 6.752 142.657 7.292 143.017 7.716C143.385 8.132 143.873 8.34 144.481 8.34C145.089 8.34 145.581 8.088 145.957 7.584L146.557 8.136C146.037 8.808 145.329 9.144 144.433 9.144ZM151.502 9H147.854V0.995999H151.418C152.106 0.995999 152.65 1.184 153.05 1.56C153.458 1.936 153.662 2.428 153.662 3.036C153.662 3.516 153.526 3.924 153.254 4.26C152.982 4.588 152.65 4.792 152.258 4.872C152.682 4.936 153.046 5.16 153.35 5.544C153.662 5.928 153.818 6.36 153.818 6.84C153.818 7.488 153.61 8.012 153.194 8.412C152.786 8.804 152.222 9 151.502 9ZM151.25 4.464C151.69 4.464 152.03 4.344 152.27 4.104C152.51 3.864 152.63 3.556 152.63 3.18C152.63 2.804 152.506 2.496 152.258 2.256C152.018 2.008 151.682 1.884 151.25 1.884H148.85V4.464H151.25ZM151.298 8.112C151.762 8.112 152.126 7.988 152.39 7.74C152.654 7.492 152.786 7.156 152.786 6.732C152.786 6.34 152.654 6.012 152.39 5.748C152.134 5.484 151.77 5.352 151.298 5.352H148.85V8.112H151.298ZM156.949 9.144C156.053 9.144 155.345 8.808 154.825 8.136L155.401 7.608C155.793 8.136 156.297 8.4 156.913 8.4C157.465 8.4 157.913 8.224 158.257 7.872C158.609 7.52 158.817 7.048 158.881 6.456H155.965V5.676H158.869C158.797 5.108 158.585 4.656 158.233 4.32C157.889 3.976 157.449 3.804 156.913 3.804C156.289 3.804 155.785 4.068 155.401 4.596L154.825 4.068C155.345 3.396 156.053 3.06 156.949 3.06C157.805 3.06 158.501 3.348 159.037 3.924C159.581 4.5 159.853 5.224 159.853 6.096C159.853 6.968 159.581 7.696 159.037 8.28C158.501 8.856 157.805 9.144 156.949 9.144ZM162.422 7.692C162.774 8.124 163.246 8.34 163.838 8.34C164.43 8.34 164.898 8.124 165.242 7.692C165.586 7.252 165.758 6.716 165.758 6.084C165.758 5.468 165.586 4.944 165.242 4.512C164.898 4.08 164.43 3.864 163.838 3.864C163.246 3.864 162.774 4.08 162.422 4.512C162.078 4.944 161.906 5.468 161.906 6.084C161.906 6.716 162.078 7.252 162.422 7.692ZM163.838 9.144C162.966 9.144 162.27 8.836 161.75 8.22C161.23 7.604 160.97 6.808 160.97 5.832C160.97 4.456 161.218 3.44 161.714 2.784C162.21 2.12 162.974 1.72 164.006 1.584C164.622 1.488 165.046 1.396 165.278 1.308C165.518 1.22 165.638 1.116 165.638 0.995999H166.514C166.514 1.22 166.446 1.416 166.31 1.584C166.174 1.744 165.978 1.872 165.722 1.968C165.474 2.064 165.238 2.14 165.014 2.196C164.798 2.244 164.538 2.288 164.234 2.328C163.434 2.44 162.854 2.66 162.494 2.988C162.142 3.316 161.91 3.752 161.798 4.296C162.326 3.472 163.054 3.06 163.982 3.06C164.782 3.06 165.434 3.352 165.938 3.936C166.442 4.52 166.694 5.236 166.694 6.084C166.694 6.948 166.434 7.676 165.914 8.268C165.394 8.852 164.702 9.144 163.838 9.144ZM170.512 6.084L168.592 8.244H167.692L169.612 6.084L167.692 3.96H168.592L170.512 6.084ZM172.24 6.084L170.32 8.244H169.42L171.34 6.084L169.42 3.96H170.32L172.24 6.084ZM68.6348 34.8C68.0508 34.8 67.5788 34.612 67.2188 34.236C66.8668 33.852 66.6908 33.38 66.6908 32.82C66.6908 32.26 66.8668 31.792 67.2188 31.416C67.5788 31.032 68.0508 30.84 68.6348 30.84C69.2268 30.84 69.6988 31.032 70.0508 31.416C70.4108 31.792 70.5908 32.26 70.5908 32.82C70.5908 33.38 70.4108 33.852 70.0508 34.236C69.6988 34.612 69.2268 34.8 68.6348 34.8ZM68.6348 34.224C69.0188 34.224 69.3228 34.092 69.5468 33.828C69.7708 33.564 69.8828 33.228 69.8828 32.82C69.8828 32.42 69.7708 32.092 69.5468 31.836C69.3228 31.572 69.0188 31.44 68.6348 31.44C68.2588 31.44 67.9588 31.572 67.7348 31.836C67.5188 32.092 67.4108 32.42 67.4108 32.82C67.4108 33.228 67.5188 33.564 67.7348 33.828C67.9588 34.092 68.2588 34.224 68.6348 34.224ZM65.2748 39H64.3148L59.6468 32.616V39H58.6508V30.996H59.6708L64.2788 37.248V30.996H65.2748V39ZM74.2062 39H73.2102V32.316L71.9262 33.672L71.3262 33.06L73.3302 30.996H74.2062V39ZM78.8366 39.144C78.3006 39.144 77.8286 39.032 77.4206 38.808C77.0126 38.584 76.6886 38.28 76.4486 37.896C76.2166 37.504 76.0406 37.068 75.9206 36.588C75.8086 36.1 75.7526 35.576 75.7526 35.016C75.7526 34.264 75.8646 33.584 76.0886 32.976C76.3126 32.368 76.6726 31.868 77.1686 31.476C77.6726 31.076 78.2846 30.876 79.0046 30.876C79.9246 30.876 80.6646 31.196 81.2246 31.836L80.7206 32.58C80.2566 32.036 79.6846 31.764 79.0046 31.764C78.5086 31.764 78.0846 31.92 77.7326 32.232C77.3886 32.544 77.1366 32.932 76.9766 33.396C76.8246 33.852 76.7486 34.356 76.7486 34.908C76.7486 35.044 76.7526 35.148 76.7606 35.22C76.9606 34.9 77.2686 34.612 77.6846 34.356C78.1086 34.1 78.5566 33.972 79.0286 33.972C79.7886 33.972 80.4126 34.196 80.9006 34.644C81.3966 35.084 81.6446 35.712 81.6446 36.528C81.6446 37.256 81.3886 37.876 80.8766 38.388C80.3646 38.892 79.6846 39.144 78.8366 39.144ZM78.8006 38.256C79.3766 38.256 79.8246 38.084 80.1446 37.74C80.4726 37.388 80.6366 36.996 80.6366 36.564C80.6366 36.004 80.4646 35.576 80.1206 35.28C79.7766 34.984 79.3326 34.836 78.7886 34.836C78.3966 34.836 78.0206 34.948 77.6606 35.172C77.3006 35.388 77.0086 35.676 76.7846 36.036C76.8406 36.628 77.0326 37.148 77.3606 37.596C77.6886 38.036 78.1686 38.256 78.8006 38.256ZM85.4225 39.144C84.7825 39.144 84.2145 39.02 83.7185 38.772C83.2225 38.524 82.8425 38.208 82.5785 37.824L83.1665 37.2C83.4065 37.52 83.7225 37.776 84.1145 37.968C84.5065 38.16 84.9345 38.256 85.3985 38.256C85.9825 38.256 86.4385 38.124 86.7665 37.86C87.1025 37.588 87.2705 37.22 87.2705 36.756C87.2705 36.276 87.0905 35.92 86.7305 35.688C86.3785 35.456 85.8945 35.34 85.2785 35.34C84.8065 35.34 84.5305 35.344 84.4505 35.352V34.44C84.5385 34.448 84.8145 34.452 85.2785 34.452C85.8225 34.452 86.2665 34.344 86.6105 34.128C86.9625 33.904 87.1385 33.572 87.1385 33.132C87.1385 32.708 86.9665 32.376 86.6225 32.136C86.2865 31.888 85.8625 31.764 85.3505 31.764C84.5425 31.764 83.8385 32.088 83.2385 32.736L82.6865 32.112C83.3665 31.288 84.2785 30.876 85.4225 30.876C86.2145 30.876 86.8625 31.068 87.3665 31.452C87.8785 31.828 88.1345 32.348 88.1345 33.012C88.1345 33.54 87.9585 33.964 87.6065 34.284C87.2545 34.596 86.8545 34.792 86.4065 34.872C86.8465 34.912 87.2625 35.104 87.6545 35.448C88.0545 35.792 88.2545 36.256 88.2545 36.84C88.2545 37.52 87.9985 38.076 87.4865 38.508C86.9745 38.932 86.2865 39.144 85.4225 39.144ZM95.0542 39H89.5582V38.208C90.3902 37.552 91.0342 37.032 91.4902 36.648C91.9542 36.256 92.3982 35.844 92.8222 35.412C93.2542 34.972 93.5582 34.584 93.7342 34.248C93.9102 33.904 93.9982 33.564 93.9982 33.228C93.9982 32.748 93.8342 32.384 93.5062 32.136C93.1782 31.888 92.7862 31.764 92.3302 31.764C91.4102 31.764 90.6862 32.1 90.1582 32.772L89.5462 32.136C89.8502 31.736 90.2462 31.428 90.7342 31.212C91.2302 30.988 91.7622 30.876 92.3302 30.876C93.0582 30.876 93.6862 31.08 94.2142 31.488C94.7502 31.896 95.0182 32.476 95.0182 33.228C95.0182 33.972 94.6982 34.716 94.0582 35.46C93.4182 36.196 92.4422 37.08 91.1302 38.112H95.0542V39ZM99.1568 39.144C98.5168 39.144 97.9488 39.02 97.4528 38.772C96.9568 38.524 96.5768 38.208 96.3128 37.824L96.9008 37.2C97.1408 37.52 97.4568 37.776 97.8488 37.968C98.2408 38.16 98.6688 38.256 99.1328 38.256C99.7168 38.256 100.173 38.124 100.501 37.86C100.837 37.588 101.005 37.22 101.005 36.756C101.005 36.276 100.825 35.92 100.465 35.688C100.113 35.456 99.6288 35.34 99.0128 35.34C98.5408 35.34 98.2648 35.344 98.1848 35.352V34.44C98.2728 34.448 98.5488 34.452 99.0128 34.452C99.5568 34.452 100.001 34.344 100.345 34.128C100.697 33.904 100.873 33.572 100.873 33.132C100.873 32.708 100.701 32.376 100.357 32.136C100.021 31.888 99.5968 31.764 99.0848 31.764C98.2768 31.764 97.5728 32.088 96.9728 32.736L96.4208 32.112C97.1008 31.288 98.0128 30.876 99.1568 30.876C99.9488 30.876 100.597 31.068 101.101 31.452C101.613 31.828 101.869 32.348 101.869 33.012C101.869 33.54 101.693 33.964 101.341 34.284C100.989 34.596 100.589 34.792 100.141 34.872C100.581 34.912 100.997 35.104 101.389 35.448C101.789 35.792 101.989 36.256 101.989 36.84C101.989 37.52 101.733 38.076 101.221 38.508C100.709 38.932 100.021 39.144 99.1568 39.144ZM106.317 39.144C105.789 39.144 105.321 39.024 104.913 38.784C104.513 38.536 104.193 38.208 103.953 37.8C103.721 37.392 103.545 36.952 103.425 36.48C103.313 36.008 103.257 35.516 103.257 35.004C103.257 34.492 103.313 34 103.425 33.528C103.545 33.056 103.721 32.62 103.953 32.22C104.193 31.812 104.513 31.488 104.913 31.248C105.321 31 105.789 30.876 106.317 30.876C106.837 30.876 107.301 31 107.709 31.248C108.117 31.488 108.437 31.812 108.669 32.22C108.909 32.62 109.085 33.056 109.197 33.528C109.317 34 109.377 34.492 109.377 35.004C109.377 35.516 109.317 36.008 109.197 36.48C109.085 36.952 108.909 37.392 108.669 37.8C108.437 38.208 108.117 38.536 107.709 38.784C107.301 39.024 106.837 39.144 106.317 39.144ZM105.117 37.764C105.437 38.092 105.837 38.256 106.317 38.256C106.797 38.256 107.197 38.092 107.517 37.764C107.837 37.428 108.057 37.028 108.177 36.564C108.297 36.1 108.357 35.58 108.357 35.004C108.357 34.428 108.297 33.908 108.177 33.444C108.057 32.98 107.837 32.584 107.517 32.256C107.197 31.928 106.797 31.764 106.317 31.764C105.837 31.764 105.437 31.928 105.117 32.256C104.797 32.584 104.577 32.98 104.457 33.444C104.337 33.908 104.277 34.428 104.277 35.004C104.277 35.58 104.337 36.1 104.457 36.564C104.577 37.028 104.797 37.428 105.117 37.764Z" fill="#3DBDF6"/>
</svg>
