<svg width="57" height="12" viewBox="0 0 57 12" fill="none" xmlns="http://www.w3.org/2000/svg">
<path d="M7.008 9H5.772L2.736 5.4L1.932 6.312V9H0.936V0.995999H1.932V5.136L5.472 0.995999H6.72L3.384 4.8L7.008 9ZM12.4318 9H11.5318V8.34C11.0438 8.876 10.4038 9.144 9.61181 9.144C9.07581 9.144 8.60381 8.972 8.19581 8.628C7.78781 8.284 7.58381 7.816 7.58381 7.224C7.58381 6.616 7.78381 6.148 8.18381 5.82C8.59181 5.484 9.06781 5.316 9.61181 5.316C10.4358 5.316 11.0758 5.58 11.5318 6.108V5.064C11.5318 4.68 11.3958 4.38 11.1238 4.164C10.8518 3.948 10.4998 3.84 10.0678 3.84C9.38781 3.84 8.79581 4.108 8.29181 4.644L7.87181 4.02C8.48781 3.38 9.25981 3.06 10.1878 3.06C10.8518 3.06 11.3918 3.22 11.8078 3.54C12.2238 3.86 12.4318 4.352 12.4318 5.016V9ZM9.93581 8.496C10.6558 8.496 11.1878 8.256 11.5318 7.776V6.684C11.1878 6.204 10.6558 5.964 9.93581 5.964C9.51981 5.964 9.17581 6.084 8.90381 6.324C8.63981 6.556 8.50781 6.86 8.50781 7.236C8.50781 7.604 8.63981 7.908 8.90381 8.148C9.17581 8.38 9.51981 8.496 9.93581 8.496ZM16.1919 9H15.2919V3.996H13.6119V3.204H17.8839V3.996H16.1919V9ZM21.6801 9.144C20.8161 9.144 20.1081 8.864 19.5561 8.304C19.0041 7.736 18.7281 7 18.7281 6.096C18.7281 5.248 19.0001 4.532 19.5441 3.948C20.0881 3.356 20.7681 3.06 21.5841 3.06C22.4401 3.06 23.1161 3.356 23.6121 3.948C24.1161 4.532 24.3681 5.272 24.3681 6.168V6.396H19.6761C19.7161 6.964 19.9241 7.44 20.3001 7.824C20.6761 8.208 21.1641 8.4 21.7641 8.4C22.4841 8.4 23.0801 8.156 23.5521 7.668L23.9841 8.256C23.3921 8.848 22.6241 9.144 21.6801 9.144ZM23.4801 5.736C23.4721 5.24 23.3041 4.796 22.9761 4.404C22.6481 4.004 22.1801 3.804 21.5721 3.804C20.9961 3.804 20.5401 4 20.2041 4.392C19.8761 4.784 19.7001 5.232 19.6761 5.736H23.4801ZM29.8818 3.204V3.996H26.7258V9H25.8258V3.204H29.8818ZM35.6603 8.268C35.1403 8.852 34.4483 9.144 33.5843 9.144C32.7203 9.144 32.0243 8.852 31.4963 8.268C30.9763 7.684 30.7163 6.96 30.7163 6.096C30.7163 5.232 30.9763 4.512 31.4963 3.936C32.0243 3.352 32.7203 3.06 33.5843 3.06C34.4483 3.06 35.1403 3.352 35.6603 3.936C36.1883 4.512 36.4523 5.232 36.4523 6.096C36.4523 6.96 36.1883 7.684 35.6603 8.268ZM32.1683 7.692C32.5203 8.124 32.9923 8.34 33.5843 8.34C34.1763 8.34 34.6443 8.124 34.9883 7.692C35.3323 7.252 35.5043 6.72 35.5043 6.096C35.5043 5.472 35.3323 4.944 34.9883 4.512C34.6443 4.08 34.1763 3.864 33.5843 3.864C32.9923 3.864 32.5203 4.084 32.1683 4.524C31.8243 4.956 31.6523 5.48 31.6523 6.096C31.6523 6.72 31.8243 7.252 32.1683 7.692ZM40.7755 9.144C39.9595 9.144 39.3075 8.804 38.8195 8.124V11.208H37.9195V3.204H38.8195V4.068C39.0355 3.764 39.3155 3.52 39.6595 3.336C40.0035 3.152 40.3755 3.06 40.7755 3.06C41.5435 3.06 42.1635 3.336 42.6355 3.888C43.1155 4.432 43.3555 5.168 43.3555 6.096C43.3555 7.024 43.1155 7.764 42.6355 8.316C42.1635 8.868 41.5435 9.144 40.7755 9.144ZM40.5475 8.34C41.1155 8.34 41.5675 8.132 41.9035 7.716C42.2395 7.292 42.4075 6.752 42.4075 6.096C42.4075 5.44 42.2395 4.904 41.9035 4.488C41.5675 4.072 41.1155 3.864 40.5475 3.864C40.2035 3.864 39.8675 3.956 39.5395 4.14C39.2195 4.316 38.9795 4.532 38.8195 4.788V7.404C38.9795 7.668 39.2195 7.892 39.5395 8.076C39.8675 8.252 40.2035 8.34 40.5475 8.34ZM45.6507 9H44.7867V3.204H45.6867V7.632L48.7227 3.204H49.6107V9H48.7107V4.488L45.6507 9ZM52.2718 9H51.2158L52.7638 6.72C52.3238 6.664 51.9638 6.48 51.6838 6.168C51.4118 5.856 51.2758 5.46 51.2758 4.98C51.2758 4.468 51.4398 4.044 51.7678 3.708C52.0958 3.372 52.5438 3.204 53.1118 3.204H56.1718V9H55.2718V6.756H53.6878L52.2718 9ZM53.2078 5.964H55.2718V3.996H53.2078C52.8958 3.996 52.6478 4.088 52.4638 4.272C52.2878 4.448 52.1998 4.684 52.1998 4.98C52.1998 5.276 52.2878 5.516 52.4638 5.7C52.6398 5.876 52.8878 5.964 53.2078 5.964Z" fill="#7A8185"/>
</svg>
